<svg width="401" height="401" viewBox="0 0 401 401" fill="none" xmlns="http://www.w3.org/2000/svg">
<path d="M264.7 36.7636C228.899 16.9462 185.398 15.1096 144.753 30.3476C109.321 43.6288 68.7234 120.396 51.0072 141.064C33.291 161.731 2.29373 210.453 17.7884 245.139C33.283 279.826 80.2 282.304 103.241 322.404C126.283 362.504 210.453 389.772 261.38 363.972C312.307 338.171 308.626 288.68 346.272 270.94C383.917 253.199 381.704 194.91 368.415 158.74C359.793 135.265 341.869 114.71 326.101 95.7427C317.784 85.814 309.219 76.0055 300.75 66.1569C290.512 54.3606 278.316 44.4173 264.7 36.7636Z" fill="#A558D1"/>
<path opacity="0.7" d="M264.7 36.7636C228.899 16.9462 185.398 15.1096 144.753 30.3476C109.321 43.6288 68.7234 120.396 51.0072 141.064C33.291 161.731 2.29373 210.453 17.7884 245.139C33.283 279.826 80.2 282.304 103.241 322.404C126.283 362.504 210.453 389.772 261.38 363.972C312.307 338.171 308.626 288.68 346.272 270.94C383.917 253.199 381.704 194.91 368.415 158.74C359.793 135.265 341.869 114.71 326.101 95.7427C317.784 85.814 309.219 76.0055 300.75 66.1569C290.512 54.3606 278.316 44.4173 264.7 36.7636Z" fill="white"/>
<path d="M299.547 291.928C301.54 291.928 303.156 290.312 303.156 288.319C303.156 286.326 301.54 284.71 299.547 284.71C297.554 284.71 295.938 286.326 295.938 288.319C295.938 290.312 297.554 291.928 299.547 291.928Z" stroke="#263238" stroke-linejoin="round"/>
<path d="M346.464 328.018C348.457 328.018 350.073 326.402 350.073 324.409C350.073 322.416 348.457 320.8 346.464 320.8C344.471 320.8 342.855 322.416 342.855 324.409C342.855 326.402 344.471 328.018 346.464 328.018Z" stroke="#263238" stroke-linejoin="round"/>
<path d="M282.304 325.612C284.297 325.612 285.913 323.996 285.913 322.003C285.913 320.01 284.297 318.394 282.304 318.394C280.311 318.394 278.695 320.01 278.695 322.003C278.695 323.996 280.311 325.612 282.304 325.612Z" stroke="#263238" stroke-miterlimit="10"/>
<path d="M303.557 323.206C306.879 323.206 309.572 320.513 309.572 317.191C309.572 313.869 306.879 311.176 303.557 311.176C300.235 311.176 297.542 313.869 297.542 317.191C297.542 320.513 300.235 323.206 303.557 323.206Z" stroke="#263238" stroke-linejoin="round"/>
<path d="M296.339 347.667C298.332 347.667 299.948 346.051 299.948 344.058C299.948 342.065 298.332 340.449 296.339 340.449C294.346 340.449 292.73 342.065 292.73 344.058C292.73 346.051 294.346 347.667 296.339 347.667Z" stroke="#263238" stroke-linejoin="round"/>
<path d="M372.529 354.083C374.522 354.083 376.138 352.467 376.138 350.474C376.138 348.481 374.522 346.865 372.529 346.865C370.536 346.865 368.92 348.481 368.92 350.474C368.92 352.467 370.536 354.083 372.529 354.083Z" stroke="#263238" stroke-linejoin="round"/>
<path d="M376.138 292.73C378.131 292.73 379.747 291.114 379.747 289.121C379.747 287.128 378.131 285.512 376.138 285.512C374.145 285.512 372.529 287.128 372.529 289.121C372.529 291.114 374.145 292.73 376.138 292.73Z" stroke="#263238" stroke-linejoin="round"/>
<path d="M346.865 283.507C348.858 283.507 350.474 281.891 350.474 279.898C350.474 277.905 348.858 276.289 346.865 276.289C344.872 276.289 343.256 277.905 343.256 279.898C343.256 281.891 344.872 283.507 346.865 283.507Z" stroke="#263238" stroke-linejoin="round"/>
<path d="M358.895 302.755C362.217 302.755 364.91 300.062 364.91 296.74C364.91 293.418 362.217 290.725 358.895 290.725C355.573 290.725 352.88 293.418 352.88 296.74C352.88 300.062 355.573 302.755 358.895 302.755Z" stroke="#263238" stroke-linejoin="round"/>
<path d="M302.354 289.923L343.657 322.003" stroke="#263238" stroke-linejoin="round"/>
<path d="M348.068 321.602L356.89 302.755" stroke="#263238" stroke-linejoin="round"/>
<path d="M360.9 302.755L372.529 346.865L376.138 292.73" stroke="#263238" stroke-linejoin="round"/>
<path d="M342.855 326.414L299.948 344.058" stroke="#263238" stroke-linejoin="round"/>
<path d="M309.572 317.191L353.281 298.745" stroke="#263238" stroke-linejoin="round"/>
<path d="M301.953 311.176L299.547 291.928" stroke="#263238" stroke-linejoin="round"/>
<path d="M364.91 294.735L372.93 291.126" stroke="#263238" stroke-linejoin="round"/>
<path d="M284.309 325.211L293.933 340.85" stroke="#263238" stroke-linejoin="round"/>
<path d="M282.304 318.394L297.141 291.126" stroke="#263238" stroke-linejoin="round"/>
<path d="M307.968 321.602L368.92 350.474" stroke="#263238" stroke-linejoin="round"/>
<path d="M346.464 328.018L370.524 348.068" stroke="#263238" stroke-linejoin="round"/>
<path d="M303.156 288.319L352.88 296.74" stroke="#263238" stroke-linejoin="round"/>
<path d="M372.529 289.121L302.354 286.715" stroke="#263238" stroke-linejoin="round"/>
<path d="M372.93 287.517L350.474 281.903" stroke="#263238" stroke-linejoin="round"/>
<path d="M343.256 281.502L298.745 341.251" stroke="#263238" stroke-linejoin="round"/>
<path d="M297.542 319.196L285.913 322.003" stroke="#263238" stroke-linejoin="round"/>
<path d="M323.062 291.351C323.062 291.016 322.962 290.688 322.776 290.41C322.59 290.131 322.325 289.914 322.015 289.786C321.705 289.659 321.365 289.626 321.036 289.692C320.708 289.758 320.406 289.919 320.17 290.157C319.934 290.394 319.773 290.697 319.709 291.025C319.644 291.354 319.679 291.695 319.808 292.004C319.938 292.313 320.156 292.577 320.435 292.762C320.714 292.947 321.042 293.044 321.377 293.043C321.599 293.043 321.819 292.999 322.024 292.914C322.229 292.829 322.415 292.704 322.571 292.547C322.728 292.39 322.852 292.203 322.936 291.998C323.02 291.792 323.063 291.572 323.062 291.351Z" fill="#263238"/>
<path d="M306.212 333.311C306.213 332.976 306.115 332.648 305.93 332.369C305.745 332.09 305.482 331.872 305.173 331.742C304.863 331.613 304.523 331.578 304.194 331.643C303.865 331.707 303.563 331.868 303.326 332.104C303.088 332.34 302.926 332.642 302.86 332.97C302.794 333.299 302.827 333.639 302.955 333.949C303.083 334.259 303.3 334.523 303.578 334.71C303.857 334.896 304.184 334.996 304.519 334.996C304.741 334.997 304.961 334.954 305.166 334.87C305.372 334.785 305.558 334.662 305.716 334.505C305.873 334.349 305.998 334.163 306.083 333.958C306.168 333.753 306.212 333.533 306.212 333.311Z" fill="#263238"/>
<path d="M353.498 313.534C353.499 313.199 353.401 312.87 353.216 312.591C353.03 312.311 352.766 312.093 352.457 311.964C352.147 311.835 351.806 311.801 351.477 311.866C351.148 311.931 350.846 312.092 350.609 312.329C350.372 312.567 350.21 312.869 350.145 313.198C350.08 313.527 350.114 313.868 350.243 314.177C350.373 314.487 350.591 314.751 350.87 314.936C351.15 315.122 351.478 315.22 351.813 315.218C352.26 315.218 352.688 315.041 353.004 314.725C353.32 314.409 353.498 313.981 353.498 313.534Z" fill="#263238"/>
<path d="M353.056 342.021C353.058 341.686 352.96 341.358 352.775 341.079C352.59 340.799 352.326 340.581 352.017 340.452C351.708 340.323 351.368 340.288 351.039 340.352C350.71 340.417 350.408 340.577 350.17 340.814C349.933 341.05 349.771 341.351 349.705 341.68C349.639 342.008 349.672 342.349 349.8 342.659C349.928 342.968 350.145 343.233 350.423 343.419C350.702 343.606 351.029 343.705 351.364 343.705C351.811 343.703 352.239 343.525 352.556 343.21C352.872 342.895 353.052 342.468 353.056 342.021Z" fill="#263238"/>
<path d="M292.73 302.811C292.73 302.476 292.631 302.149 292.444 301.87C292.258 301.592 291.993 301.375 291.683 301.247C291.374 301.119 291.033 301.086 290.705 301.152C290.376 301.218 290.075 301.38 289.838 301.617C289.602 301.855 289.441 302.157 289.377 302.486C289.313 302.815 289.347 303.155 289.477 303.464C289.606 303.773 289.824 304.037 290.103 304.222C290.383 304.407 290.711 304.505 291.046 304.503C291.268 304.503 291.487 304.459 291.692 304.374C291.897 304.289 292.083 304.164 292.24 304.007C292.396 303.85 292.52 303.663 292.604 303.458C292.688 303.253 292.731 303.033 292.73 302.811Z" fill="#263238"/>
<path d="M375.28 301.785C376.21 301.785 376.964 301.031 376.964 300.1C376.964 299.17 376.21 298.416 375.28 298.416C374.35 298.416 373.596 299.17 373.596 300.1C373.596 301.031 374.35 301.785 375.28 301.785Z" fill="#263238"/>
<path d="M314.224 233.959V192.841C314.223 192.569 314.275 192.299 314.379 192.048C314.483 191.796 314.635 191.568 314.827 191.375C315.02 191.183 315.248 191.031 315.5 190.927C315.751 190.823 316.021 190.771 316.293 190.772H359.464C359.737 190.771 360.007 190.823 360.259 190.927C360.511 191.03 360.74 191.183 360.933 191.375C361.126 191.567 361.279 191.796 361.383 192.047C361.488 192.299 361.542 192.569 361.542 192.841V194.445" stroke="#263238" stroke-miterlimit="10"/>
<path d="M317.881 238.892H316.277C316.004 238.892 315.735 238.838 315.483 238.733C315.231 238.629 315.003 238.476 314.811 238.283C314.619 238.09 314.466 237.861 314.363 237.609C314.259 237.357 314.206 237.087 314.208 236.815" stroke="#263238" stroke-miterlimit="10"/>
<path d="M361.542 197.22V236.815C361.542 237.365 361.323 237.894 360.933 238.283C360.544 238.673 360.015 238.892 359.464 238.892H320.848" stroke="#263238" stroke-miterlimit="10"/>
<path d="M327.625 208.945V204.406H348.132V225.258H341.796" stroke="#263238" stroke-miterlimit="10"/>
<path d="M327.625 214.888V211.76" stroke="#263238" stroke-miterlimit="10"/>
<path d="M339.294 225.258H327.625V217.703" stroke="#263238" stroke-miterlimit="10"/>
<path d="M323.936 191.141V178.124" stroke="#263238" stroke-miterlimit="10"/>
<path d="M333.231 191.141V178.124" stroke="#263238" stroke-miterlimit="10"/>
<path d="M342.526 191.141V178.124" stroke="#263238" stroke-miterlimit="10"/>
<path d="M351.821 191.141V178.124" stroke="#263238" stroke-miterlimit="10"/>
<path d="M323.936 252.028V239.02" stroke="#263238" stroke-miterlimit="10"/>
<path d="M333.231 252.028V239.02" stroke="#263238" stroke-miterlimit="10"/>
<path d="M342.526 252.028V239.02" stroke="#263238" stroke-miterlimit="10"/>
<path d="M351.821 252.028V239.02" stroke="#263238" stroke-miterlimit="10"/>
<path d="M361.814 201.134H374.831" stroke="#263238" stroke-miterlimit="10"/>
<path d="M361.814 210.429H374.831" stroke="#263238" stroke-miterlimit="10"/>
<path d="M361.814 219.724H374.831" stroke="#263238" stroke-miterlimit="10"/>
<path d="M361.814 229.019H374.831" stroke="#263238" stroke-miterlimit="10"/>
<path d="M300.926 201.134H313.943" stroke="#263238" stroke-miterlimit="10"/>
<path d="M300.926 210.429H313.943" stroke="#263238" stroke-miterlimit="10"/>
<path d="M300.926 219.724H313.943" stroke="#263238" stroke-miterlimit="10"/>
<path d="M300.926 229.019H313.943" stroke="#263238" stroke-miterlimit="10"/>
<path d="M376.523 219.748C376.523 219.413 376.424 219.086 376.238 218.808C376.052 218.53 375.788 218.313 375.478 218.185C375.169 218.057 374.829 218.023 374.501 218.088C374.172 218.154 373.871 218.315 373.634 218.552C373.397 218.788 373.236 219.09 373.171 219.418C373.106 219.746 373.139 220.087 373.267 220.396C373.395 220.705 373.612 220.969 373.891 221.155C374.169 221.341 374.496 221.44 374.831 221.44C375.28 221.44 375.71 221.262 376.027 220.945C376.345 220.627 376.523 220.197 376.523 219.748Z" fill="#263238"/>
<path d="M320.375 191.141C320.375 190.808 320.276 190.482 320.091 190.205C319.906 189.928 319.643 189.712 319.335 189.585C319.028 189.457 318.689 189.424 318.362 189.489C318.035 189.554 317.735 189.714 317.5 189.95C317.264 190.185 317.104 190.485 317.039 190.812C316.974 191.139 317.007 191.478 317.135 191.785C317.262 192.093 317.478 192.356 317.755 192.541C318.032 192.726 318.358 192.825 318.691 192.825C319.137 192.825 319.566 192.648 319.882 192.332C320.198 192.016 320.375 191.587 320.375 191.141Z" fill="#263238"/>
<path d="M308.722 228.642C308.722 228.309 308.623 227.983 308.438 227.707C308.253 227.43 307.99 227.214 307.682 227.086C307.374 226.959 307.036 226.925 306.709 226.99C306.382 227.055 306.082 227.216 305.847 227.451C305.611 227.687 305.451 227.987 305.386 228.314C305.321 228.64 305.354 228.979 305.482 229.287C305.609 229.594 305.825 229.858 306.102 230.043C306.379 230.228 306.705 230.326 307.038 230.326C307.259 230.326 307.478 230.283 307.682 230.198C307.887 230.114 308.072 229.99 308.229 229.833C308.385 229.677 308.509 229.491 308.594 229.287C308.678 229.082 308.722 228.863 308.722 228.642Z" fill="#263238"/>
<path d="M342.526 184.011C343.456 184.011 344.21 183.257 344.21 182.327C344.21 181.397 343.456 180.643 342.526 180.643C341.596 180.643 340.842 181.397 340.842 182.327C340.842 183.257 341.596 184.011 342.526 184.011Z" fill="#263238"/>
<path d="M339.246 238.996C339.246 238.663 339.147 238.337 338.962 238.06C338.777 237.783 338.514 237.567 338.206 237.44C337.899 237.313 337.56 237.279 337.233 237.344C336.907 237.409 336.606 237.57 336.371 237.805C336.135 238.041 335.975 238.341 335.91 238.667C335.845 238.994 335.878 239.333 336.006 239.641C336.133 239.948 336.349 240.211 336.626 240.396C336.903 240.581 337.229 240.68 337.562 240.68C338.008 240.678 338.435 240.5 338.75 240.185C339.066 239.869 339.244 239.442 339.246 238.996Z" fill="#263238"/>
<path d="M353.53 248.027C353.531 247.691 353.433 247.363 353.248 247.083C353.062 246.804 352.798 246.586 352.489 246.457C352.179 246.328 351.838 246.294 351.509 246.359C351.18 246.424 350.878 246.585 350.641 246.822C350.404 247.059 350.242 247.361 350.177 247.69C350.112 248.019 350.146 248.36 350.276 248.67C350.405 248.979 350.623 249.244 350.902 249.429C351.182 249.614 351.51 249.712 351.845 249.711C352.292 249.711 352.72 249.533 353.036 249.218C353.352 248.902 353.53 248.473 353.53 248.027Z" fill="#263238"/>
<path d="M279.786 61.5294C279.786 61.5294 276.417 62.3314 275.375 64.9058C274.332 67.4803 267.066 84.8997 267.066 86.9769C267.139 88.3362 267.69 89.6259 268.622 90.618L285.761 97.6274C285.761 97.6274 289.394 96.5848 292.249 97.1061C295.104 97.6274 296.924 102.56 299.78 103.081C302.635 103.602 314.585 102.816 320.295 100.218C326.005 97.6194 327.826 89.5754 327.826 84.1218C327.826 78.6682 326.005 73.2146 324.449 72.18L322.115 70.6241" stroke="#263238" stroke-miterlimit="10"/>
<path d="M318.218 68.0256C318.218 68.0256 316.397 66.4697 321.073 67.2236C325.748 67.9775 337.433 83.3197 341.331 88.252C345.229 93.1843 349.119 93.449 352.23 90.3292C355.342 87.2094 353.032 83.3197 351.974 81.2426C350.915 79.1654 346.52 73.9684 344.964 70.3354C343.408 66.7023 338.989 57.351 335.34 55.0172C331.691 52.6833 326.254 52.162 317.945 55.5385C309.636 58.9149 305.738 61.77 305.738 61.77" stroke="#263238" stroke-miterlimit="10"/>
<path d="M282.906 61.2727L299.266 60.2382" stroke="#263238" stroke-miterlimit="10"/>
<path d="M291.471 92.4305C294.591 91.3959 294.326 89.832 297.446 85.6776C300.566 81.5233 304.199 67.5043 304.455 65.6838C304.597 64.5821 304.31 63.468 303.653 62.572L319.236 70.4076" stroke="#263238" stroke-miterlimit="10"/>
<path d="M272.52 90.626H286.803C289.343 88.776 291.319 86.258 292.513 83.3518C294.326 78.6762 297.967 68.0336 299.002 65.7078C299.32 65.1089 299.486 64.4411 299.486 63.763C299.486 63.0848 299.32 62.417 299.002 61.8181" stroke="#263238" stroke-miterlimit="10"/>
<path d="M288.359 96.8495C288.359 96.8495 281.085 92.9518 284.461 93.4731C287.838 93.9944 295.369 98.662 300.822 98.662C306.276 98.662 308.353 95.5503 310.951 91.3959C313.55 87.2416 319.773 76.0697 319.773 72.7013" stroke="#263238" stroke-miterlimit="10"/>
<path d="M342.887 98.1407C342.887 98.1407 347.298 92.4305 351.452 97.6274C355.607 102.824 349.897 110.868 347.563 113.202C345.229 115.536 338.741 115.544 337.69 115.023C337.028 114.677 336.418 114.24 335.878 113.724" stroke="#263238" stroke-miterlimit="10"/>
<path d="M347.266 92.4305L360.772 108.013C360.772 108.013 361.028 103.859 363.37 102.038C364.424 101.165 365.551 100.384 366.739 99.7046L354.275 86.7202" stroke="#263238" stroke-miterlimit="10"/>
<path d="M368.335 100.25H370.147C370.147 100.25 374.823 105.968 374.823 107.524C374.823 109.08 367.557 119.466 365.199 119.466C362.841 119.466 359.488 117.653 359.488 117.653C359.488 117.653 360.788 115.833 361.822 114.012C362.857 112.192 361.822 109.601 361.822 109.601C361.822 109.601 366.498 112.978 365.72 117.389" stroke="#263238" stroke-miterlimit="10"/>
<path d="M291.776 132.186C296.491 133.228 305.081 133.381 306.797 134.239C308.874 135.273 313.542 148.258 313.542 148.258" stroke="#263238" stroke-miterlimit="10"/>
<path d="M287.838 98.4054C287.838 98.4054 285.504 99.9613 286.803 102.038C288.102 104.116 290.958 105.415 290.958 105.415C290.958 105.415 287.06 109.569 287.838 111.39C288.288 112.559 288.288 113.854 287.838 115.023C287.838 115.023 287.036 117.357 287.316 118.656C287.597 119.955 287.838 122.032 287.838 122.032C287.838 122.032 286.282 129.563 289.394 131.384" stroke="#263238" stroke-miterlimit="10"/>
<path d="M359.505 117.621C359.505 117.621 354.572 122.032 354.308 127.486C354.043 132.94 353.506 134.495 353.506 134.495" stroke="#263238" stroke-miterlimit="10"/>
<path d="M372.818 92.8154C372.485 94.9838 371.948 97.1159 371.214 99.1833" stroke="#263238" stroke-miterlimit="10"/>
<path d="M373.299 85.012C373.347 86.1348 373.339 87.2255 373.299 88.2761" stroke="#263238" stroke-miterlimit="10"/>
<path d="M334.314 52.7074C334.314 52.7074 350.153 49.8443 363.916 63.6066C368.925 68.5248 372.134 74.9852 373.026 81.9483" stroke="#263238" stroke-miterlimit="10"/>
<path d="M272.263 73.9524C273.295 73.9524 274.132 73.1158 274.132 72.0837C274.132 71.0517 273.295 70.2151 272.263 70.2151C271.231 70.2151 270.394 71.0517 270.394 72.0837C270.394 73.1158 271.231 73.9524 272.263 73.9524Z" fill="#263238"/>
<path d="M310.558 104.075C311.59 104.075 312.427 103.239 312.427 102.207C312.427 101.175 311.59 100.338 310.558 100.338C309.526 100.338 308.69 101.175 308.69 102.207C308.69 103.239 309.526 104.075 310.558 104.075Z" fill="#263238"/>
<path d="M307.527 135.835C308.559 135.835 309.396 134.998 309.396 133.966C309.396 132.934 308.559 132.097 307.527 132.097C306.495 132.097 305.658 132.934 305.658 133.966C305.658 134.998 306.495 135.835 307.527 135.835Z" fill="#263238"/>
<path d="M343.192 88.2761C343.192 87.9062 343.082 87.5446 342.876 87.2371C342.671 86.9296 342.378 86.6901 342.036 86.5489C341.695 86.4077 341.318 86.3712 340.956 86.444C340.593 86.5167 340.26 86.6955 339.999 86.9576C339.738 87.2198 339.561 87.5535 339.489 87.9165C339.418 88.2795 339.456 88.6555 339.599 88.9968C339.742 89.3381 339.982 89.6294 340.291 89.8338C340.599 90.0381 340.961 90.1464 341.331 90.1448C341.576 90.1448 341.819 90.0964 342.045 90.0024C342.271 89.9084 342.477 89.7706 342.65 89.597C342.823 89.4233 342.959 89.2173 343.053 88.9906C343.146 88.7639 343.193 88.5211 343.192 88.2761Z" fill="#263238"/>
<path d="M338.821 60.8717C339.853 60.8717 340.69 60.0351 340.69 59.0031C340.69 57.971 339.853 57.1344 338.821 57.1344C337.789 57.1344 336.952 57.971 336.952 59.0031C336.952 60.0351 337.789 60.8717 338.821 60.8717Z" fill="#263238"/>
<path d="M306.685 63.1975C307.717 63.1975 308.553 62.3609 308.553 61.3289C308.553 60.2968 307.717 59.4602 306.685 59.4602C305.653 59.4602 304.816 60.2968 304.816 61.3289C304.816 62.3609 305.653 63.1975 306.685 63.1975Z" fill="#263238"/>
<path d="M369.177 102.207C370.209 102.207 371.045 101.37 371.045 100.338C371.045 99.3061 370.209 98.4695 369.177 98.4695C368.145 98.4695 367.308 99.3061 367.308 100.338C367.308 101.37 368.145 102.207 369.177 102.207Z" fill="#263238"/>
<path d="M59.4362 56.6453H56.148" stroke="#263238" stroke-miterlimit="10"/>
<path d="M44.7035 94.3954H59.4362C60.0854 94.3993 60.724 94.2315 61.2874 93.909C61.8508 93.5864 62.3189 93.1206 62.6442 92.5588L71.378 77.3609C71.7011 76.8013 71.8712 76.1665 71.8712 75.5203C71.8712 74.8742 71.7011 74.2394 71.378 73.6797L62.6282 58.4899" stroke="#263238" stroke-miterlimit="10"/>
<path d="M53.0844 56.6453H41.8564C41.2066 56.643 40.5677 56.8124 40.0044 57.1363C39.441 57.4602 38.9733 57.9271 38.6484 58.4899L29.9306 73.6798C29.6075 74.2394 29.4374 74.8742 29.4374 75.5204C29.4374 76.1665 29.6075 76.8013 29.9306 77.3609L38.7045 92.5989C39.0298 93.1608 39.4979 93.6266 40.0613 93.9491C40.6247 94.2716 41.2633 94.4395 41.9125 94.4355" stroke="#263238" stroke-miterlimit="10"/>
<path d="M71.2657 108.406L73.784 112.753C74.1087 113.316 74.5766 113.782 75.1401 114.104C75.7037 114.427 76.3427 114.595 76.992 114.59H94.5398C95.1891 114.595 95.8281 114.427 96.3916 114.104C96.9552 113.782 97.4231 113.316 97.7478 112.753L106.522 97.5152C106.845 96.9571 107.015 96.3236 107.015 95.6786C107.015 95.0337 106.845 94.4002 106.522 93.8421L101.341 84.8677" stroke="#263238" stroke-miterlimit="10"/>
<path d="M69.0121 104.493L70.3033 106.73" stroke="#263238" stroke-miterlimit="10"/>
<path d="M99.6806 82.1168L97.6996 78.6842C97.3754 78.1209 96.9077 77.6535 96.3443 77.3295C95.7808 77.0055 95.1416 76.8365 94.4916 76.8396H76.992C76.342 76.8365 75.7028 77.0055 75.1394 77.3295C74.5759 77.6535 74.1083 78.1209 73.784 78.6842L65.0101 93.9222C64.6869 94.4804 64.5168 95.1139 64.5168 95.7588C64.5168 96.4038 64.6869 97.0373 65.0101 97.5954L67.6006 102.095" stroke="#263238" stroke-miterlimit="10"/>
<path d="M70.7685 42.9792L65.0101 52.9321C64.687 53.4917 64.5169 54.1265 64.5169 54.7727C64.5169 55.4188 64.687 56.0536 65.0101 56.6132L73.784 71.8352C74.1086 72.3976 74.5766 72.8638 75.1401 73.1864C75.7036 73.5091 76.3426 73.6765 76.992 73.6718H94.5397C95.1891 73.6765 95.8281 73.5091 96.3916 73.1864C96.9551 72.8638 97.4231 72.3976 97.7477 71.8352L106.522 56.6373C106.845 56.0777 107.015 55.4429 107.015 54.7967C107.015 54.1505 106.845 53.5157 106.522 52.9561L105.864 51.9376" stroke="#263238" stroke-miterlimit="10"/>
<path d="M73.784 37.7582L72.4045 40.1481" stroke="#263238" stroke-miterlimit="10"/>
<path d="M104.926 50.2694L97.7077 37.7582C97.383 37.1958 96.9151 36.7296 96.3515 36.4069C95.788 36.0843 95.149 35.9169 94.4997 35.9216H76.992C76.7027 35.9201 76.4144 35.9552 76.1339 36.0259" stroke="#263238" stroke-miterlimit="10"/>
<path d="M129.587 56.14H112.039C111.39 56.1352 110.751 56.3027 110.188 56.6253C109.624 56.948 109.156 57.4142 108.831 57.9766L100.082 73.1504C99.7585 73.71 99.5884 74.3448 99.5884 74.991C99.5884 75.6372 99.7585 76.272 100.082 76.8316L108.855 92.0696C109.18 92.632 109.648 93.0982 110.212 93.4208C110.775 93.7435 111.414 93.9109 112.063 93.9062H129.611C130.26 93.9101 130.899 93.7423 131.462 93.4197C132.026 93.0972 132.494 92.6314 132.819 92.0696L141.585 76.8316C141.908 76.272 142.078 75.6372 142.078 74.991C142.078 74.3448 141.908 73.71 141.585 73.1504L132.779 57.9525C132.452 57.3975 131.985 56.9381 131.425 56.62C130.865 56.302 130.231 56.1364 129.587 56.14V56.14Z" stroke="#263238" stroke-miterlimit="10"/>
<path d="M94.2991 118.696H76.7514C76.102 118.691 75.463 118.859 74.8995 119.181C74.336 119.504 73.868 119.97 73.5434 120.533L64.7695 135.771C64.4464 136.33 64.2763 136.965 64.2763 137.611C64.2763 138.257 64.4464 138.892 64.7695 139.452L73.5434 154.65C73.868 155.212 74.336 155.678 74.8995 156.001C75.463 156.324 76.102 156.491 76.7514 156.486H94.2991C94.9483 156.49 95.587 156.322 96.1504 156C96.7138 155.677 97.1818 155.211 97.5071 154.65L106.273 139.452C106.596 138.892 106.766 138.257 106.766 137.611C106.766 136.965 106.596 136.33 106.273 135.771L97.5071 120.533C97.1818 119.971 96.7138 119.505 96.1504 119.182C95.587 118.86 94.9483 118.692 94.2991 118.696V118.696Z" stroke="#263238" stroke-miterlimit="10"/>
<path d="M135.642 129.611L142.339 118.006C142.662 117.448 142.832 116.815 142.832 116.17C142.832 115.525 142.662 114.891 142.339 114.333L133.565 99.0951C133.241 98.5318 132.773 98.0644 132.21 97.7404C131.646 97.4164 131.007 97.2474 130.357 97.2505H112.833C112.183 97.2474 111.544 97.4164 110.981 97.7404C110.417 98.0644 109.95 98.5318 109.625 99.0951L100.851 114.333C100.528 114.891 100.358 115.525 100.358 116.17C100.358 116.815 100.528 117.448 100.851 118.006L109.625 133.244C109.95 133.808 110.417 134.275 110.981 134.599C111.544 134.923 112.183 135.092 112.833 135.089H126.884" stroke="#263238" stroke-miterlimit="10"/>
<path d="M130.381 135.049C131.031 135.052 131.67 134.883 132.234 134.559C132.797 134.235 133.265 133.768 133.589 133.204L134.118 132.29" stroke="#263238" stroke-miterlimit="10"/>
<path d="M94.4836 101.389L96.6249 101.87L97.1222 99.7046L95.0691 99.2395C95.0691 99.1753 95.0691 99.1111 95.0691 99.055C95.0721 98.3958 94.9383 97.7431 94.6761 97.1382L96.3442 95.8069L94.9568 94.0666L93.3528 95.3417C92.7982 94.8567 92.1397 94.5055 91.428 94.3152V92.23H89.1984V94.2189C88.4682 94.3672 87.7804 94.6768 87.1854 95.1252L85.5814 93.842L84.21 95.5904L85.814 96.8495C85.4805 97.5061 85.3021 98.2304 85.2927 98.9668L83.2396 99.44L83.7368 101.605L85.7578 101.14C86.0616 101.793 86.5052 102.37 87.0571 102.832L86.1187 104.781L88.1237 105.752L89.046 103.827C89.424 103.92 89.8116 103.969 90.2009 103.971C90.5134 103.968 90.8248 103.936 91.1312 103.875L92.0936 105.864L94.0986 104.902L93.1603 102.969C93.7091 102.543 94.1603 102.004 94.4836 101.389ZM87.9794 99.055C87.9794 98.6236 88.1073 98.2018 88.347 97.8431C88.5867 97.4843 88.9274 97.2047 89.326 97.0396C89.7246 96.8745 90.1632 96.8313 90.5864 96.9155C91.0096 96.9996 91.3983 97.2074 91.7033 97.5125C92.0084 97.8176 92.2162 98.2063 92.3003 98.6294C92.3845 99.0526 92.3413 99.4912 92.1762 99.8898C92.0111 100.288 91.7315 100.629 91.3728 100.869C91.014 101.109 90.5923 101.236 90.1608 101.236C89.5823 101.236 89.0274 101.007 88.6183 100.598C88.2092 100.188 87.9794 99.6336 87.9794 99.055Z" stroke="#263238" stroke-miterlimit="10"/>
<path d="M84.0576 92.615L86.1909 93.1042L86.6882 90.9388L84.635 90.4656C84.635 90.4014 84.635 90.3453 84.635 90.2811C84.6361 89.6229 84.5052 88.9711 84.2501 88.3644L85.9102 87.0411L84.5228 85.3007L82.9188 86.5679C82.3592 86.0857 81.6988 85.735 80.9859 85.5413V83.4722H78.7804V85.4611C78.0492 85.6059 77.3606 85.9159 76.7674 86.3674L75.1634 85.0842L73.784 86.8245L75.388 88.0756C75.0549 88.7352 74.8766 89.4621 74.8667 90.2009L72.8136 90.6661L73.3108 92.8315L75.3318 92.3744C75.6379 93.0232 76.0812 93.5978 76.6311 94.0586L75.6927 96.0154L77.6977 96.9778L78.62 95.053C78.9973 95.1503 79.3854 95.1989 79.7749 95.1974C80.0871 95.197 80.3986 95.1675 80.7052 95.1092L81.6676 97.0981L83.6726 96.1357L82.7423 94.1949C83.2877 93.7674 83.736 93.2288 84.0576 92.615V92.615ZM77.5454 90.2811C77.5454 89.8497 77.6733 89.4279 77.913 89.0692C78.1527 88.7105 78.4934 88.4309 78.892 88.2658C79.2906 88.1006 79.7292 88.0575 80.1524 88.1416C80.5755 88.2258 80.9642 88.4336 81.2693 88.7386C81.5744 89.0437 81.7822 89.4324 81.8663 89.8556C81.9505 90.2787 81.9073 90.7173 81.7422 91.1159C81.5771 91.5146 81.2975 91.8552 80.9387 92.0949C80.58 92.3346 80.1583 92.4626 79.7268 92.4626C79.1483 92.4626 78.5934 92.2328 78.1843 91.8237C77.7752 91.4146 77.5454 90.8597 77.5454 90.2811V90.2811Z" stroke="#263238" stroke-miterlimit="10"/>
<path d="M125.169 76.2359C126.694 72.5769 124.965 68.3741 121.306 66.8488C117.647 65.3234 113.444 67.0531 111.919 70.7121C110.393 74.3712 112.123 78.5739 115.782 80.0993C119.441 81.6247 123.644 79.895 125.169 76.2359Z" stroke="#263238" stroke-miterlimit="10"/>
<path d="M118.544 79.5744C121.91 79.5744 124.639 76.8455 124.639 73.4792C124.639 70.113 121.91 67.384 118.544 67.384C115.177 67.384 112.448 70.113 112.448 73.4792C112.448 76.8455 115.177 79.5744 118.544 79.5744Z" stroke="#263238" stroke-miterlimit="10"/>
<path d="M126.62 81.0662L131.376 85.012" stroke="#263238" stroke-width="3" stroke-miterlimit="10"/>
<path d="M123.765 78.7003L126.62 81.0662" stroke="#263238" stroke-width="2" stroke-miterlimit="10"/>
<path d="M39.7551 70.7203H61.0883" stroke="#263238" stroke-miterlimit="10"/>
<path d="M44.3185 69.5415H42.113V71.747H44.3185V69.5415Z" fill="#263238"/>
<path d="M39.7551 75.7168H61.0883" stroke="#263238" stroke-miterlimit="10"/>
<path d="M55.7149 74.5459H53.5094V76.7514H55.7149V74.5459Z" fill="#263238"/>
<path d="M39.7551 80.7213H61.0883" stroke="#263238" stroke-miterlimit="10"/>
<path d="M50.6383 79.5424H48.4328V81.7479H50.6383V79.5424Z" fill="#263238"/>
<path d="M121.102 136.605C122.032 136.605 122.786 135.851 122.786 134.921C122.786 133.99 122.032 133.236 121.102 133.236C120.172 133.236 119.418 133.99 119.418 134.921C119.418 135.851 120.172 136.605 121.102 136.605Z" fill="#263238"/>
<path d="M134.239 101.99C135.169 101.99 135.923 101.236 135.923 100.306C135.923 99.376 135.169 98.6219 134.239 98.6219C133.309 98.6219 132.555 99.376 132.555 100.306C132.555 101.236 133.309 101.99 134.239 101.99Z" fill="#263238"/>
<path d="M84.8195 77.2085C84.8211 76.8732 84.723 76.5449 84.5377 76.2654C84.3523 75.9859 84.0881 75.7677 83.7786 75.6387C83.4691 75.5096 83.1281 75.4754 82.7991 75.5404C82.4701 75.6055 82.1679 75.7668 81.9307 76.0039C81.6936 76.2411 81.5323 76.5433 81.4672 76.8723C81.4022 77.2014 81.4364 77.5423 81.5654 77.8518C81.6945 78.1613 81.9127 78.4255 82.1922 78.6109C82.4717 78.7962 82.7999 78.8943 83.1353 78.8927C83.582 78.8927 84.0104 78.7153 84.3262 78.3994C84.6421 78.0836 84.8195 77.6552 84.8195 77.2085Z" fill="#263238"/>
<path d="M102.808 43.8855C102.808 43.5524 102.71 43.2268 102.525 42.9498C102.339 42.6728 102.076 42.457 101.769 42.3295C101.461 42.202 101.122 42.1687 100.796 42.2337C100.469 42.2986 100.169 42.459 99.9333 42.6946C99.6977 42.9301 99.5373 43.2302 99.4723 43.5569C99.4073 43.8836 99.4407 44.2223 99.5682 44.53C99.6957 44.8378 99.9115 45.1008 100.188 45.2859C100.465 45.4709 100.791 45.5697 101.124 45.5697C101.57 45.5676 101.997 45.3895 102.313 45.0741C102.628 44.7587 102.806 44.3315 102.808 43.8855Z" fill="#263238"/>
<path d="M38.0068 88.6531C38.0084 88.3177 37.9103 87.9895 37.7249 87.7099C37.5396 87.4304 37.2754 87.2123 36.9658 87.0832C36.6563 86.9542 36.3154 86.92 35.9864 86.985C35.6574 87.05 35.3551 87.2114 35.118 87.4485C34.8808 87.6857 34.7195 87.9879 34.6545 88.3169C34.5894 88.6459 34.6236 88.9868 34.7527 89.2964C34.8818 89.6059 35.0999 89.8701 35.3794 90.0555C35.6589 90.2408 35.9872 90.3389 36.3226 90.3373C36.7692 90.3373 37.1976 90.1599 37.5135 89.844C37.8293 89.5282 38.0068 89.0998 38.0068 88.6531Z" fill="#263238"/>
<path d="M90.3373 114.413C90.3373 114.08 90.2385 113.755 90.0534 113.478C89.8684 113.201 89.6053 112.985 89.2976 112.857C88.9898 112.73 88.6512 112.697 88.3245 112.761C87.9978 112.826 87.6977 112.987 87.4622 113.222C87.2266 113.458 87.0662 113.758 87.0012 114.085C86.9362 114.411 86.9696 114.75 87.0971 115.058C87.2245 115.366 87.4404 115.629 87.7174 115.814C87.9943 115.999 88.32 116.098 88.6531 116.098C89.0991 116.095 89.5263 115.917 89.8416 115.602C90.157 115.287 90.3352 114.859 90.3373 114.413Z" fill="#263238"/>
<path d="M68.4106 142.443C68.4106 142.11 68.3118 141.785 68.1267 141.508C67.9417 141.231 67.6786 141.015 67.3709 140.887C67.0631 140.76 66.7245 140.726 66.3978 140.791C66.0711 140.856 65.771 141.017 65.5355 141.252C65.2999 141.488 65.1395 141.788 65.0745 142.115C65.0096 142.441 65.0429 142.78 65.1704 143.088C65.2978 143.395 65.5137 143.659 65.7907 143.844C66.0677 144.029 66.3933 144.127 66.7264 144.127C67.1731 144.127 67.6014 143.95 67.9173 143.634C68.2331 143.318 68.4106 142.89 68.4106 142.443Z" fill="#263238"/>
<path d="M102.536 131.007C103.466 131.007 104.22 130.253 104.22 129.323C104.22 128.392 103.466 127.638 102.536 127.638C101.606 127.638 100.852 128.392 100.852 129.323C100.852 130.253 101.606 131.007 102.536 131.007Z" fill="#263238"/>
<path d="M136.693 66.8307C137.623 66.8307 138.377 66.0766 138.377 65.1465C138.377 64.2163 137.623 63.4623 136.693 63.4623C135.763 63.4623 135.009 64.2163 135.009 65.1465C135.009 66.0766 135.763 66.8307 136.693 66.8307Z" fill="#263238"/>
<path d="M115.897 93.7619C115.9 93.4265 115.804 93.0978 115.62 92.8174C115.436 92.537 115.172 92.3176 114.864 92.1871C114.555 92.0565 114.214 92.0207 113.885 92.0842C113.555 92.1476 113.252 92.3075 113.014 92.5435C112.776 92.7796 112.613 93.081 112.546 93.4097C112.48 93.7384 112.512 94.0795 112.64 94.3896C112.767 94.6998 112.984 94.965 113.263 95.1517C113.542 95.3384 113.869 95.438 114.205 95.438C114.426 95.4391 114.645 95.3966 114.85 95.3129C115.055 95.2292 115.241 95.1061 115.398 94.9504C115.555 94.7948 115.68 94.6097 115.766 94.4058C115.851 94.2018 115.896 93.983 115.897 93.7619Z" fill="#263238"/>
<path d="M69.6938 62.0748C69.6938 61.7397 69.5943 61.4122 69.408 61.1338C69.2217 60.8553 68.957 60.6385 68.6473 60.5106C68.3376 60.3828 67.997 60.3497 67.6685 60.4157C67.34 60.4816 67.0385 60.6436 66.8022 60.8811C66.5658 61.1185 66.4053 61.4208 66.3409 61.7496C66.2765 62.0784 66.3112 62.4189 66.4405 62.7279C66.5698 63.037 66.7879 63.3007 67.0673 63.4857C67.3466 63.6707 67.6746 63.7686 68.0096 63.767C68.2314 63.767 68.4511 63.7232 68.656 63.638C68.8608 63.5529 69.0469 63.4281 69.2033 63.2709C69.3598 63.1136 69.4837 62.927 69.5679 62.7217C69.6521 62.5165 69.6949 62.2966 69.6938 62.0748Z" fill="#263238"/>
<path d="M24.9663 329.101V284.91C24.9652 284.418 25.0613 283.93 25.249 283.475C25.4368 283.019 25.7125 282.605 26.0604 282.257C26.4083 281.908 26.8215 281.632 27.2765 281.443C27.7314 281.254 28.2191 281.157 28.7116 281.157H96.7132C97.7086 281.157 98.6633 281.552 99.3672 282.256C100.071 282.96 100.467 283.915 100.467 284.91V329.293" stroke="#263238" stroke-miterlimit="10"/>
<path d="M53.2367 334.161H49.6919" stroke="#263238" stroke-miterlimit="10"/>
<path d="M45.2167 334.161H21.8946C21.4425 334.163 20.9944 334.076 20.5761 333.905C20.1578 333.733 19.7775 333.481 19.457 333.162C19.1366 332.843 18.8823 332.464 18.7088 332.046C18.5353 331.629 18.446 331.181 18.446 330.729V329.125H106.963V330.729C106.963 331.638 106.602 332.51 105.96 333.153C105.318 333.797 104.447 334.159 103.538 334.161H56.5971" stroke="#263238" stroke-miterlimit="10"/>
<path d="M57.343 283.94H61.0723" stroke="#263238" stroke-miterlimit="10"/>
<path d="M63.8713 283.94H98.0285V328.547H27.4845V283.94H52.3064" stroke="#263238" stroke-miterlimit="10"/>
<path d="M39.723 280.9C39.7246 280.565 39.6265 280.237 39.4412 279.957C39.2559 279.678 38.9917 279.46 38.6821 279.331C38.3726 279.201 38.0317 279.167 37.7027 279.232C37.3737 279.297 37.0714 279.459 36.8343 279.696C36.5971 279.933 36.4358 280.235 36.3708 280.564C36.3057 280.893 36.3399 281.234 36.469 281.544C36.598 281.853 36.8162 282.117 37.0957 282.303C37.3752 282.488 37.7035 282.586 38.0388 282.585C38.4849 282.583 38.912 282.404 39.2274 282.089C39.5428 281.774 39.7209 281.346 39.723 280.9Z" fill="#263238"/>
<path d="M106.345 329.229C106.345 328.894 106.246 328.567 106.059 328.288C105.873 328.01 105.608 327.793 105.299 327.665C104.989 327.537 104.648 327.504 104.32 327.57C103.991 327.636 103.69 327.798 103.454 328.035C103.217 328.273 103.057 328.575 102.992 328.904C102.928 329.233 102.963 329.573 103.092 329.882C103.221 330.191 103.439 330.455 103.719 330.64C103.998 330.825 104.326 330.923 104.661 330.921C104.883 330.921 105.103 330.877 105.307 330.792C105.512 330.707 105.698 330.582 105.855 330.425C106.011 330.268 106.135 330.081 106.219 329.876C106.303 329.671 106.346 329.451 106.345 329.229Z" fill="#263238"/>
<path d="M93.9302 284.133C93.9318 283.798 93.8339 283.47 93.6489 283.19C93.464 282.911 93.2002 282.693 92.8912 282.563C92.5821 282.434 92.2416 282.4 91.9128 282.464C91.584 282.528 91.2818 282.689 91.0443 282.925C90.8068 283.162 90.6449 283.463 90.5789 283.792C90.513 284.12 90.546 284.461 90.6738 284.77C90.8017 285.08 91.0186 285.345 91.297 285.531C91.5755 285.717 91.903 285.817 92.238 285.817C92.6854 285.817 93.1146 285.64 93.4318 285.324C93.7489 285.008 93.9281 284.58 93.9302 284.133Z" fill="#263238"/>
<path d="M32.882 333.953C32.882 333.618 32.7828 333.291 32.5968 333.013C32.4109 332.734 32.1466 332.517 31.8374 332.389C31.5282 332.261 31.1879 332.228 30.8596 332.293C30.5314 332.358 30.2299 332.519 29.9932 332.756C29.7565 332.993 29.5954 333.294 29.5301 333.623C29.4648 333.951 29.4983 334.291 29.6264 334.6C29.7545 334.91 29.9713 335.174 30.2496 335.36C30.5279 335.546 30.8551 335.645 31.1898 335.645C31.4123 335.646 31.6328 335.603 31.8386 335.518C32.0444 335.434 32.2314 335.309 32.3887 335.152C32.5461 334.994 32.6707 334.807 32.7554 334.602C32.84 334.396 32.8831 334.175 32.882 333.953Z" fill="#263238"/>
<path d="M82.9749 253.247C82.9749 253.826 82.7451 254.381 82.336 254.79C81.9269 255.199 81.372 255.429 80.7935 255.429H44.0378C43.4593 255.429 42.9044 255.199 42.4953 254.79C42.0862 254.381 41.8564 253.826 41.8564 253.247V184.717C41.8564 184.138 42.0862 183.583 42.4953 183.174C42.9044 182.765 43.4593 182.535 44.0378 182.535H80.7935C81.372 182.535 81.9269 182.765 82.336 183.174C82.7451 183.583 82.9749 184.138 82.9749 184.717V246.543" stroke="#263238" stroke-miterlimit="10"/>
<path d="M72.3564 189.152H80.5208V248.812H44.3025V239.814" stroke="#263238" stroke-miterlimit="10"/>
<path d="M64.7856 189.152H68.988" stroke="#263238" stroke-miterlimit="10"/>
<path d="M44.3025 235.612V189.152H61.4172" stroke="#263238" stroke-miterlimit="10"/>
<path d="M63.6948 251.507C63.6948 251.241 63.6158 250.98 63.4678 250.759C63.3197 250.537 63.1093 250.364 62.8631 250.262C62.6169 250.161 62.346 250.134 62.0846 250.186C61.8233 250.238 61.5832 250.366 61.3948 250.555C61.2063 250.743 61.078 250.983 61.026 251.244C60.974 251.506 61.0007 251.777 61.1027 252.023C61.2047 252.269 61.3774 252.48 61.5989 252.628C61.8205 252.776 62.081 252.855 62.3475 252.855C62.7048 252.855 63.0475 252.713 63.3002 252.46C63.5529 252.207 63.6948 251.865 63.6948 251.507V251.507Z" stroke="#263238" stroke-miterlimit="10"/>
<path d="M62.9811 182.856C62.9827 182.521 62.8846 182.192 62.6992 181.913C62.5139 181.633 62.2497 181.415 61.9402 181.286C61.6306 181.157 61.2897 181.123 60.9607 181.188C60.6317 181.253 60.3294 181.414 60.0923 181.651C59.8551 181.889 59.6938 182.191 59.6288 182.52C59.5637 182.849 59.5979 183.19 59.727 183.499C59.8561 183.809 60.0742 184.073 60.3537 184.258C60.6332 184.444 60.9615 184.542 61.2969 184.54C61.7435 184.54 62.1719 184.363 62.4878 184.047C62.8036 183.731 62.9811 183.303 62.9811 182.856Z" fill="#263238"/>
<path d="M74.8827 248.508C74.8843 248.173 74.7864 247.845 74.6015 247.565C74.4165 247.286 74.1528 247.068 73.8437 246.939C73.5346 246.809 73.1941 246.775 72.8653 246.839C72.5365 246.903 72.2343 247.064 71.9968 247.3C71.7593 247.537 71.5974 247.838 71.5314 248.166C71.4655 248.495 71.4985 248.836 71.6264 249.145C71.7542 249.455 71.9711 249.72 72.2495 249.906C72.528 250.092 72.8555 250.192 73.1905 250.192C73.6379 250.192 74.0672 250.015 74.3843 249.699C74.7014 249.383 74.8806 248.955 74.8827 248.508Z" fill="#263238"/>
<path d="M82.999 218.24C83.9291 218.24 84.6832 217.486 84.6832 216.556C84.6832 215.626 83.9291 214.872 82.999 214.872C82.0688 214.872 81.3148 215.626 81.3148 216.556C81.3148 217.486 82.0688 218.24 82.999 218.24Z" fill="#263238"/>
<path d="M51.6167 254.948C51.6167 254.613 51.5173 254.285 51.331 254.007C51.1447 253.728 50.8799 253.511 50.5702 253.384C50.2605 253.256 49.9199 253.223 49.5914 253.289C49.2629 253.355 48.9614 253.517 48.7251 253.754C48.4887 253.992 48.3282 254.294 48.2638 254.623C48.1994 254.951 48.2341 255.292 48.3634 255.601C48.4927 255.91 48.7108 256.174 48.9902 256.359C49.2695 256.544 49.5975 256.642 49.9325 256.64C50.1544 256.64 50.374 256.596 50.5789 256.511C50.7837 256.426 50.9698 256.301 51.1263 256.144C51.2828 255.987 51.4067 255.8 51.4908 255.595C51.575 255.39 51.6178 255.17 51.6167 254.948Z" fill="#263238"/>
<path d="M50.7746 188.807C50.7762 188.471 50.6781 188.143 50.4928 187.864C50.3074 187.584 50.0432 187.366 49.7337 187.237C49.4242 187.108 49.0832 187.074 48.7542 187.139C48.4252 187.204 48.123 187.365 47.8858 187.602C47.6487 187.839 47.4874 188.142 47.4223 188.471C47.3573 188.8 47.3915 189.141 47.5205 189.45C47.6496 189.76 47.8678 190.024 48.1473 190.209C48.4268 190.394 48.7551 190.493 49.0904 190.491C49.5371 190.491 49.9655 190.314 50.2813 189.998C50.5972 189.682 50.7746 189.253 50.7746 188.807Z" fill="#263238"/>
<path d="M254.37 31.3422H207.004C206.663 31.3422 206.326 31.4094 206.011 31.5401C205.696 31.6708 205.41 31.8623 205.17 32.1037C204.929 32.3451 204.738 32.6316 204.609 32.9469C204.479 33.2621 204.413 33.5998 204.414 33.9406V58.1771C204.413 58.5176 204.479 58.8549 204.609 59.1697C204.739 59.4844 204.929 59.7704 205.17 60.0112C205.411 60.2519 205.697 60.4427 206.012 60.5725C206.326 60.7023 206.664 60.7686 207.004 60.7675H232.909L228.899 72.6853L239.028 60.7675H254.338C255.025 60.7675 255.684 60.4946 256.17 60.0088C256.656 59.523 256.929 58.8641 256.929 58.1771V33.9406C256.929 33.2584 256.661 32.6034 256.182 32.1173C255.703 31.6311 255.053 31.3527 254.37 31.3422V31.3422Z" stroke="#263238" stroke-miterlimit="10"/>
<path d="M241.53 39.7151H250.842" stroke="#263238" stroke-miterlimit="10"/>
<path d="M235.211 39.7151H239.036" stroke="#263238" stroke-miterlimit="10"/>
<path d="M219.756 39.7151H231.553" stroke="#263238" stroke-miterlimit="10"/>
<path d="M212.145 39.7151H216.765" stroke="#263238" stroke-miterlimit="10"/>
<path d="M248.01 45.8263H250.842" stroke="#263238" stroke-miterlimit="10"/>
<path d="M223.245 45.8263H246.014" stroke="#263238" stroke-miterlimit="10"/>
<path d="M212.145 45.8263H220.919" stroke="#263238" stroke-miterlimit="10"/>
<path d="M247.345 51.9375H250.842" stroke="#263238" stroke-miterlimit="10"/>
<path d="M240.031 51.9375H243.688" stroke="#263238" stroke-miterlimit="10"/>
<path d="M219.588 51.9375H236.871" stroke="#263238" stroke-miterlimit="10"/>
<path d="M212.145 51.9375H217.599" stroke="#263238" stroke-miterlimit="10"/>
<path d="M245.099 273.257H154.257V313.55H245.099V273.257Z" fill="#263238" stroke="#263238" stroke-miterlimit="10"/>
<path d="M206.643 274.613H192.905V279.866H206.643V274.613Z" fill="white" stroke="#263238" stroke-miterlimit="10"/>
<path d="M261.508 167.682C261.508 166.728 259.343 165.276 255.982 163.359C252.622 161.443 220.911 147.023 220.911 147.023L202.168 146.052V145.82L200.003 145.94L197.845 145.82V146.052L179.103 147.023C179.103 147.023 147.392 161.459 144.031 163.359C140.671 165.26 138.505 166.728 138.505 167.682C138.505 168.636 152.581 259.046 152.837 261.58C153.094 264.115 152.837 271.421 152.837 273.185C152.837 274.95 156.623 275.96 156.623 275.96H243.391C243.391 275.96 247.176 274.95 247.176 273.185C247.176 271.421 246.928 264.107 247.176 261.58C247.425 259.054 261.508 168.644 261.508 167.682Z" fill="#A558D1" stroke="#263238" stroke-miterlimit="10"/>
<path d="M255.982 163.359C252.622 161.443 220.911 147.023 220.911 147.023L202.168 146.052V145.82L200.003 145.94L197.845 145.82V146.052L179.103 147.023C179.103 147.023 147.392 161.459 144.031 163.359C140.671 165.26 138.505 166.728 138.505 167.682C138.505 168.011 140.109 178.421 142.211 192.207L143.213 193.009C143.213 193.009 148.875 173.761 165.862 165.837C182.848 157.914 189.633 155.644 206.05 155.644C221.448 155.644 249.278 178.036 257.827 192.031C259.928 178.325 261.508 167.971 261.508 167.658C261.508 166.728 259.343 165.284 255.982 163.359Z" fill="#263238" stroke="#263238" stroke-miterlimit="10"/>
<path d="M190.154 164.562L199.289 173.448L187.275 255.854L199.465 274.557L213.508 255.629L204.334 173.208L212.979 164.081L201.928 152.308L190.154 164.562Z" fill="#263238" stroke="#263238" stroke-miterlimit="10"/>
<path d="M218.401 77.4892C215.778 76.9278 209.94 75.7409 205.264 74.8025V73.4471L201.896 74.1208L198.535 73.4471V74.8025C193.859 75.7409 188.013 76.9278 185.398 77.4892C180.683 78.4997 177.819 78.4997 177.819 83.2155C177.819 83.2155 179.167 117.06 179.841 120.26C180.514 123.46 181.019 127.662 183.209 129.515C185.398 131.368 185.567 132.041 185.567 132.041V142.146C185.567 142.146 193.651 159.486 195.191 160.673C197.073 162.265 199.458 163.138 201.924 163.138C204.389 163.138 206.774 162.265 208.656 160.673C210.172 159.494 218.28 142.146 218.28 142.146V132.041C218.28 132.041 218.449 131.368 220.638 129.515C222.828 127.662 223.333 123.46 224.007 120.26C224.68 117.06 226.028 83.2155 226.028 83.2155C225.98 78.4997 223.116 78.4997 218.401 77.4892Z" fill="white" stroke="#263238" stroke-miterlimit="10"/>
<path d="M187.419 82.8786C187.419 82.8786 204.085 89.7758 208.801 89.7758C213.516 89.7758 208.295 87.5944 208.295 87.5944C208.295 87.5944 214.864 89.7758 217.39 89.7758H219.916C219.916 89.7758 220.253 94.4916 220.59 94.9968C220.927 95.5021 220.759 96.1758 221.264 96.5126C221.682 96.8187 222.076 97.1565 222.443 97.5231C222.443 97.5231 223.622 115.881 224.295 117.734C224.969 119.586 226.164 90.626 226.164 90.626C226.982 89.7265 227.588 88.6552 227.938 87.4908C228.288 86.3264 228.372 85.0985 228.185 83.8972C227.68 79.5183 218.248 72.2762 208.311 68.9078C204.795 67.6472 201.005 67.3544 197.337 68.0598C193.669 68.7652 190.257 70.443 187.459 72.9178C184.091 75.9493 183.586 77.2967 183.586 77.2967C183.586 77.2967 178.365 76.9599 177.523 78.9809C176.681 81.002 180.217 116.867 180.217 116.867L181.06 97.4991C181.06 97.4991 183.754 94.636 183.923 93.1202C184.091 91.6044 185.775 84.8756 185.775 84.8756C185.775 84.8756 188.302 86.3914 188.983 85.8861C189.665 85.3809 187.419 82.8786 187.419 82.8786Z" fill="#263238" stroke="#263238" stroke-miterlimit="10"/>
<path d="M179.167 106.449C179.167 106.449 178.156 104.934 176.977 105.944C175.798 106.955 174.788 113.691 175.462 115.376C176.135 117.06 177.146 119.586 177.988 119.755C178.614 119.891 179.232 120.059 179.84 120.26L179.167 106.449Z" fill="#263238" stroke="#263238" stroke-miterlimit="10"/>
<path d="M224.752 106.449C224.752 106.449 225.763 104.934 226.942 105.944C228.121 106.955 229.131 113.691 228.458 115.376C227.784 117.06 226.774 119.586 225.931 119.755C225.306 119.891 224.687 120.059 224.079 120.26L224.752 106.449Z" fill="#263238" stroke="#263238" stroke-miterlimit="10"/>
<path d="M183.883 96.3442C183.883 96.3442 185.567 93.1362 188.43 92.8074C191.293 92.4786 198.054 94.1548 197.525 96.3442C196.995 98.5337 183.883 96.3442 183.883 96.3442Z" fill="#263238" stroke="#263238" stroke-miterlimit="10"/>
<path d="M219.941 96.3442C219.941 96.3442 218.256 93.1362 215.393 92.8074C212.53 92.4786 205.769 94.1548 206.307 96.3442C206.844 98.5337 219.941 96.3442 219.941 96.3442Z" fill="#263238" stroke="#263238" stroke-miterlimit="10"/>
<path d="M197.765 106.449H183.658C183.189 106.449 182.74 106.264 182.408 105.933C182.075 105.602 181.888 105.154 181.886 104.685L181.204 97.6114C181.204 97.1427 181.39 96.6931 181.72 96.3609C182.051 96.0288 182.5 95.8411 182.968 95.839H198.463C198.695 95.839 198.925 95.8849 199.14 95.9741C199.355 96.0632 199.549 96.1939 199.713 96.3586C199.877 96.5233 200.007 96.7187 200.095 96.9337C200.184 97.1487 200.228 97.379 200.227 97.6114L199.546 104.685C199.546 104.918 199.499 105.149 199.41 105.364C199.32 105.579 199.189 105.774 199.023 105.938C198.858 106.102 198.661 106.232 198.445 106.32C198.229 106.407 197.998 106.452 197.765 106.449Z" fill="white" stroke="#263238" stroke-miterlimit="10"/>
<path d="M219.652 106.449H205.529C205.061 106.449 204.612 106.264 204.281 105.933C203.95 105.602 203.764 105.153 203.764 104.685L203.074 97.6114C203.074 97.1413 203.261 96.6905 203.594 96.3581C203.926 96.0257 204.377 95.839 204.847 95.839H220.333C220.804 95.839 221.254 96.0257 221.587 96.3581C221.919 96.6905 222.106 97.1413 222.106 97.6114L221.424 104.685C221.422 105.154 221.234 105.602 220.902 105.933C220.57 106.264 220.12 106.449 219.652 106.449Z" fill="white" stroke="#263238" stroke-miterlimit="10"/>
<path d="M204.847 95.839H198.447" stroke="#263238" stroke-miterlimit="10"/>
<path d="M200.211 97.6113H203.074" stroke="#263238" stroke-miterlimit="10"/>
<path d="M200.043 99.0389C200.043 99.0389 197.693 107.46 197.693 108.47C197.687 108.753 197.764 109.03 197.913 109.27C198.063 109.509 198.279 109.699 198.535 109.818C198.535 109.818 199.337 106.955 200.211 106.61C201.085 106.265 203.748 106.441 203.748 106.441L205.432 109.81C205.643 109.612 205.812 109.373 205.929 109.109C206.046 108.844 206.109 108.559 206.114 108.27C206.282 107.091 203.251 98.8384 203.251 98.8384C203.251 98.8384 200.885 98.1968 200.043 99.0389Z" fill="#263238" stroke="#263238" stroke-miterlimit="10"/>
<path d="M193.539 135.73C193.962 135.872 194.393 135.99 194.83 136.083" stroke="#263238" stroke-miterlimit="10"/>
<path d="M185.567 132.041C187.651 133.183 189.792 134.216 191.983 135.137" stroke="#263238" stroke-miterlimit="10"/>
<path d="M218.232 131.528C218.232 131.528 214.359 134.896 210.822 135.402" stroke="#263238" stroke-miterlimit="10"/>
<path d="M193.819 120.428C196.758 119.813 199.74 119.419 202.738 119.249C205.16 119.385 207.546 119.897 209.811 120.765C209.811 120.765 206.274 115.881 204.927 115.376C203.58 114.87 199.874 115.376 198.704 115.376C197.533 115.376 193.819 120.428 193.819 120.428Z" fill="#263238" stroke="#263238" stroke-linejoin="round"/>
<path d="M206.78 123.765C206.78 123.765 200.548 123.596 198.367 123.765C196.185 123.933 195.84 126.628 195.84 126.628C197.931 126.008 200.082 125.612 202.256 125.449C204.353 125.559 206.437 125.841 208.488 126.291C208.488 126.291 208.801 124.943 206.78 123.765Z" fill="#263238" stroke="#263238" stroke-linejoin="round"/>
<path d="M138.505 167.682L113.515 233.751L135.859 244.081L148.113 220.542L138.505 167.682Z" fill="#A558D1" stroke="#263238" stroke-miterlimit="10"/>
<path d="M144.168 228.129C143.309 226.621 142.034 224.512 140.158 221.713C137.601 217.865 134.617 214.319 131.263 211.142C133.052 211.804 134.747 212.693 136.308 213.789C139.676 215.946 141.593 217.149 140.871 214.27C140.15 211.391 133.188 202.016 132.707 200.332C132.226 198.647 135.113 198.415 135.827 195.52C136.404 193.218 138.521 178.309 139.339 172.438L138.473 167.626L113.491 233.695L119.723 236.582H127.662L141.994 232.187L144.168 228.129Z" fill="#263238" stroke="#263238" stroke-miterlimit="10"/>
<path d="M140.663 226.068C140.663 226.068 130.574 225.362 126.716 225.362C122.858 225.362 117.092 225.843 114.943 229.444C112.793 233.045 112.063 244.337 114.943 250.585C117.822 256.832 125.994 258.517 130.558 258.276C135.121 258.035 143.775 251.307 144.994 247.946C146.213 244.586 144.753 236.895 143.55 232.804C142.879 230.445 141.908 228.181 140.663 226.068Z" fill="#A558D1" stroke="#263238" stroke-miterlimit="10"/>
<path d="M140.663 226.068C140.663 226.068 132.258 227.744 132.258 233.029C132.258 238.314 134.904 243.599 138.024 244.562C141.144 245.524 145.475 242.645 145.475 242.645C145.475 242.645 148.354 240.72 147.151 234.954C145.948 229.188 142.828 226.308 140.663 226.068Z" fill="#A558D1" stroke="#263238" stroke-miterlimit="10"/>
<path d="M146.429 216.211C146.429 216.211 149.076 212.129 149.798 211.167C150.519 210.204 153.158 207.566 154.61 205.16C156.061 202.754 157.729 200.348 158.211 203.724C158.692 207.1 155.331 210.685 154.61 211.648L151.009 216.46C151.009 216.46 146.189 219.098 146.429 216.211Z" fill="white" stroke="#263238" stroke-miterlimit="10"/>
<path d="M139.708 230.39C139.708 230.39 141.385 220.766 142.828 218.858C144.272 216.949 154.602 210.212 156.767 209.009C158.932 207.806 172.622 208.047 172.622 208.047C172.622 208.047 176.223 209.009 174.058 210.453C171.893 211.896 166.615 211.407 166.615 211.407L158.443 215.497L166.615 213.813L174.78 215.016C174.78 215.016 176.464 216.452 175.742 217.655C175.02 218.858 169.976 218.858 169.976 218.858H166.134L157.24 222.956L167.097 221.512C167.097 221.512 173.336 220.317 173.577 221.994C173.817 223.67 171.901 225.121 170.698 225.121C169.23 225.309 167.783 225.631 166.375 226.084L160.4 228.225L169.527 226.781C169.527 226.781 170.008 228.225 169.286 228.947C168.564 229.669 159.662 233.029 159.662 233.029C159.662 233.029 151.257 236.397 150.038 237.36C148.819 238.322 146.67 240.961 142.588 240.48C138.505 239.998 138.746 231.834 139.708 230.39Z" fill="white" stroke="#263238" stroke-miterlimit="10"/>
<path d="M160.368 228.225L157.24 229.428" stroke="#263238" stroke-miterlimit="10"/>
<path d="M158.443 215.497L155.083 216.692" stroke="#263238" stroke-miterlimit="10"/>
<path d="M261.468 167.682L286.45 233.751L264.107 244.081L251.86 220.542L261.468 167.682Z" fill="#A558D1" stroke="#263238" stroke-miterlimit="10"/>
<path d="M255.838 228.129C256.696 226.621 257.971 224.512 259.848 221.713C262.383 217.877 265.343 214.34 268.67 211.167C266.882 211.828 265.186 212.717 263.625 213.813C260.257 215.971 258.34 217.174 259.054 214.294C259.768 211.415 266.745 202.04 267.226 200.356C267.708 198.671 264.82 198.439 264.107 195.544C263.529 193.242 261.412 178.333 260.594 172.462L261.46 167.65L286.442 233.719L280.211 236.606H272.271L257.939 232.211L255.838 228.129Z" fill="#263238" stroke="#263238" stroke-miterlimit="10"/>
<path d="M185.11 137.896L196.883 158.315L187.034 172.735L177.908 146.782L185.11 137.896Z" fill="#A558D1" stroke="#263238" stroke-miterlimit="10"/>
<path d="M218.505 137.896L206.732 158.315L216.58 172.735L225.715 146.782L218.505 137.896Z" fill="#A558D1" stroke="#263238" stroke-miterlimit="10"/>
<path d="M259.303 226.068C259.303 226.068 269.4 225.346 273.241 225.346C277.083 225.346 282.865 225.827 285.015 229.428C287.164 233.029 287.894 244.321 285.015 250.569C282.136 256.816 273.963 258.501 269.4 258.26C264.836 258.019 256.183 251.291 254.964 247.93C253.745 244.57 255.204 236.879 256.407 232.789C257.085 230.435 258.058 228.177 259.303 226.068Z" fill="#A558D1" stroke="#263238" stroke-miterlimit="10"/>
<path d="M259.303 226.068C259.303 226.068 267.716 227.744 267.716 233.029C267.716 238.314 265.069 243.599 261.949 244.562C258.829 245.524 254.499 242.645 254.499 242.645C254.499 242.645 251.62 240.72 252.823 234.954C254.026 229.188 257.145 226.308 259.303 226.068Z" fill="#A558D1" stroke="#263238" stroke-miterlimit="10"/>
<path d="M253.544 216.211C253.544 216.211 250.898 212.129 250.176 211.167C249.454 210.204 246.816 207.566 245.364 205.16C243.912 202.754 242.244 200.348 241.763 203.724C241.282 207.1 244.642 210.685 245.364 211.648L248.965 216.46C248.965 216.46 253.777 219.098 253.544 216.211Z" fill="white" stroke="#263238" stroke-miterlimit="10"/>
<path d="M260.265 230.39C260.265 230.39 258.589 220.766 257.145 218.858C255.702 216.949 245.412 210.212 243.207 209.009C241.001 207.806 227.351 208.047 227.351 208.047C227.351 208.047 223.75 209.009 225.915 210.453C228.081 211.896 233.382 211.407 233.382 211.407L241.554 215.497L233.382 213.813L225.218 215.016C225.218 215.016 223.533 216.452 224.255 217.655C224.977 218.858 230.022 218.858 230.022 218.858H233.863L242.733 222.956L232.877 221.512C232.877 221.512 226.637 220.317 226.397 221.994C226.156 223.67 228.073 225.121 229.276 225.121C230.743 225.309 232.19 225.631 233.599 226.084L239.606 228.241L230.479 226.798C230.479 226.798 229.998 228.241 230.719 228.963C231.441 229.685 240.343 233.045 240.343 233.045C240.343 233.045 248.748 236.413 249.967 237.376C251.186 238.338 253.336 240.977 257.418 240.496C261.5 240.014 261.227 231.834 260.265 230.39Z" fill="white" stroke="#263238" stroke-miterlimit="10"/>
<path d="M239.606 228.225L242.733 229.428" stroke="#263238" stroke-miterlimit="10"/>
<path d="M241.53 215.497L244.891 216.692" stroke="#263238" stroke-miterlimit="10"/>
<path d="M161.796 311.794V316.237H209.875V319.469H181.589V321.891H220.783V317.849H214.318V315.427H240.985V309.364" fill="#263238"/>
<path d="M161.796 311.794V316.237H209.875V319.469H181.589V321.891H220.783V317.849H214.318V315.427H240.985V309.364" stroke="#263238" stroke-miterlimit="10"/>
<path d="M176.745 320.279H167.45V322.3H176.745V320.279Z" fill="#263238" stroke="#263238" stroke-miterlimit="10"/>
<path d="M173.096 330.52H166.744V335.172H173.096V330.52Z" stroke="#263238" stroke-miterlimit="10"/>
<path d="M191.293 335.597H187.059V338.139H191.293V335.597Z" stroke="#263238" stroke-miterlimit="10"/>
<path d="M209.907 334.33H203.139V336.447H209.907V334.33Z" stroke="#263238" stroke-miterlimit="10"/>
<path d="M198.912 346.183H194.677V348.725H198.912V346.183Z" stroke="#263238" stroke-miterlimit="10"/>
<path d="M215.409 339.406H212.45V341.098H215.409V339.406Z" stroke="#263238" stroke-miterlimit="10"/>
<path d="M231.914 329.678H217.952V333.913H231.914V329.678Z" stroke="#263238" stroke-miterlimit="10"/>
<path d="M184.516 345.333H177.747V348.717H184.516V345.333Z" stroke="#263238" stroke-miterlimit="10"/>
<path d="M201.021 357.179H197.637V358.871H201.021V357.179Z" stroke="#263238" stroke-miterlimit="10"/>
<path d="M196.947 325.532H183.209V327.954H196.947V325.532Z" fill="#263238" stroke="#263238" stroke-miterlimit="10"/>
<path d="M217.551 323.912H209.065V325.123H217.551V323.912Z" fill="#263238" stroke="#263238" stroke-miterlimit="10"/>
<path d="M232.099 317.448H223.614V319.068H232.099V317.448Z" fill="#263238" stroke="#263238" stroke-miterlimit="10"/>
<path d="M160.584 317.448H156.542V321.49H160.584V317.448Z" fill="#263238" stroke="#263238" stroke-miterlimit="10"/>
<path d="M240.584 320.279H236.542V324.321H240.584V320.279Z" fill="#263238" stroke="#263238" stroke-miterlimit="10"/>
<path d="M151.402 355.206L159.598 380.148" stroke="#263238" stroke-miterlimit="10"/>
<path d="M149.148 348.341L150.375 352.078" stroke="#263238" stroke-miterlimit="10"/>
<path d="M123.508 270.274L147.881 344.483" stroke="#263238" stroke-miterlimit="10"/>
<path d="M173.232 352.88L177.242 373.732" stroke="#263238" stroke-miterlimit="10"/>
<path d="M270.258 292.289L241.402 380.148" stroke="#263238" stroke-miterlimit="10"/>
<path d="M272.985 284.004L271.244 289.297" stroke="#263238" stroke-miterlimit="10"/>
<path d="M277.492 270.274L274.958 277.989" stroke="#263238" stroke-miterlimit="10"/>
<path d="M227.768 352.88L223.758 373.732" stroke="#263238" stroke-miterlimit="10"/>
</svg>
