<svg width="450" height="300" viewBox="0 0 450 300" fill="none" xmlns="http://www.w3.org/2000/svg">
<path d="M430.89 177.03C422.292 151.596 406.656 128.934 385.974 111.216C356.784 86.202 303.324 45.174 254.076 32.784C181.632 14.55 118.308 66.636 92.55 96.324C66.792 126.012 19.566 158.832 14.736 187.476C9.906 216.12 15.27 257.274 38.346 267.69H401.652C401.652 267.69 454.698 247.464 430.89 177.03Z" fill="#00856F"/>
<path opacity="0.7" d="M430.89 177.03C422.292 151.596 406.656 128.934 385.974 111.216C356.784 86.202 303.324 45.174 254.076 32.784C181.632 14.55 118.308 66.636 92.55 96.324C66.792 126.012 19.566 158.832 14.736 187.476C9.906 216.12 15.27 257.274 38.346 267.69H401.652C401.652 267.69 454.698 247.464 430.89 177.03Z" fill="white"/>
<path d="M404.1 44.9219H283.71V239.442H404.1V44.9219Z" stroke="#263238" stroke-miterlimit="10"/>
<path d="M397.638 51.3896H290.676V133.974H397.638V51.3896Z" stroke="#263238" stroke-miterlimit="10"/>
<path d="M342.516 51.3896V133.974" stroke="#263238" stroke-miterlimit="10"/>
<path d="M291.186 94.2178H397.632" stroke="#263238" stroke-miterlimit="10"/>
<path d="M397.638 148.398H290.676V230.982H397.638V148.398Z" stroke="#263238" stroke-miterlimit="10"/>
<path d="M342.516 148.398V230.982" stroke="#263238" stroke-miterlimit="10"/>
<path d="M291.186 191.226H397.632" stroke="#263238" stroke-miterlimit="10"/>
<path d="M237.942 44.9219H37.452V115.566H237.942V44.9219Z" stroke="#263238" stroke-miterlimit="10"/>
<path d="M234.168 49.02H41.232V111.474H234.168V49.02Z" stroke="#263238" stroke-miterlimit="10"/>
<path d="M137.694 49.02V111.474" stroke="#263238" stroke-miterlimit="10"/>
<path d="M141.738 49.02V111.474" stroke="#263238" stroke-miterlimit="10"/>
<path d="M133.47 49.02V111.474" stroke="#263238" stroke-miterlimit="10"/>
<path d="M128.496 80.9997C128.497 81.5422 128.337 82.073 128.037 82.5247C127.736 82.9764 127.308 83.3288 126.807 83.5372C126.307 83.7457 125.755 83.8008 125.223 83.6957C124.69 83.5906 124.201 83.3299 123.817 82.9467C123.433 82.5634 123.171 82.0749 123.065 81.5428C122.959 81.0108 123.013 80.4591 123.22 79.9577C123.428 79.4564 123.779 79.0278 124.23 78.7262C124.681 78.4246 125.211 78.2637 125.754 78.2637C126.48 78.2652 127.175 78.5538 127.689 79.0664C128.203 79.579 128.493 80.274 128.496 80.9997Z" stroke="#263238" stroke-miterlimit="10"/>
<path d="M147.894 83.724C149.405 83.724 150.63 82.499 150.63 80.988C150.63 79.4769 149.405 78.252 147.894 78.252C146.383 78.252 145.158 79.4769 145.158 80.988C145.158 82.499 146.383 83.724 147.894 83.724Z" stroke="#263238" stroke-miterlimit="10"/>
<path d="M107.76 138.606H90.39V267.618H107.76V138.606Z" fill="#A8A8A8" stroke="#263238" stroke-miterlimit="10"/>
<path d="M109.548 138.606H92.178V267.618H109.548V138.606Z" fill="#A8A8A8" stroke="#263238" stroke-miterlimit="10"/>
<path d="M152.76 138.606H41.082V224.172H152.76V138.606Z" fill="#263238" stroke="#263238" stroke-miterlimit="10"/>
<path d="M154.914 138.606H43.236V224.172H154.914V138.606Z" fill="#263238" stroke="white" stroke-miterlimit="10"/>
<path d="M148.392 143.598H49.752V219.168H148.392V143.598Z" fill="white" stroke="#263238" stroke-miterlimit="10"/>
<path d="M148.392 143.598H49.752V147.576H148.392V143.598Z" fill="#D6D6D6" stroke="#263238" stroke-miterlimit="10"/>
<path d="M77.256 160.2C77.256 160.2 67.02 164.232 65.154 165.936C63.288 167.64 62.52 170.736 62.208 172.92C61.6957 177.244 61.5391 181.602 61.74 185.952C62.052 190.452 60.966 192.162 65.31 195.726C69.654 199.29 74.91 204.882 78.036 203.952C81.162 203.022 90.294 196.968 91.536 194.796C92.778 192.624 94.638 179.124 94.326 172.764C94.014 166.404 89.826 164.364 86.412 162.216C82.998 160.068 80.364 160.056 77.256 160.2Z" stroke="#263238" stroke-miterlimit="10"/>
<path d="M76.482 154.158L76.17 156.954C76.17 156.954 66.864 160.986 64.848 162.228C62.832 163.47 63.45 163.932 61.74 164.244C60.03 164.556 57.396 164.712 57.396 164.712" stroke="#263238" stroke-miterlimit="10"/>
<path d="M55.692 166.26L60.492 167.502C60.492 167.502 58.32 176.814 58.626 182.088C58.932 187.362 59.712 193.416 59.712 193.416L56.766 196.05" stroke="#263238" stroke-miterlimit="10"/>
<path d="M58.332 198.534L61.896 196.362C63.6683 198.674 65.821 200.669 68.262 202.26C70.8091 203.999 73.5081 205.506 76.326 206.76L76.17 210.168" stroke="#263238" stroke-miterlimit="10"/>
<path d="M80.67 210.168L80.982 206.604C80.982 206.604 84.396 204.894 87.81 202.722C90.4646 200.924 92.9999 198.956 95.4 196.83L98.196 196.98" stroke="#263238" stroke-miterlimit="10"/>
<path d="M98.826 194.034L95.4 192C95.4 192 96.954 187.5 96.954 180.516C96.954 173.532 96.642 168.102 96.642 168.102L99.126 166.086" stroke="#263238" stroke-miterlimit="10"/>
<path d="M97.428 163.8L94.95 164.886C94.95 164.886 93.084 162.408 87.342 159.486C81.6 156.564 80.364 156.384 80.364 156.384L80.208 153.9" stroke="#263238" stroke-miterlimit="10"/>
<path d="M78.522 187.302C78.0888 185.315 77.0262 183.52 75.492 182.184C74.6914 181.388 74.0302 180.463 73.536 179.448C71.364 175.416 70.278 172.314 67.176 173.556C64.074 174.798 64.848 176.346 64.848 180.222C64.848 184.098 67.176 189.378 71.52 191.088C75.864 192.798 79.434 192.174 78.654 187.98C78.6 187.746 78.564 187.518 78.522 187.302Z" stroke="#263238" stroke-miterlimit="10"/>
<path d="M73.38 195.738C73.38 195.738 74.154 193.878 70.278 192.48C66.402 191.082 64.878 192.48 65.934 194.652C66.99 196.824 73.692 197.76 73.38 195.738Z" stroke="#263238" stroke-miterlimit="10"/>
<path d="M82.536 198.222C82.536 198.222 83.136 195.588 80.208 195.12C77.28 194.652 75.408 196.83 76.326 198.066C77.244 199.302 81.45 202.26 82.536 198.222Z" stroke="#263238" stroke-miterlimit="10"/>
<path d="M87.498 188.76C87.498 188.76 84.084 190.932 84.708 192.636C84.8672 193.065 85.1293 193.448 85.4712 193.751C85.8132 194.055 86.2244 194.27 86.6689 194.377C87.1134 194.484 87.5774 194.48 88.0202 194.366C88.4629 194.252 88.8708 194.031 89.208 193.722C90.912 192.33 89.826 187.05 87.498 188.76Z" stroke="#263238" stroke-miterlimit="10"/>
<path d="M90 173.088C89.9424 174.23 89.6242 175.345 89.07 176.346C88.14 178.05 86.898 180.546 87.828 181.146C88.758 181.746 91.704 180.546 92.328 177.888C92.952 175.23 92.154 171.072 90 173.088Z" stroke="#263238" stroke-miterlimit="10"/>
<path d="M79.584 164.4C79.584 164.4 75.864 164.712 74.31 167.502C72.756 170.292 72.45 175.104 76.17 177.102C79.89 179.1 84.864 178.344 86.88 175.554C87.7032 174.394 88.2079 173.038 88.3437 171.622C88.4795 170.206 88.2417 168.779 87.654 167.484C86.724 165.486 83.154 163.47 79.584 164.4Z" stroke="#263238" stroke-miterlimit="10"/>
<path d="M81.45 172.158C83.2493 172.158 84.708 170.734 84.708 168.978C84.708 167.222 83.2493 165.798 81.45 165.798C79.6507 165.798 78.192 167.222 78.192 168.978C78.192 170.734 79.6507 172.158 81.45 172.158Z" stroke="#263238" stroke-miterlimit="10"/>
<path d="M123 201.6C123 201.6 116.958 203.28 112.2 200.598C107.442 197.916 105.75 191.868 105.75 191.868C105.75 191.868 111.792 190.182 116.55 192.87C121.308 195.558 123 201.6 123 201.6Z" stroke="#263238" stroke-miterlimit="10"/>
<path d="M123.6 201.6C123.6 201.6 129.642 203.28 134.4 200.598C139.158 197.916 140.844 191.868 140.844 191.868C140.844 191.868 134.808 190.182 130.044 192.87C125.28 195.558 123.6 201.6 123.6 201.6Z" stroke="#263238" stroke-miterlimit="10"/>
<path d="M123.078 188.058C123.078 188.058 118.77 189.258 115.374 187.344C111.978 185.43 110.772 181.122 110.772 181.122C110.772 181.122 115.08 179.922 118.482 181.836C121.884 183.75 123.078 188.058 123.078 188.058Z" stroke="#263238" stroke-miterlimit="10"/>
<path d="M123.492 188.058C123.492 188.058 127.806 189.258 131.202 187.344C134.598 185.43 135.804 181.122 135.804 181.122C135.804 181.122 131.496 179.922 128.094 181.836C124.692 183.75 123.492 188.058 123.492 188.058Z" stroke="#263238" stroke-miterlimit="10"/>
<path d="M123.102 178.638C123.102 178.638 119.208 179.724 116.136 177.99C113.064 176.256 111.984 172.368 111.984 172.368C111.984 172.368 115.872 171.282 118.944 173.016C122.016 174.75 123.102 178.638 123.102 178.638Z" stroke="#263238" stroke-miterlimit="10"/>
<path d="M123.474 178.638C123.474 178.638 127.368 179.724 130.434 177.99C133.5 176.256 134.592 172.368 134.592 172.368C134.592 172.368 130.698 171.282 127.626 173.016C124.554 174.75 123.474 178.638 123.474 178.638Z" stroke="#263238" stroke-miterlimit="10"/>
<path d="M123.138 169.698C123.138 169.698 120.072 170.556 117.648 169.188C115.224 167.82 114.372 164.754 114.372 164.754C114.372 164.754 117.444 163.896 119.862 165.264C122.28 166.632 123.138 169.698 123.138 169.698Z" stroke="#263238" stroke-miterlimit="10"/>
<path d="M123.432 169.698C123.432 169.698 126.504 170.556 128.922 169.188C131.34 167.82 132.198 164.754 132.198 164.754C132.198 164.754 129.132 163.896 126.708 165.264C124.284 166.632 123.432 169.698 123.432 169.698Z" stroke="#263238" stroke-miterlimit="10"/>
<path d="M123.258 166.854C123.258 166.854 125.526 164.61 125.544 161.832C125.562 159.054 123.318 156.786 123.318 156.786C123.318 156.786 121.056 159.024 121.038 161.802C121.02 164.58 123.258 166.854 123.258 166.854Z" stroke="#263238" stroke-miterlimit="10"/>
<path d="M123.258 166.854V209.184" stroke="#263238" stroke-miterlimit="10"/>
<path d="M320.448 242.736C317.55 235.788 303.474 209.946 296.724 196.056C289.974 182.166 282.258 168.858 280.326 164.256C278.394 159.654 275.118 158.466 275.118 158.466L237.504 154.2C237.504 154.2 209.538 152.082 203.754 153.042C203.754 153.042 159.954 162.882 156.306 163.458C152.658 164.034 148.974 167.124 148.59 170.79C148.41 172.47 147.546 177.99 146.658 183.51C146.058 185.874 144.954 190.11 143.658 193.782C138.42 208.326 134.52 214.56 128.7 228.816C128.1 230.352 122.328 245.394 122.358 247.05C122.526 255.684 151.998 239.412 156.84 243.486C156.024 248.13 155.04 252.84 155.256 252.996C156.222 253.77 154.056 267.396 154.056 267.396H318.132C318.132 267.396 323.34 249.678 320.448 242.736Z" fill="white" stroke="#263238" stroke-miterlimit="10"/>
<path d="M277.152 198.792L269.904 266.724" stroke="#263238" stroke-miterlimit="10"/>
<path d="M278.196 189.06L277.638 194.244" stroke="#263238" stroke-miterlimit="10"/>
<path d="M285.126 201.102C285.716 200.068 286.361 199.067 287.058 198.102" stroke="#263238" stroke-miterlimit="10"/>
<path d="M274.338 227.604C274.338 227.604 278.298 214.638 283.098 204.912" stroke="#263238" stroke-miterlimit="10"/>
<path d="M295.506 219.438C297.485 218.708 299.612 218.467 301.704 218.736" stroke="#263238" stroke-miterlimit="10"/>
<path d="M273 238.2C273 238.2 281.826 226.68 291.396 221.31" stroke="#263238" stroke-miterlimit="10"/>
<path d="M306.666 232.494C310.554 234.984 313.578 238.356 314.04 239.166" stroke="#263238" stroke-miterlimit="10"/>
<path d="M281.472 235.116C281.472 235.116 291.108 230.106 298.236 229.716C299.707 229.663 301.173 229.904 302.55 230.424" stroke="#263238" stroke-miterlimit="10"/>
<path d="M200.142 161.838C200.142 161.838 198.87 168.528 198.87 173.31C198.87 178.26 198.87 183.894 199.968 188.658C202.926 188.334 205.968 188.424 208.968 188.346L201.798 195C201.56 195.174 201.392 195.428 201.324 195.714C201.333 196.026 201.457 196.323 201.672 196.548C209.808 207.348 216.81 219.27 227.544 227.79C223.782 224.79 245.04 198.732 247.29 195.714C247.518 195.414 238.89 187.242 238.38 186.714L251.454 186.066C251.454 186.066 253.686 179.058 249.54 165.066C245.394 151.074 229.992 142.116 221.496 144.666C213 147.216 202.056 154.8 200.142 161.838Z" fill="white" stroke="#263238" stroke-miterlimit="10"/>
<path d="M199.314 103.86C199.314 103.86 187.914 117.942 186.198 128.55C184.482 139.158 187.356 148.8 186.798 157.674C186.24 166.548 185.064 171.366 183.714 179.466C182.956 184.677 183.283 189.988 184.674 195.066L197.598 195.264L199.722 184.074L201.072 195.648C202.548 195.751 204.03 195.751 205.506 195.648C207.048 195.456 212.838 195.048 212.838 195.048C212.838 195.048 211.488 190.614 210.138 184.848C207.564 173.82 207.438 175.008 207.438 166.908C207.438 158.808 210.522 129.108 213.222 121.578C215.922 114.048 218.814 104.028 218.814 104.028C218.814 104.028 207.804 96.7261 199.314 103.86Z" fill="#263238" stroke="#263238" stroke-miterlimit="10"/>
<path d="M253.476 97.554C253.476 97.554 264.876 112.602 266.592 123.954C268.308 135.306 265.44 145.596 265.992 155.076C266.544 164.556 267.726 169.71 269.076 178.368C269.838 183.944 269.512 189.614 268.116 195.066L255.192 195.27L253.068 183.318L251.718 195.684C250.242 195.793 248.76 195.793 247.284 195.684C245.742 195.474 239.952 195.084 239.952 195.084C239.952 195.084 241.302 190.344 242.652 184.158C245.226 172.374 245.352 173.646 245.352 164.988C245.352 156.33 242.268 124.59 239.568 116.55C236.868 108.51 234 97.758 234 97.758C234 97.758 244.992 89.928 253.476 97.554Z" fill="#263238" stroke="#263238" stroke-miterlimit="10"/>
<path d="M196.536 138.846C196.536 138.846 193.722 126.6 194.688 117C195.654 107.4 201.63 97.1342 210.504 92.8922C219.378 88.6502 234.804 88.6442 246.57 92.8922C258.336 97.1402 260.844 114.108 259.494 122.982C258.144 131.856 256.41 139.374 256.218 140.148C256.026 140.922 253.128 146.316 251.202 147.09C249.276 147.864 247.536 134.742 238.854 131.49C230.172 128.238 218.604 135.924 212.238 138.048C208.391 139.353 204.9 141.532 202.038 144.414C202.038 144.414 197.22 143.358 196.536 138.846Z" fill="#263238" stroke="#263238" stroke-miterlimit="10"/>
<path d="M214.746 176.574C214.746 176.574 216.096 188.532 219.186 192.582C221.216 195.3 223.083 198.134 224.778 201.072C224.778 201.072 226.896 197.406 229.578 192.582C232.26 187.758 234.018 178.314 234.018 178.314C234.018 178.314 219.186 178.698 214.746 176.574Z" fill="#D9D9D9" stroke="#263238" stroke-miterlimit="10"/>
<path d="M251.4 142.2C251.4 142.2 253.686 136.956 256.11 138.306C258.534 139.656 255.84 148.254 253.956 151.476C253.428 152.41 252.714 153.226 251.859 153.874C251.003 154.522 250.024 154.989 248.982 155.244L251.4 142.2Z" fill="#D9D9D9" stroke="#263238" stroke-miterlimit="10"/>
<path d="M201.642 139.8C201.642 139.8 197.742 134.196 196.536 138.858C194.514 146.658 201.936 154.05 201.936 154.05L201.642 139.8Z" fill="#D9D9D9" stroke="#263238" stroke-miterlimit="10"/>
<path d="M201.066 131.94C201.066 131.94 216.516 132.588 225.102 127.866C230.359 124.875 234.614 120.395 237.33 114.99C237.33 114.99 243.552 128.082 246.126 130.656L252.354 136.878C252.354 136.878 249.66 152.334 248.154 159.414C246.648 166.494 239.472 176.574 235.392 179.364C231.312 182.154 226.812 184.944 223.59 184.302C220.368 183.66 213.888 179.502 209.19 173.262C204.492 167.022 203.004 164.982 201.93 154.062C201.262 146.708 200.973 139.324 201.066 131.94Z" fill="#D9D9D9" stroke="#263238" stroke-miterlimit="10"/>
<path d="M219 162.78C219 162.78 223.038 167.616 229.488 163.452" stroke="#263238" stroke-miterlimit="10"/>
<path d="M216.162 168C218.433 170.065 221.43 171.144 224.496 171C227.749 170.897 230.855 169.618 233.238 167.4" stroke="#263238" stroke-miterlimit="10"/>
<path d="M206.22 138.66C211.62 136.122 218.178 139.602 218.178 139.602C218.178 139.602 219.648 141.204 219.342 139.002C219.036 136.8 216.132 136.002 211.488 136.152C206.844 136.302 206.22 138.66 206.22 138.66Z" fill="#263238" stroke="#263238" stroke-miterlimit="10"/>
<path d="M244.656 141.42C239.316 138.714 232.656 141.984 232.656 141.984C232.656 141.984 231.144 143.538 231.516 141.384C231.888 139.23 234.81 138.516 239.454 138.78C244.098 139.044 244.656 141.42 244.656 141.42Z" fill="#263238" stroke="#263238" stroke-miterlimit="10"/>
<path d="M214.758 149.13C214.758 150.588 213.984 151.776 213.024 151.776C212.064 151.776 211.296 150.576 211.296 149.13C211.296 147.684 212.07 146.49 213.024 146.49C213.978 146.49 214.758 147.672 214.758 149.13Z" fill="#263238"/>
<path d="M209.472 146.67C209.472 146.67 214.578 146.124 216.396 147.948" stroke="#263238" stroke-miterlimit="10"/>
<path d="M238.2 151.32C238.2 152.778 237.426 153.96 236.466 153.96C235.506 153.96 234.738 152.76 234.738 151.32C234.738 149.88 235.512 148.68 236.466 148.68C237.42 148.68 238.2 149.862 238.2 151.32Z" fill="#263238"/>
<path d="M232.92 148.86C232.92 148.86 238.026 148.314 239.844 150.138" stroke="#263238" stroke-miterlimit="10"/>
<path d="M199.758 137.502C199.758 137.502 211.458 141.942 223.824 143.016C236.19 144.09 251.652 140.19 252.864 140.058C254.076 139.926 252.192 146.508 250.98 151.08C249.768 155.652 248.694 158.07 243.72 159.282C238.746 160.494 233.37 160.758 231.216 158.742C229.062 156.726 225.978 148.26 224.094 148.392C222.21 148.524 218.982 155.784 216.702 157.536C214.422 159.288 207.018 157.266 202.854 154.848C198.69 152.43 198 136.158 199.758 137.502Z" stroke="white" stroke-miterlimit="10"/>
<path d="M199.758 139.578C199.758 139.578 211.458 144.018 223.824 145.092C236.19 146.166 251.652 142.266 252.864 142.134C252.915 142.127 252.967 142.135 253.013 142.157C253.059 142.18 253.097 142.216 253.122 142.26C253.338 140.892 253.314 140.004 252.864 140.058C251.664 140.19 236.196 144.09 223.824 143.016C211.452 141.942 199.758 137.502 199.758 137.502C199.086 136.986 198.774 139.086 198.882 141.996C198.96 140.25 199.26 139.2 199.758 139.578Z" fill="#00856F" stroke="#263238" stroke-miterlimit="10"/>
<path d="M147.528 210.42C147.528 210.42 138.666 220.14 132 226.842C125.334 233.544 119.04 250.392 121.2 255.576C123.36 260.76 128.544 264.864 135.888 266.592C143.232 268.32 148.2 265.08 153.36 260.328C158.52 255.576 168.702 221.004 168.702 221.004L147.528 210.42Z" fill="#D9D9D9" stroke="#263238" stroke-miterlimit="10"/>
<path d="M121.2 255.6C123.36 260.784 128.544 264.888 135.888 266.616C143.232 268.344 148.2 265.08 153.36 260.328C155.046 258.786 157.26 254.088 159.474 248.454C156.378 249.444 147.978 251.454 140.4 247.152C130.89 241.752 131.97 226.842 131.97 226.842C125.274 233.538 119.01 250.392 121.2 255.6Z" fill="white" stroke="#263238" stroke-miterlimit="10"/>
<path d="M151.866 180.6C151.866 180.6 154.2 194.322 154.2 195.288C154.2 196.254 144.168 212.088 144.168 212.088C144.168 212.088 145.134 213.054 150.924 219.036C156.714 225.018 162.882 226.554 165.582 226.554H169.248C169.248 226.554 171.174 213.054 173.49 207.846C175.806 202.638 176.382 200.904 177.348 199.554C178.314 198.204 180.048 196.854 181.398 192.996C182.748 189.138 183.906 177.396 185.256 174.48C186.606 171.564 191.622 166.956 191.814 164.28C192.006 161.604 192.198 160.23 187.956 161.388C183.714 162.546 180.432 166.788 179.466 168.906C178.5 171.024 179.466 171.414 177.732 169.506C175.998 167.598 173.682 164.298 173.682 164.298L153 175.2C153 175.2 150.906 178.314 151.866 180.6Z" fill="#A8A8A8" stroke="#263238" stroke-miterlimit="10"/>
<path d="M169.23 186.798C169.23 186.798 171.54 189.69 170.772 194.706" stroke="#263238" stroke-miterlimit="10"/>
<path d="M198.234 203.676C198.125 203.725 198.001 203.729 197.889 203.688C197.776 203.646 197.685 203.562 197.634 203.454L172.434 149.97L174.09 149.208L198.45 203.07C198.501 203.179 198.508 203.304 198.467 203.418C198.427 203.531 198.343 203.624 198.234 203.676Z" fill="#263238" stroke="#263238" stroke-miterlimit="10"/>
<path d="M195.96 195.06L193.158 196.356L167.616 141C167.446 140.629 167.431 140.205 167.572 139.822C167.714 139.438 168.001 139.127 168.372 138.954C168.556 138.87 168.755 138.822 168.957 138.814C169.16 138.806 169.362 138.838 169.552 138.909C169.742 138.979 169.916 139.086 170.065 139.223C170.213 139.361 170.333 139.526 170.418 139.71L195.96 195.06Z" fill="white" stroke="#263238" stroke-miterlimit="10"/>
<path d="M194.208 194.802L185.478 176.466" stroke="#00856F" stroke-miterlimit="10"/>
<path d="M172.314 164.04C172.314 164.04 177.522 170.598 179.838 172.524C182.154 174.45 185.046 175.416 185.43 172.14C185.814 168.864 181.572 163.266 179.256 159.798C176.94 156.33 175.206 154.59 172.506 156.708C169.806 158.826 167.298 165.774 167.298 165.774L172.314 164.04Z" fill="#A8A8A8" stroke="#263238" stroke-miterlimit="10"/>
<path d="M158.232 183.132C158.232 183.132 159.774 188.532 162.09 188.73C164.406 188.928 164.406 187.956 167.298 186.606C170.19 185.256 172.314 184.482 174.438 183.522C176.562 182.562 178.68 179.856 178.68 177.348C178.68 174.84 172.314 164.04 172.314 164.04C172.314 164.04 171.714 162.69 169.23 163.266C166.746 163.842 153.03 170.208 151.482 172.332C149.934 174.456 149.94 175.998 150.882 179.274C151.824 182.55 153.774 188.73 153.774 188.73" fill="#A8A8A8"/>
<path d="M158.232 183.132C158.232 183.132 159.774 188.532 162.09 188.73C164.406 188.928 164.406 187.956 167.298 186.606C170.19 185.256 172.314 184.482 174.438 183.522C176.562 182.562 178.68 179.856 178.68 177.348C178.68 174.84 172.314 164.04 172.314 164.04C172.314 164.04 171.714 162.69 169.23 163.266C166.746 163.842 153.03 170.208 151.482 172.332C149.934 174.456 149.94 175.998 150.882 179.274C151.824 182.55 153.774 188.73 153.774 188.73" stroke="#263238" stroke-miterlimit="10"/>
<path d="M165.372 165.774C165.372 165.774 171.93 175.614 172.314 177.924C172.698 180.234 172.914 183.522 171.714 184.674" stroke="#263238" stroke-miterlimit="10"/>
<path d="M159.39 167.898C159.39 167.898 164.79 176.766 166.524 179.664C168.258 182.562 168.648 185.448 167.298 186.606C167.298 186.606 168.648 190.272 165.564 195.09" stroke="#263238" stroke-miterlimit="10"/>
<path d="M155.916 182.172L161.322 184.482" stroke="#263238" stroke-miterlimit="10"/>
<path d="M315.6 267.3C315.6 267.3 318.876 258.246 311.94 248.226C305.004 238.206 284.766 237.426 278.598 238.392C272.43 239.358 261.6 243.6 255.642 246.294C249.684 248.988 237.528 248.61 236.4 248.4C235.272 248.19 217.518 246.084 213.276 246.858C209.034 247.632 209.034 251.286 208.65 252.444C208.266 253.602 204.408 260.928 204.024 263.43C203.64 265.932 205.374 266.898 206.34 267.09C206.997 267.238 207.641 267.439 208.266 267.69L315.6 267.3Z" fill="#D9D9D9" stroke="#263238" stroke-miterlimit="10"/>
<path d="M236.4 248.4C235.248 248.208 217.518 246.084 213.276 246.858C209.034 247.632 209.034 251.286 208.65 252.444C208.266 253.602 204.408 260.928 204.024 263.43C203.64 265.932 205.374 266.898 206.34 267.09C206.997 267.238 207.641 267.439 208.266 267.69L261.606 267.498C261.817 266.03 261.896 264.546 261.84 263.064C261.648 256.512 255.672 246.294 255.672 246.294C249.672 249 237.528 248.61 236.4 248.4Z" fill="#A8A8A8" stroke="#263238" stroke-miterlimit="10"/>
<path d="M219.414 248.028C219.414 248.028 217.29 248.226 216.33 249.768C215.37 251.31 215.73 251.502 214.014 255.768C212.298 260.034 209.388 263.862 210.738 265.596C212.088 267.33 211.896 267.528 214.788 267.72" stroke="#263238" stroke-miterlimit="10"/>
<path d="M226.926 249.6C226.926 249.6 224.946 249.78 224.04 251.202C223.134 252.624 223.5 252.798 221.88 256.704C220.26 260.61 217.548 264.168 218.814 265.764C220.08 267.36 219.894 267.564 222.6 267.72" stroke="#263238" stroke-miterlimit="10"/>
<path d="M231.942 252.462C231.51 252.519 231.095 252.667 230.725 252.898C230.356 253.129 230.04 253.437 229.8 253.8C229.128 255 229.398 255.144 228.18 258.426C226.962 261.708 224.94 264.696 225.888 266.04C226.836 267.384 226.698 267.534 228.72 267.684C229.942 267.542 231.148 267.283 232.32 266.91C234.054 266.31 235.02 264.984 234.63 263.826C235.894 264.637 237.254 265.287 238.68 265.758" stroke="#263238" stroke-miterlimit="10"/>
<path d="M232.518 264C234.197 262.818 235.8 261.532 237.318 260.148" stroke="#263238" stroke-miterlimit="10"/>
<path d="M186.078 233.826C186.078 233.826 184.476 226.182 183.726 218.226C182.976 210.27 187.206 203.112 187.206 203.112" stroke="#263238" stroke-width="2" stroke-miterlimit="10"/>
<path d="M184.746 225.6C184.746 225.6 181.68 213.342 176.022 207.252" stroke="#263238" stroke-width="2" stroke-miterlimit="10"/>
<path d="M183.486 213.408C181.635 212.517 179.591 212.105 177.54 212.208" stroke="#263238" stroke-width="2" stroke-miterlimit="10"/>
<path d="M183.36 215.946C183.36 215.946 185.85 212.484 188.97 212.88C192.09 213.276 192.81 214.41 192.81 214.41" stroke="#263238" stroke-width="2" stroke-miterlimit="10"/>
<path d="M179.874 212.196C179.845 209.398 179.336 206.626 178.368 204C176.754 199.59 173.49 199.398 169.758 199.644C166.026 199.89 157.242 201.138 157.242 201.138C157.242 201.138 162.354 204.978 165.522 207.876C168.69 210.774 172.356 211.26 174.948 211.74C176.574 212.03 178.222 212.182 179.874 212.196Z" fill="#00856F" stroke="#263238" stroke-miterlimit="10"/>
<path d="M183.786 210.846C183.786 210.846 182.388 204.426 183.864 200.232C185.34 196.038 189.348 193.032 193.08 192.81C196.812 192.588 201.888 192.81 201.888 192.81C201.888 192.81 199.086 198.81 194.58 203.16C190.074 207.51 183.786 210.846 183.786 210.846Z" fill="#00856F" stroke="#263238" stroke-miterlimit="10"/>
<path d="M179.874 212.196C179.874 212.196 177.876 209.796 173.148 210.594C168.42 211.392 167.61 216.342 168.036 218.994C168.462 221.646 167.574 224.994 167.574 224.994C167.574 224.994 169.854 223.548 174.042 219.456C178.23 215.364 177.888 213.24 179.874 212.196Z" fill="#00856F" stroke="#263238" stroke-miterlimit="10"/>
<path d="M186.72 213.42C186.72 213.42 189.306 209.412 192.48 210.156C195.654 210.9 198.162 210.852 200.28 213.918C202.398 216.984 200.88 225.318 200.88 225.318C199.725 223.267 198.213 221.438 196.416 219.918C193.728 217.854 189.96 213.438 186.72 213.42Z" fill="#00856F" stroke="#263238" stroke-miterlimit="10"/>
<path d="M224.958 234.702C224.958 234.702 225.312 226.902 224.784 218.916C224.256 210.93 218.928 204.552 218.928 204.552" stroke="#263238" stroke-width="2" stroke-miterlimit="10"/>
<path d="M224.958 226.362C224.958 226.362 226.026 213.762 230.634 206.856" stroke="#263238" stroke-width="2" stroke-miterlimit="10"/>
<path d="M224.25 214.128C225.933 212.952 227.885 212.22 229.926 211.998" stroke="#263238" stroke-width="2" stroke-miterlimit="10"/>
<path d="M224.784 216.6C224.784 216.6 221.784 213.6 218.754 214.47C215.724 215.34 215.208 216.6 215.208 216.6" stroke="#263238" stroke-width="2" stroke-miterlimit="10"/>
<path d="M227.622 212.352C227.205 209.584 227.264 206.766 227.796 204.018C228.684 199.41 231.876 198.702 235.596 198.342C239.316 197.982 248.196 197.814 248.196 197.814C248.196 197.814 243.762 202.422 241.104 205.794C238.446 209.166 234.9 210.228 232.416 211.116C230.855 211.662 229.252 212.075 227.622 212.352Z" fill="#00856F" stroke="#263238" stroke-miterlimit="10"/>
<path d="M223.542 211.644C223.542 211.644 223.896 205.086 221.742 201.18C219.588 197.274 215.184 194.976 211.458 195.33C207.732 195.684 202.8 196.746 202.8 196.746C202.8 196.746 206.52 202.248 211.668 205.794C216.816 209.34 223.542 211.644 223.542 211.644Z" fill="#00856F" stroke="#263238" stroke-miterlimit="10"/>
<path d="M227.622 212.352C227.622 212.352 229.218 209.694 234.006 209.694C238.794 209.694 240.39 214.494 240.39 217.14C240.39 219.786 241.806 222.996 241.806 222.996C241.806 222.996 239.322 221.934 234.534 218.562C229.746 215.19 229.746 213.066 227.622 212.352Z" fill="#00856F" stroke="#263238" stroke-miterlimit="10"/>
<path d="M221.058 214.662C221.058 214.662 217.866 211.116 214.854 212.352C211.842 213.588 209.352 213.948 207.756 217.32C206.16 220.692 208.998 228.672 208.998 228.672C209.813 226.467 211.013 224.425 212.544 222.642C214.854 220.158 217.866 215.19 221.058 214.662Z" fill="#00856F" stroke="#263238" stroke-miterlimit="10"/>
<path d="M204.918 234.876C204.918 234.876 204.918 217.674 204.39 209.676C203.862 201.678 198.534 195.312 198.534 195.312" stroke="#263238" stroke-width="2" stroke-miterlimit="10"/>
<path d="M204.564 217.14C204.564 217.14 205.632 204.54 210.24 197.634" stroke="#263238" stroke-width="2" stroke-miterlimit="10"/>
<path d="M203.856 204.906C205.54 203.733 207.492 203.001 209.532 202.776" stroke="#263238" stroke-width="2" stroke-miterlimit="10"/>
<path d="M204.39 207.39C204.39 207.39 201.39 204.39 198.39 205.26C195.39 206.13 194.844 207.39 194.844 207.39" stroke="#263238" stroke-width="2" stroke-miterlimit="10"/>
<path d="M207.228 203.136C206.807 200.366 206.866 197.545 207.402 194.796C208.29 190.188 211.482 189.48 215.202 189.126C218.922 188.772 227.802 188.592 227.802 188.592C227.802 188.592 223.368 193.2 220.71 196.572C218.052 199.944 214.506 201.006 212.022 201.894C210.461 202.44 208.858 202.855 207.228 203.136Z" fill="#00856F" stroke="#263238" stroke-miterlimit="10"/>
<path d="M203.148 202.422C203.148 202.422 203.502 195.864 201.348 191.958C199.194 188.052 194.79 185.754 191.064 186.108C187.338 186.462 182.4 187.53 182.4 187.53C182.4 187.53 186.12 193.026 191.268 196.572C196.416 200.118 203.148 202.422 203.148 202.422Z" fill="#00856F" stroke="#263238" stroke-miterlimit="10"/>
<path d="M207.228 203.136C207.228 203.136 208.824 200.472 213.612 200.472C218.4 200.472 219.996 205.272 219.996 207.924C219.996 210.576 221.412 213.774 221.412 213.774C221.412 213.774 218.928 212.712 214.14 209.34C209.352 205.968 209.352 203.844 207.228 203.136Z" fill="#00856F" stroke="#263238" stroke-miterlimit="10"/>
<path d="M200.664 205.44C200.664 205.44 197.472 201.894 194.46 203.136C191.448 204.378 188.958 204.732 187.362 208.098C185.766 211.464 188.604 219.45 188.604 219.45C189.419 217.245 190.62 215.204 192.15 213.42C194.46 210.936 197.472 205.968 200.664 205.44Z" fill="#00856F" stroke="#263238" stroke-miterlimit="10"/>
<path d="M212.472 251.886C212.472 251.886 204.378 252.27 203.226 253.044C202.074 253.818 198.018 257.28 194.742 258.444C191.466 259.608 192.24 262.488 195.516 263.454C198.792 264.42 200.718 262.488 202.452 262.104C204.186 261.72 209.586 261.504 209.586 261.504L212.472 251.886Z" fill="#A8A8A8" stroke="#263238" stroke-miterlimit="10"/>
<path d="M180.678 217.2H189.738V261C189.738 261.761 189.436 262.49 188.898 263.028C188.36 263.566 187.631 263.868 186.87 263.868H183.54C182.779 263.868 182.05 263.566 181.512 263.028C180.974 262.49 180.672 261.761 180.672 261V217.2H180.678Z" stroke="#263238" stroke-miterlimit="10"/>
<path d="M182.55 227.796H187.86V259.842C187.86 260.287 187.683 260.715 187.368 261.03C187.053 261.345 186.626 261.522 186.18 261.522H184.2C183.754 261.522 183.327 261.345 183.012 261.03C182.697 260.715 182.52 260.287 182.52 259.842V227.796H182.55Z" fill="#00856F" stroke="#263238" stroke-miterlimit="10"/>
<path d="M200.526 217.2H209.586V261C209.586 261.761 209.284 262.49 208.746 263.028C208.208 263.566 207.479 263.868 206.718 263.868H203.4C202.639 263.868 201.91 263.566 201.372 263.028C200.834 262.49 200.532 261.761 200.532 261V217.2H200.526Z" stroke="#263238" stroke-miterlimit="10"/>
<path d="M202.398 227.796H207.708V259.842C207.708 260.287 207.531 260.715 207.216 261.03C206.901 261.345 206.474 261.522 206.028 261.522H204.078C203.632 261.522 203.205 261.345 202.89 261.03C202.575 260.715 202.398 260.287 202.398 259.842V227.796Z" fill="#00856F" stroke="#263238" stroke-miterlimit="10"/>
<path d="M220.374 217.2H229.434V261C229.434 261.761 229.132 262.49 228.594 263.028C228.056 263.566 227.327 263.868 226.566 263.868H223.242C222.481 263.868 221.752 263.566 221.214 263.028C220.676 262.49 220.374 261.761 220.374 261V217.2V217.2Z" stroke="#263238" stroke-miterlimit="10"/>
<path d="M222.252 227.796H227.562V259.842C227.562 260.287 227.385 260.715 227.07 261.03C226.755 261.345 226.328 261.522 225.882 261.522H223.932C223.486 261.522 223.059 261.345 222.744 261.03C222.429 260.715 222.252 260.287 222.252 259.842V227.796Z" fill="#00856F" stroke="#263238" stroke-miterlimit="10"/>
<path d="M235.212 232.422H178.554V234.93H235.212V232.422Z" fill="white" stroke="#263238" stroke-miterlimit="10"/>
<path d="M236.376 227.022H233.484V267.684H236.376V227.022Z" fill="white" stroke="#263238" stroke-miterlimit="10"/>
<path d="M236.37 261.906H177.396V267.69H236.37V261.906Z" fill="white" stroke="#263238" stroke-miterlimit="10"/>
<path d="M332.688 177.06C332.688 177.06 330.888 175.434 328.296 188.01C325.704 200.586 327 220.08 332.4 228.546C337.8 237.012 349.332 243.168 349.332 243.168L357.282 232.908C357.282 232.908 341.64 227.778 337.8 212.64C333.96 197.502 336.258 188.04 339.078 187.494C341.898 186.948 346.032 194.124 346.032 194.124L334.338 171.6L332.688 177.06Z" fill="white" stroke="#263238" stroke-miterlimit="10"/>
<path d="M334.968 187.752C334.968 187.295 334.833 186.848 334.579 186.469C334.325 186.089 333.964 185.793 333.542 185.618C333.12 185.443 332.655 185.397 332.207 185.486C331.759 185.575 331.348 185.795 331.025 186.118C330.702 186.442 330.482 186.853 330.392 187.301C330.303 187.749 330.349 188.214 330.524 188.636C330.699 189.058 330.995 189.419 331.375 189.673C331.755 189.926 332.201 190.062 332.658 190.062C332.961 190.062 333.262 190.002 333.542 189.886C333.822 189.77 334.077 189.6 334.291 189.385C334.506 189.171 334.676 188.916 334.792 188.636C334.908 188.356 334.968 188.055 334.968 187.752Z" fill="#263238" stroke="#263238" stroke-miterlimit="10"/>
<path d="M334.11 187.752C334.11 187.465 334.025 187.184 333.865 186.946C333.706 186.707 333.479 186.521 333.214 186.411C332.948 186.301 332.656 186.272 332.375 186.328C332.093 186.384 331.834 186.523 331.631 186.726C331.428 186.929 331.29 187.187 331.234 187.469C331.178 187.751 331.207 188.043 331.317 188.308C331.426 188.573 331.613 188.8 331.851 188.96C332.09 189.119 332.371 189.204 332.658 189.204C333.043 189.204 333.412 189.051 333.685 188.779C333.957 188.507 334.11 188.137 334.11 187.752Z" fill="white" stroke="#263238" stroke-miterlimit="10"/>
<path d="M340.338 157.824L330.612 163.038L331.59 167.19L343.26 160.938L340.338 157.824Z" fill="white" stroke="#263238" stroke-miterlimit="10"/>
<path d="M325.059 129.315L315.335 134.529L330.611 163.02L340.336 157.805L325.059 129.315Z" fill="#263238" stroke="#263238" stroke-miterlimit="10"/>
<path d="M325.058 129.316L315.334 134.53L316.298 136.328L326.022 131.114L325.058 129.316Z" fill="white" stroke="#263238" stroke-miterlimit="10"/>
<path d="M343.194 160.952L331.593 167.173L349.041 199.714L360.643 193.493L343.194 160.952Z" fill="white" stroke="#263238" stroke-miterlimit="10"/>
<path d="M357.629 187.88L346.027 194.101L349.038 199.716L360.64 193.496L357.629 187.88Z" fill="#263238" stroke="#263238" stroke-miterlimit="10"/>
<path d="M365.462 193.822L361.845 195.762L367.181 205.713L370.798 203.774L365.462 193.822Z" fill="white" stroke="#263238" stroke-miterlimit="10"/>
<path d="M360.161 195.967L356.238 197.172L359.554 207.966L363.477 206.76L360.161 195.967Z" fill="white" stroke="#263238" stroke-miterlimit="10"/>
<path d="M374.557 200.851L377.732 198.251L370.577 189.515L367.402 192.116L374.557 200.851Z" fill="white" stroke="#263238" stroke-miterlimit="10"/>
<path d="M371.716 187.554L353.627 197.254L355.325 200.421L373.415 190.722L371.716 187.554Z" fill="white" stroke="#263238" stroke-miterlimit="10"/>
<path d="M382.96 208.992L354.131 224.45L355.353 226.729L384.182 211.271L382.96 208.992Z" fill="#263238" stroke="#263238" stroke-miterlimit="10"/>
<path d="M391.08 231.582L370.308 240.594L368.172 234.972L388.944 225.96L391.08 231.582Z" fill="#263238" stroke="#263238" stroke-miterlimit="10"/>
<path d="M363.307 222.916L356.977 226.31L358.917 229.926L365.246 226.533L363.307 222.916Z" fill="white" stroke="#263238" stroke-miterlimit="10"/>
<path d="M341.139 180.054C343.846 177.348 343.846 172.96 341.139 170.254C338.433 167.547 334.045 167.547 331.339 170.254C328.632 172.96 328.632 177.348 331.339 180.054C334.045 182.76 338.433 182.76 341.139 180.054Z" fill="#263238" stroke="#263238" stroke-miterlimit="10"/>
<path d="M339.786 173.256C339.41 172.554 338.834 171.979 338.131 171.605C337.428 171.23 336.63 171.072 335.838 171.151C335.045 171.23 334.294 171.542 333.679 172.049C333.064 172.555 332.613 173.232 332.383 173.994C332.153 174.757 332.154 175.57 332.386 176.332C332.619 177.094 333.072 177.77 333.688 178.274C334.305 178.778 335.057 179.088 335.85 179.165C336.643 179.241 337.44 179.081 338.142 178.704C338.609 178.455 339.021 178.117 339.357 177.708C339.692 177.299 339.943 176.828 340.096 176.322C340.249 175.816 340.3 175.284 340.247 174.758C340.194 174.232 340.037 173.722 339.786 173.256Z" fill="white" stroke="#263238" stroke-miterlimit="10"/>
<path d="M363.276 237.858L374.4 233.058C374.651 232.947 374.922 232.889 375.196 232.885C375.47 232.882 375.742 232.934 375.996 233.038C376.25 233.142 376.48 233.297 376.673 233.492C376.866 233.687 377.017 233.919 377.118 234.174C377.31 234.648 377.316 235.177 377.136 235.656C376.956 236.135 376.603 236.529 376.146 236.76L364.266 242.808L363.276 237.858Z" fill="white" stroke="#263238" stroke-miterlimit="10"/>
<path d="M359.088 231.366H359.622C360.535 231.368 361.429 231.63 362.199 232.122C362.968 232.614 363.581 233.316 363.966 234.144L367.836 242.478C367.988 242.805 368.05 243.165 368.017 243.524C367.983 243.882 367.856 244.225 367.646 244.518C367.437 244.811 367.154 245.043 366.826 245.191C366.497 245.338 366.136 245.396 365.778 245.358L364.476 245.22L359.088 231.366Z" fill="white" stroke="#263238" stroke-miterlimit="10"/>
<path d="M356.016 228.87L337.8 255.744H373.716L364.476 245.22L358.86 229.236C358.76 228.956 358.585 228.709 358.354 228.523C358.123 228.337 357.845 228.218 357.55 228.18C357.256 228.142 356.957 228.187 356.686 228.308C356.415 228.43 356.183 228.624 356.016 228.87Z" fill="white" stroke="#263238" stroke-miterlimit="10"/>
<path d="M358.83 234.96C358.83 234.503 358.695 234.056 358.441 233.677C358.187 233.297 357.826 233.001 357.404 232.826C356.982 232.651 356.517 232.605 356.069 232.694C355.621 232.783 355.21 233.003 354.887 233.326C354.564 233.65 354.344 234.061 354.254 234.509C354.165 234.957 354.211 235.422 354.386 235.844C354.561 236.266 354.857 236.627 355.237 236.881C355.617 237.134 356.063 237.27 356.52 237.27C356.823 237.27 357.124 237.21 357.404 237.094C357.684 236.978 357.939 236.808 358.153 236.593C358.368 236.379 358.538 236.124 358.654 235.844C358.77 235.564 358.83 235.263 358.83 234.96Z" fill="white" stroke="#263238" stroke-miterlimit="10"/>
<path d="M335.268 254.856H403.854C404.187 254.856 404.517 254.922 404.825 255.049C405.133 255.177 405.413 255.364 405.649 255.599C405.884 255.835 406.071 256.115 406.199 256.423C406.326 256.731 406.392 257.061 406.392 257.394V267.42H332.73V257.4C332.729 257.066 332.794 256.735 332.921 256.427C333.049 256.118 333.235 255.838 333.471 255.601C333.707 255.365 333.987 255.178 334.295 255.05C334.604 254.922 334.934 254.856 335.268 254.856Z" fill="white" stroke="#263238" stroke-miterlimit="10"/>
<path d="M57.222 228.714V203.004H42.708V228.714C38.3154 230.408 34.6539 233.586 32.3584 237.696C30.0629 241.807 29.2779 246.591 30.1396 251.22C31.0013 255.848 33.4553 260.029 37.0763 263.039C40.6973 266.048 45.2569 267.695 49.965 267.695C54.6731 267.695 59.2328 266.048 62.8537 263.039C66.4747 260.029 68.9287 255.848 69.7904 251.22C70.6521 246.591 69.8671 241.807 67.5716 237.696C65.2761 233.586 61.6147 230.408 57.222 228.714Z" fill="white" stroke="#263238" stroke-miterlimit="10"/>
<path d="M36.198 239.508C34.6985 241.955 33.8784 244.758 33.8221 247.627C33.7658 250.496 34.4754 253.329 35.8778 255.833C37.2802 258.337 39.3247 260.422 41.8008 261.873C44.2768 263.325 47.095 264.09 49.965 264.09C52.835 264.09 55.6532 263.325 58.1292 261.873C60.6053 260.422 62.6498 258.337 64.0522 255.833C65.4546 253.329 66.1642 250.496 66.1079 247.627C66.0516 244.758 65.2315 241.955 63.732 239.508H36.198Z" fill="#00856F" stroke="#263238" stroke-miterlimit="10"/>
<path d="M48.39 243.738C48.39 244.171 48.2616 244.594 48.0209 244.955C47.7803 245.315 47.4382 245.595 47.0381 245.761C46.6379 245.927 46.1976 245.97 45.7727 245.886C45.3479 245.801 44.9577 245.593 44.6514 245.286C44.3452 244.98 44.1366 244.59 44.0521 244.165C43.9676 243.74 44.0109 243.3 44.1767 242.9C44.3425 242.5 44.6232 242.158 44.9833 241.917C45.3434 241.676 45.7669 241.548 46.2 241.548C46.4878 241.547 46.7729 241.603 47.039 241.713C47.3051 241.823 47.5468 241.984 47.7503 242.188C47.9538 242.391 48.1151 242.633 48.2249 242.899C48.3347 243.165 48.3908 243.45 48.39 243.738Z" fill="#00856F" stroke="#263238" stroke-miterlimit="10"/>
<path d="M59.922 246.948C59.9232 247.238 59.8383 247.522 59.6782 247.763C59.5181 248.005 59.2898 248.193 59.0224 248.305C58.755 248.417 58.4605 248.447 58.1761 248.391C57.8917 248.335 57.6303 248.196 57.4249 247.992C57.2196 247.787 57.0796 247.526 57.0226 247.242C56.9656 246.958 56.9943 246.663 57.1049 246.395C57.2155 246.128 57.4031 245.899 57.644 245.737C57.8849 245.576 58.1682 245.49 58.458 245.49C58.8452 245.49 59.2167 245.644 59.4911 245.917C59.7655 246.19 59.9204 246.561 59.922 246.948Z" fill="#00856F" stroke="#263238" stroke-miterlimit="10"/>
<path d="M48.096 253.59C48.096 253.778 48.0404 253.961 47.9362 254.117C47.8321 254.273 47.684 254.394 47.5108 254.466C47.3376 254.538 47.1469 254.556 46.9631 254.52C46.7792 254.483 46.6102 254.393 46.4777 254.26C46.3451 254.128 46.2548 253.959 46.2182 253.775C46.1816 253.591 46.2004 253.401 46.2722 253.227C46.3439 253.054 46.4654 252.906 46.6213 252.802C46.7772 252.698 46.9605 252.642 47.148 252.642C47.3994 252.642 47.6406 252.742 47.8183 252.92C47.9961 253.098 48.096 253.339 48.096 253.59Z" fill="#00856F" stroke="#263238" stroke-miterlimit="10"/>
<path d="M52.476 249.36C52.476 249.606 52.4032 249.846 52.2667 250.05C52.1302 250.254 51.9362 250.414 51.7093 250.508C51.4824 250.602 51.2326 250.626 50.9917 250.578C50.7508 250.53 50.5295 250.412 50.3558 250.238C50.1821 250.065 50.0638 249.843 50.0159 249.602C49.9679 249.362 49.9925 249.112 50.0865 248.885C50.1806 248.658 50.3397 248.464 50.544 248.327C50.7482 248.191 50.9884 248.118 51.234 248.118C51.3973 248.117 51.5592 248.149 51.7102 248.211C51.8613 248.273 51.9985 248.365 52.114 248.48C52.2295 248.596 52.3209 248.733 52.3831 248.884C52.4452 249.035 52.4768 249.197 52.476 249.36Z" fill="#00856F" stroke="#263238" stroke-miterlimit="10"/>
<path d="M45.324 214.11V228.852" stroke="#263238" stroke-miterlimit="10"/>
<path d="M45.324 206.814V211.05" stroke="#263238" stroke-miterlimit="10"/>
<path d="M35.844 236.64C34.2816 238.61 33.1434 240.882 32.5009 243.313C31.8583 245.744 31.7253 248.281 32.1101 250.766C32.4949 253.25 33.3893 255.629 34.7371 257.751C36.0849 259.874 37.8569 261.695 39.942 263.1" stroke="#263238" stroke-miterlimit="10"/>
<path d="M43.2 231.102C41.5554 231.78 40.0191 232.696 38.64 233.82" stroke="#263238" stroke-miterlimit="10"/>
<path d="M57.804 204.186H42.042C41.7906 204.186 41.5494 204.086 41.3717 203.908C41.1939 203.731 41.094 203.489 41.094 203.238C41.094 202.987 41.1939 202.745 41.3717 202.568C41.5494 202.39 41.7906 202.29 42.042 202.29H57.804C58.0554 202.29 58.2965 202.39 58.4743 202.568C58.6521 202.745 58.752 202.987 58.752 203.238C58.752 203.489 58.6521 203.731 58.4743 203.908C58.2965 204.086 58.0554 204.186 57.804 204.186Z" fill="white" stroke="#263238" stroke-miterlimit="10"/>
<path d="M74.292 267.69H421.134" stroke="#263238" stroke-miterlimit="10"/>
<path d="M15.564 267.69H69.462" stroke="#263238" stroke-miterlimit="10"/>
</svg>
