<svg width="367" height="330" viewBox="0 0 367 330" fill="none" xmlns="http://www.w3.org/2000/svg">
<path d="M259.378 79.6861L274.255 48.2612L305.702 63.1406L314.348 44.851L264.617 21.3126L241.088 71.04L259.378 79.6861Z" fill="#A558D1"/>
<path d="M226.318 102.243L234.97 83.957L253.257 92.6093L244.604 110.896L226.318 102.243Z" fill="#A558D1"/>
<path d="M266.184 98.7158L297.618 113.589L312.497 82.1421L330.784 90.7787L330.778 90.7915L307.252 140.528L257.528 117.009L257.503 116.997L266.184 98.7158Z" fill="#A558D1"/>
<path d="M318.592 69.2472L327.245 50.9609L345.531 59.6132L336.879 77.8995L318.592 69.2472Z" fill="#A558D1"/>
<path d="M299.596 76.0296L281.044 67.2438L274.553 80.9603L273.8 82.536L272.264 85.783L272.252 85.8086L272.281 85.8301L290.826 94.5972L299.599 76.0391L299.605 76.0263L299.596 76.0296Z" fill="#A558D1"/>
<g clip-path="url(#clip0_93_2)">
<path d="M139.082 182.939L54.9973 150.886C48.2199 148.302 44.7202 149.875 42.1166 156.705L10.6882 239.151C10.3894 239.935 10.1564 240.659 9.97474 241.359C9.5546 242.908 9.03697 244.378 9.78879 246.546C9.88083 246.752 10.8833 248.374 10.8833 248.374C11.4858 249.031 11.9075 249.491 12.6218 250.19L47.3638 283.354C49.1537 285.148 49.891 285.899 51.4692 286.458C53.019 287.091 54.055 287.059 56.599 286.874L104.601 285.253C105.586 285.243 106.221 285.143 107.108 285.054C107.108 285.054 108.921 284.548 109.141 284.419C111.145 283.302 111.737 281.86 112.455 280.424C112.786 279.781 113.093 279.086 113.392 278.302L144.82 195.856C147.424 189.026 145.897 185.537 139.082 182.939Z" fill="#542D6B"/>
<path d="M101.823 263.675L101.714 263.848L101.592 264.058L101.483 264.23L101.338 264.388L101.229 264.561L101.084 264.719L100.938 264.877L100.807 264.998L100.661 265.156L100.492 265.263L100.324 265.37L100.155 265.476L99.9865 265.583L99.8179 265.69L99.612 265.782L99.4576 265.852L99.2518 265.944L99.0601 265.999L98.8685 266.055L98.6911 266.072L98.4994 266.128L98.2706 266.169L98.0559 266.172L97.827 266.213L97.6124 266.217L97.3978 266.221L97.1831 266.224L97.1973 266.187L96.9827 266.191L96.7823 266.157L96.4187 266.104L96.2182 266.07L96.0178 266.037L95.8174 266.003L95.617 265.969L95.3793 265.921L95.1789 265.888L94.4341 265.604L94.2622 265.496L94.0387 265.41L93.8668 265.302L93.6948 265.194L93.4856 265.071L93.3136 264.963L93.1417 264.855L92.9697 264.746L92.7977 264.638L92.6258 264.53L92.4538 264.421L92.2961 264.276L92.1241 264.168L91.9664 264.022L91.8086 263.876L91.6509 263.731L91.4931 263.585L91.3354 263.439L91.1777 263.294L91.0199 263.148L90.8622 263.003L90.7045 262.857L90.5467 262.711L90.4032 262.528L90.2969 262.36L90.1534 262.177L90.0472 262.008L89.9409 261.839L89.8346 261.67L89.7283 261.502L89.6221 261.333L89.5158 261.164L89.4095 260.995L89.3175 260.789L89.4861 260.683L89.692 260.59L89.8606 260.483L90.0665 260.391L90.2351 260.284L90.4037 260.178L90.6096 260.085L90.7782 259.978L90.9841 259.886L91.1527 259.779L91.3586 259.687L91.5272 259.58L91.6958 259.473L91.9017 259.381L92.0703 259.274L92.2762 259.181L92.4448 259.075L92.5511 259.243L92.6946 259.426L92.8008 259.595L92.9443 259.778L93.0506 259.947L93.1941 260.13L93.3004 260.299L93.4581 260.444L93.5644 260.613L93.7221 260.759L93.8799 260.904L94.0376 261.05L94.1954 261.195L94.3531 261.341L94.5108 261.487L94.6686 261.632L94.8263 261.778L94.9983 261.886L95.3422 262.103L95.5514 262.225L95.7234 262.334L95.9096 262.405L96.1188 262.527L96.5284 262.683L96.7661 262.731L96.9665 262.765L97.1669 262.798L97.3673 262.832L97.5447 262.814L97.7221 262.796L97.9138 262.741L98.0824 262.634L98.2138 262.513L98.3594 262.355L98.4678 262.183L98.482 262.146L98.5301 261.907L98.5268 261.692L98.472 261.501L98.3657 261.332L98.2594 261.163L98.1389 261.032L97.9812 260.886L97.8235 260.74L97.6427 260.543L97.508 260.449L97.3733 260.355L97.2155 260.209L97.0436 260.101L96.8858 259.955L96.7138 259.847L96.5189 259.687L96.3469 259.579L96.1519 259.419L95.98 259.311L95.8222 259.165L95.6503 259.057L95.4925 258.911L95.3348 258.766L95.1628 258.657L95.0051 258.512L94.8474 258.366L94.6896 258.221L94.4946 258.061L94.3369 257.915L94.1792 257.77L94.0214 257.624L93.8779 257.441L93.7344 257.258L93.6281 257.089L93.4846 256.906L93.3784 256.738L93.2721 256.569L93.1658 256.4L93.0738 256.194L92.9817 255.988L92.9269 255.796L92.8721 255.604L92.8173 255.412L92.7625 255.22L92.7219 254.991L92.7043 254.814L92.6868 254.636L92.7207 254.435L92.7031 254.257L92.737 254.057L92.7709 253.856L92.8048 253.655L92.8387 253.454L92.8868 253.216L93.0576 252.768L93.1659 252.596L93.2743 252.423L93.3827 252.251L93.4911 252.078L93.5994 251.906L93.7451 251.748L93.8534 251.575L93.999 251.417L94.1447 251.259L94.2903 251.101L94.4731 250.957L94.656 250.813L94.8246 250.706L94.9932 250.599L95.1991 250.507L95.4049 250.414L95.6108 250.322L95.8167 250.229L96.0083 250.174L96.1999 250.119L96.3916 250.064L96.5832 250.008L96.8121 249.967L97.0268 249.964L97.2556 249.923L97.4703 249.919L97.6849 249.915L97.8996 249.912L98.1142 249.908L98.2774 249.928L98.4778 249.961L98.6782 249.995L98.8787 250.029L99.0791 250.062L99.2795 250.096L99.4799 250.129L99.6803 250.163L99.8808 250.197L100.7 250.509L100.909 250.632L101.118 250.754L101.305 250.825L101.514 250.948L101.686 251.056L101.895 251.178L102.067 251.287L102.239 251.395L102.411 251.503L102.583 251.612L102.755 251.72L102.913 251.865L103.07 252.011L103.242 252.119L103.4 252.265L103.558 252.411L103.715 252.556L103.873 252.702L104.031 252.847L104.174 253.03L104.295 253.162L104.438 253.345L104.582 253.528L104.688 253.697L104.832 253.879L104.938 254.048L105.044 254.217L105.151 254.386L105.257 254.554L105.088 254.661L104.92 254.768L104.751 254.875L104.582 254.981L104.399 255.125L104.231 255.232L104.062 255.339L103.894 255.445L103.725 255.552L103.556 255.659L103.388 255.766L103.219 255.872L103.036 256.016L102.868 256.123L102.699 256.23L102.014 256.909L101.845 257.016L101.739 256.847L101.595 256.664L101.489 256.495L101.383 256.326L101.225 256.181L101.119 256.012L100.961 255.866L100.84 255.735L100.683 255.589L100.562 255.458L100.404 255.312L100.284 255.181L100.089 255.021L99.9312 254.875L99.7735 254.73L99.6015 254.621L99.4614 254.654L99.2894 254.545L99.1174 254.437L98.9455 254.329L98.7735 254.22L98.3639 254.064L98.1262 254.016L97.9258 253.983L97.7254 253.949L97.548 253.967L97.3706 253.985L97.1274 254.063L96.9446 254.207L96.799 254.365L96.6906 254.538L96.6764 254.575L96.614 254.851L96.6031 255.103L96.6349 255.243L96.727 255.449L96.8705 255.632L96.9768 255.801L97.1345 255.947L97.3295 256.106L97.5244 256.266L97.6592 256.36L97.7797 256.492L97.9516 256.6L98.1094 256.746L98.2813 256.854L98.4763 257.014L98.6713 257.174L98.8663 257.333L99.0755 257.456L99.2332 257.602L99.4282 257.761L99.6001 257.87L99.7579 258.015L99.9156 258.161L100.073 258.307L100.231 258.452L100.389 258.598L100.561 258.706L100.756 258.866L100.899 259.049L101.057 259.194L101.201 259.377L101.344 259.56L101.488 259.743L101.594 259.912L101.7 260.081L101.806 260.25L101.898 260.456L101.99 260.662L102.083 260.868L102.175 261.074L102.229 261.266L102.27 261.495L102.325 261.687L102.365 261.916L102.383 262.094L102.386 262.309L102.352 262.509L102.318 262.71L102.251 263.112L102.217 263.313L102.169 263.551L101.998 263.999L101.823 263.675ZM87.1517 262.443L76.3153 258.312L81.5937 244.465L92.5045 248.625L91.3094 251.76L84.0107 248.977L83.1428 251.254L89.6968 253.753L88.5728 256.701L82.0188 254.203L81.1225 256.554L88.533 259.379L87.3379 262.514L87.1517 262.443ZM73.3362 257.177L69.873 255.856L72.9888 247.683L72.8202 247.789L72.6373 247.933L72.4687 248.04L72.3001 248.147L72.1172 248.291L71.9486 248.398L71.78 248.504L71.5971 248.648L71.4285 248.755L71.2599 248.862L71.0913 248.968L70.9084 249.112L70.7398 249.219L70.5712 249.326L70.3883 249.47L70.2197 249.577L70.0511 249.683L69.8682 249.827L69.7368 249.948L69.5682 250.055L69.3853 250.199L69.2167 250.306L69.0481 250.412L68.8652 250.556L68.6966 250.663L68.5652 250.784L68.3966 250.891L68.2137 251.035L68.0451 251.141L67.8765 251.248L67.7309 251.406L67.5622 251.513L67.3936 251.62L67.2108 251.764L67.0421 251.871L66.9677 251.842L66.9271 251.613L66.8723 251.421L66.8317 251.192L66.7769 251L66.7363 250.771L66.6815 250.579L66.6409 250.35L66.5861 250.158L66.5456 249.929L66.528 249.751L66.4874 249.522L66.4326 249.33L66.392 249.101L66.6494 248.985L66.6088 248.756L66.554 248.564L66.5134 248.335L66.4586 248.143L66.418 247.914L66.3632 247.722L66.3314 247.581L66.2766 247.39L66.236 247.16L66.1812 246.969L66.1406 246.739L66.0858 246.547L66.0453 246.318L66.0135 246.178L65.9729 245.949L65.9181 245.757L65.8775 245.528L65.8227 245.336L65.7821 245.107L65.7273 244.915L62.6257 253.051L59.0508 251.688L64.3292 237.842L68.202 239.318L68.2568 239.51L68.2974 239.739L68.3522 239.931L68.3928 240.16L68.4476 240.352L68.4882 240.581L68.543 240.773L68.5835 241.002L68.6383 241.194L68.6932 241.386L68.7337 241.615L68.7885 241.807L68.8291 242.036L68.8839 242.228L68.9245 242.457L68.9793 242.649L69.0341 242.841L69.0747 243.07L69.1295 243.262L69.1701 243.491L69.2249 243.683L69.2655 243.912L69.3203 244.104L69.3236 244.319L69.3784 244.511L69.396 244.689L69.4366 244.918L69.4914 245.11L69.5319 245.339L69.5868 245.531L69.5901 245.746L69.6449 245.938L69.6855 246.167L69.7403 246.359L69.9089 246.252L70.0918 246.108L70.2604 246.001L70.4432 245.857L70.6119 245.751L70.7947 245.607L70.9633 245.5L71.1462 245.356L71.3148 245.249L71.4462 245.128L71.6291 244.984L71.7977 244.878L71.9805 244.734L72.1492 244.627L72.332 244.483L72.5006 244.376L72.6835 244.232L72.8521 244.125L73.0207 244.019L73.2036 243.875L73.3722 243.768L73.5551 243.624L73.7237 243.517L73.9066 243.373L74.0379 243.252L74.2066 243.146L74.3894 243.002L74.558 242.895L74.7409 242.751L74.9095 242.644L75.0924 242.5L75.261 242.393L75.4439 242.249L75.6125 242.143L79.4853 243.619L74.2069 257.466L73.3362 257.177ZM53.6167 243.119L53.6134 242.904L53.6101 242.689L53.6067 242.474L53.6034 242.259L53.6 242.044L53.5967 241.829L53.5933 241.614L53.59 241.399L53.5867 241.184L53.5833 240.969L53.58 240.754L53.5766 240.539L53.5733 240.324L53.57 240.109L53.5666 239.894L53.5633 239.679L53.56 239.464L53.5566 239.249L53.5533 239.034L53.5499 238.819L53.5466 238.604L53.5433 238.389L53.3976 238.547L53.252 238.706L53.1064 238.864L52.9608 239.022L52.8152 239.18L52.6696 239.339L52.524 239.497L52.3783 239.655L52.2327 239.813L52.0871 239.972L51.9415 240.13L51.7959 240.288L51.6503 240.446L51.5047 240.604L51.359 240.763L51.2134 240.921L51.0678 241.079L50.9222 241.237L50.7766 241.396L50.631 241.554L50.4854 241.712L50.3397 241.87L50.1941 242.028L53.3966 243.249L53.6167 243.119ZM57.3609 251.087L53.6742 249.681L53.6709 249.466L53.6676 249.251L53.6642 249.036L53.6609 248.821L53.6575 248.606L53.6542 248.391L53.6509 248.176L53.6475 247.961L53.6442 247.746L53.6408 247.531L53.6375 247.316L53.6342 247.101L53.6308 246.886L53.6275 246.671L53.6241 246.456L48.2618 244.412L48.1162 244.571L47.9706 244.729L47.825 244.887L47.6793 245.045L47.5337 245.203L47.2567 245.483L47.1111 245.641L46.9655 245.799L46.8199 245.957L46.6743 246.115L46.5287 246.274L46.383 246.432L46.2374 246.59L46.0918 246.748L42.368 245.329L42.5136 245.171L42.7906 244.891L42.9362 244.733L43.0818 244.575L43.3588 244.296L43.5044 244.138L43.65 243.979L43.7956 243.821L43.9128 243.738L44.0584 243.579L44.204 243.421L44.3496 243.263L44.4953 243.105L44.6409 242.947L44.7865 242.788L44.9321 242.63L45.0777 242.472L45.2233 242.314L45.3689 242.155L45.5146 241.997L45.7916 241.718L45.9372 241.56L46.0828 241.402L46.2284 241.243L46.374 241.085L46.5196 240.927L46.6652 240.769L46.8109 240.61L46.9565 240.452L47.1021 240.294L47.2477 240.136L47.3933 239.978L47.5389 239.819L47.6845 239.661L47.8302 239.503L47.9758 239.345L48.1214 239.186L48.267 239.028L48.4126 238.87L48.5582 238.712L48.7038 238.554L48.8495 238.395L48.9951 238.237L49.1407 238.079L49.2863 237.921L49.4319 237.762L49.5775 237.604L49.7231 237.446L49.8688 237.288L50.0144 237.13L50.16 236.971L50.3056 236.813L50.4512 236.655L50.7282 236.376L50.8738 236.218L51.0194 236.059L51.1651 235.901L51.3107 235.743L51.4563 235.585L51.6019 235.426L51.7475 235.268L51.8931 235.11L52.0387 234.952L52.1844 234.794L52.2927 234.621L52.4383 234.463L52.584 234.305L52.7296 234.146L52.8752 233.988L53.0208 233.83L53.1664 233.672L53.312 233.514L53.4576 233.355L53.7346 233.076L53.8803 232.918L57.3807 234.252L57.384 234.467L57.3874 234.682L57.3907 234.897L57.394 235.112L57.3974 235.327L57.4007 235.542L57.4041 235.757L57.4074 235.972L57.4107 236.187L57.4141 236.402L57.4174 236.617L57.4208 236.832L57.4241 237.047L57.4274 237.262L57.4308 237.477L57.4341 237.692L57.4375 237.907L57.4408 238.122L57.4441 238.337L57.4475 238.552L57.4508 238.767L57.4542 238.982L57.4575 239.197L57.4608 239.412L57.4642 239.627L57.4675 239.842L57.4709 240.057L57.4742 240.272L57.4775 240.487L57.4809 240.702L57.5018 241.095L57.5051 241.31L57.5085 241.525L57.5118 241.74L57.5152 241.955L57.5185 242.17L57.5218 242.385L57.5252 242.6L57.5285 242.815L57.5319 243.03L57.5352 243.245L57.5385 243.46L57.5419 243.675L57.5452 243.89L57.5486 244.105L57.5519 244.32L57.5552 244.535L57.5586 244.75L57.5619 244.965L57.5653 245.18L57.5686 245.395L57.5719 245.61L57.5753 245.825L57.5786 246.04L57.582 246.255L57.5853 246.47L57.5886 246.685L57.592 246.9L57.5953 247.115L57.5987 247.33L57.602 247.545L57.6053 247.76L57.6087 247.975L57.612 248.19L57.6154 248.405L57.6187 248.62L57.622 248.835L57.6254 249.05L57.6287 249.265L57.6321 249.48L57.6354 249.695L57.6387 249.91L57.6421 250.125L57.6454 250.34L57.6488 250.555L57.6521 250.77L57.6554 250.985L57.6763 251.378L57.3609 251.087ZM41.5099 242.993L41.3182 243.048L41.1266 243.103L40.935 243.158L40.7433 243.213L40.5517 243.269L40.36 243.324L40.1684 243.379L39.9395 243.42L39.7107 243.461L39.4818 243.502L39.2671 243.506L39.0383 243.547L38.8236 243.55L38.609 243.554L38.3943 243.558L38.1797 243.561L37.965 243.565L37.7504 243.569L37.5357 243.572L37.3211 243.576L37.1064 243.58L36.906 243.546L36.7056 243.512L36.5052 243.479L36.3048 243.445L36.1043 243.411L35.8667 243.363L35.6663 243.33L35.4286 243.282L35.2282 243.248L34.9905 243.2L34.3947 242.973L34.2227 242.865L34.0135 242.743L33.8416 242.634L33.6696 242.526L33.4976 242.418L33.3257 242.309L33.1537 242.201L32.9817 242.093L32.8098 241.984L32.6378 241.876L32.4658 241.768L32.3081 241.622L32.1504 241.477L31.9926 241.331L31.8349 241.185L31.6772 241.04L31.5194 240.894L31.3617 240.749L31.2182 240.566L31.0977 240.434L30.9542 240.251L30.8479 240.082L30.7416 239.914L30.6353 239.745L30.5291 239.576L30.4228 239.407L30.3165 239.239L30.2103 239.07L30.1182 238.864L30.0119 238.695L29.9199 238.489L29.8278 238.283L29.773 238.091L29.7182 237.899L29.6634 237.707L29.6086 237.515L29.5538 237.324L29.499 237.132L29.4814 236.954L29.4409 236.725L29.3861 236.533L29.3827 236.318L29.3794 236.103L29.376 235.888L29.3727 235.673L29.3551 235.495L29.3518 235.28L29.3857 235.079L29.3824 234.864L29.4163 234.664L29.4129 234.449L29.4468 234.248L29.5179 234.061L29.5518 233.86L29.623 233.674L29.6569 233.473L30.2687 231.868L30.3913 231.658L30.4996 231.486L30.608 231.314L30.7164 231.141L30.862 230.983L30.9704 230.81L31.116 230.652L31.2616 230.494L31.4072 230.336L31.5528 230.178L31.6984 230.019L31.8441 229.861L31.9897 229.703L32.1353 229.545L32.3181 229.401L32.4868 229.294L32.6182 229.173L32.7868 229.066L32.9554 228.96L33.124 228.853L33.2927 228.746L33.4613 228.639L33.6299 228.533L33.8358 228.44L34.0044 228.334L34.2103 228.241L34.4161 228.149L34.6078 228.093L34.8136 228.001L35.0053 227.946L35.1969 227.89L35.3885 227.835L35.5802 227.78L35.7718 227.725L35.9634 227.67L36.1923 227.629L36.4212 227.588L36.6501 227.547L36.8647 227.543L37.0794 227.539L37.3082 227.498L37.4857 227.481L37.7003 227.477L37.9149 227.473L38.1154 227.507L38.33 227.503L38.5304 227.537L38.7451 227.533L38.9455 227.567L39.1459 227.6L39.3463 227.634L39.5468 227.668L39.7472 227.701L39.9476 227.735L40.148 227.769L40.93 228.067L41.1392 228.189L41.3484 228.312L41.5346 228.383L41.7066 228.491L41.9158 228.614L42.0878 228.722L42.2597 228.83L42.4317 228.939L42.6037 229.047L42.7756 229.155L42.9476 229.263L43.1053 229.409L43.2773 229.517L43.3978 229.649L43.5555 229.794L43.8338 230.071L43.9915 230.217L44.135 230.4L44.2928 230.546L44.399 230.714L44.5425 230.897L44.6488 231.066L44.7923 231.249L44.8986 231.418L45.0049 231.587L45.1111 231.755L45.2174 231.924L45.3095 232.13L45.4157 232.299L45.2471 232.406L45.0412 232.498L44.8726 232.605L44.6667 232.697L44.4981 232.804L44.3295 232.911L44.1236 233.003L43.955 233.11L43.7864 233.217L43.5805 233.309L43.4119 233.416L43.206 233.508L43.0374 233.615L42.8688 233.722L42.6629 233.814L42.4943 233.921L42.2884 234.013L42.1198 234.12L42.0135 233.951L41.9215 233.745L41.8152 233.577L41.7089 233.408L41.6027 233.239L41.4964 233.07L41.3901 232.902L41.2466 232.719L41.1261 232.587L41.0056 232.456L40.8851 232.324L40.7274 232.179L40.5696 232.033L40.3977 231.925L40.2257 231.817L40.0537 231.708L39.8818 231.6L39.6726 231.477L39.4634 231.355L39.0537 231.199L38.8533 231.165L38.6529 231.131L38.4525 231.098L38.2521 231.064L38.0374 231.068L37.8228 231.072L37.5031 231.463L37.2884 231.466L37.0968 231.521L36.9052 231.577L36.7135 231.632L36.5219 231.687L36.3303 231.742L36.1386 231.797L35.97 231.904L35.7641 231.997L35.5955 232.103L35.4269 232.21L35.2583 232.317L35.1126 232.475L34.944 232.582L34.7984 232.74L34.6528 232.898L34.5072 233.056L34.3616 233.215L34.2532 233.387L34.1448 233.559L34.0222 233.769L33.4958 235.15L33.4619 235.351L33.428 235.552L33.3941 235.753L33.3974 235.968L33.6493 235.978L33.6527 236.193L33.656 236.408L33.6966 236.637L33.769 237.007L33.8238 237.199L33.8786 237.391L33.9706 237.597L34.0254 237.789L34.1317 237.957L34.238 238.126L34.3442 238.295L34.4505 238.464L34.5568 238.632L34.7145 238.778L34.8723 238.924L35.03 239.069L35.1877 239.215L35.3455 239.36L35.5174 239.469L35.6894 239.577L35.8614 239.685L36.0706 239.808L36.4057 239.936L36.6434 239.983L36.881 240.031L37.0814 240.065L37.2819 240.099L37.4823 240.132L37.6827 240.166L37.8831 240.2L38.0978 240.196L38.2752 240.178L38.4898 240.174L38.6672 240.156L38.8589 240.101L39.5702 238.235L36.8146 237.185L37.8674 234.423L44.0118 236.765L41.65 242.961L41.5099 242.993ZM51.9722 197.31L60.1647 200.433L62.5834 194.088L54.3909 190.965L59.3278 178.014L67.8554 181.264L70.2741 174.92L54.7829 169.014L37.3258 214.809L52.9288 220.757L55.3474 214.412L46.7081 211.119L51.9722 197.31ZM110.059 221.034L106.118 231.372C105.421 233.201 104.237 233.733 102.487 233.066L101.184 232.569C99.3592 231.874 98.8299 230.689 99.5271 228.86L110.553 199.935C111.25 198.106 112.434 197.574 114.259 198.269L115.413 198.709C117.163 199.377 117.693 200.562 116.996 202.39L113.581 211.348L120.396 213.946L123.967 204.578C126.129 198.904 124.464 195.106 118.803 192.949L115.415 191.657C109.755 189.499 105.895 191.234 103.718 196.944L92.4497 226.504C90.2729 232.214 91.9987 236.078 97.659 238.236L101.085 239.542C106.745 241.699 110.605 239.965 112.782 234.254L116.851 223.58L110.074 220.997M96.2294 184.814L103.193 187.468L85.7359 233.263L78.7723 230.609L96.2294 184.814ZM78.3838 201.308C77.6866 203.136 76.5029 203.668 74.7527 203.001L71.8853 201.908L78.3161 185.038L81.1835 186.131C82.9337 186.798 83.463 187.983 82.7658 189.812L78.3838 201.308ZM84.6482 180.399L73.7373 176.24L56.2802 222.035L63.2439 224.689L69.5751 208.081L73.5223 209.585C79.1826 211.743 83.0425 210.008 85.2193 204.298L89.8575 192.131C92.0343 186.42 90.3084 182.557 84.6482 180.399ZM37.9326 262.446L77.7406 277.621L54.8846 276.603L37.9326 262.446Z" fill="white"/>
</g>
<path d="M78 24.4156L130.538 12.7891L142.152 65.2682L89.6134 76.8947L78 24.4156Z" fill="#723D91"/>
<path d="M135.792 11.6265L188.331 -5.96126e-05L199.944 52.479L147.406 64.1056L135.792 11.6265Z" fill="#683885"/>
<path d="M90.7747 82.1426L143.313 70.5161L154.927 122.995L102.388 134.622L90.7747 82.1426Z" fill="#A558D1"/>
<path d="M148.567 69.3535L201.106 57.727L212.719 110.206L160.18 121.833L148.567 69.3535Z" fill="#542D6B"/>
<path d="M124.571 168.33C122.657 175.121 122.68 180.756 123.741 184.46C125.134 189.312 128.455 192.138 132.344 193.234C137.36 194.648 142.298 194.698 154.584 184.974C164.428 177.18 176.648 165.789 184.693 158.756L198.318 146.84C207.783 138.564 218.606 129.45 229.528 124.283C238.443 120.066 247.141 118.779 254.912 120.969C267.959 124.646 278.258 135.701 283.777 152.546C289.814 170.992 289.36 191.955 283.676 212.119C280.298 224.106 275.45 232.247 269.464 238.071C263.678 243.704 254.204 248.291 241.454 244.698L246.862 225.511C257.779 228.588 263.328 219.336 266.56 207.869C271.166 191.528 272.463 172.318 267.712 156.991C264.34 146.119 258.195 138.325 249.693 135.929C240.498 133.337 231.145 138.179 219.348 148.187C213.077 153.503 206.284 160.221 198.644 167.809L190.236 176.155C173.341 192.938 169.205 196.68 161.455 202.594C147.876 212.948 138.039 215.55 126.936 212.42C113.765 208.708 107.043 200.664 104.304 190.625C102.065 182.443 102.584 172.681 105.532 162.222L124.571 168.33Z" fill="#A558D1"/>
<path d="M135.96 112.345C148.604 101.254 164.005 95.3462 178.6 99.4598C187.052 101.842 194.75 106.709 201.508 116.339C208.9 126.868 215.498 142.635 222.276 167.466L224.704 176.376C230.57 197.872 234.189 209.1 236.61 214.597C239.727 221.657 242.559 224.298 246.862 225.511C257.779 228.588 263.328 219.336 266.56 207.869L283.676 212.119C280.298 224.106 275.45 232.247 269.464 238.071C263.678 243.704 254.204 248.291 241.454 244.698C233.528 242.464 226.991 238.765 221.288 229.259C216.902 221.961 212.736 210.017 209.895 199.535L201.435 168.389C197.192 152.758 192.652 140.716 189.67 135.002C186.463 128.856 182.233 121.335 172.846 118.689C165.248 116.547 157.295 120.054 149.599 126.678L135.96 112.345Z" fill="url(#paint0_linear_93_2)"/>
<path d="M172.846 118.689C165.248 116.547 157.295 120.054 149.599 126.678C138.72 136.037 129.212 151.865 124.571 168.33C122.657 175.121 122.68 180.756 123.741 184.46L104.304 190.625C102.065 182.443 102.584 172.681 105.532 162.222C110.893 143.203 121.706 124.852 135.96 112.345C148.604 101.254 164.005 95.3462 178.6 99.4599L172.846 118.689Z" fill="url(#paint1_linear_93_2)"/>
<path d="M331.168 224.945C329.492 221.279 327.576 217.947 325.47 214.814L272.967 238.81L282.533 259.741L312.595 246.002C314.387 253.486 313.089 261.092 309.038 267.713L315.401 281.636L333.336 273.439C339.403 258.94 338.91 241.885 331.168 224.945Z" fill="#A558D1"/>
<path d="M302.663 303.784C317.717 296.904 328.018 286.137 333.336 273.439L309.038 267.713C305.547 273.348 300.115 278.299 292.588 281.739C278.045 288.386 261.257 284.221 250.797 273.012L232.305 281.464L238.86 295.804C256.328 309.814 280.872 313.744 302.663 303.784Z" fill="#683885"/>
<path d="M250.797 273.012C248.109 270.201 245.871 266.903 244.174 263.191C242.477 259.478 241.495 255.607 241.082 251.756L234.528 237.415L216.036 245.867C215.662 255.127 217.339 264.571 221.454 273.575C225.569 282.579 231.613 290.027 238.86 295.804L250.797 273.012Z" fill="#542D6B"/>
<path d="M261.831 214.445C270.055 210.686 278.69 210.162 287.022 213.03L295.657 189.895C281.925 185.287 266.809 185.52 251.755 192.4C229.964 202.36 216.874 223.491 216.036 245.867L241.082 251.756C239.451 236.512 247.288 221.092 261.831 214.445Z" fill="#723D91"/>
<defs>
<linearGradient id="paint0_linear_93_2" x1="144.673" y1="168.013" x2="265.53" y2="208.769" gradientUnits="userSpaceOnUse">
<stop stop-color="#723D91"/>
<stop offset="0.333333" stop-color="#723D91"/>
<stop offset="0.666667" stop-color="#542D6B"/>
<stop offset="1" stop-color="#A558D1"/>
</linearGradient>
<linearGradient id="paint1_linear_93_2" x1="130.93" y1="178.828" x2="143.656" y2="133.676" gradientUnits="userSpaceOnUse">
<stop stop-color="#A558D1"/>
<stop offset="1" stop-color="#723D91"/>
</linearGradient>
<clipPath id="clip0_93_2">
<rect width="110" height="128.615" fill="white" transform="translate(45.8123 147) rotate(20.8668)"/>
</clipPath>
</defs>
</svg>
