<svg width="376" height="376" viewBox="0 0 376 376" fill="none" xmlns="http://www.w3.org/2000/svg">
<path d="M327.977 63.7621C302.011 41.9541 258.297 38.5926 226.164 50.2261C202.228 58.9117 183.691 78.2757 160.74 89.3301C144.557 97.0982 126.689 100.49 109.439 105.491C90.7363 110.912 72.7861 117.914 60.4984 133.841C46.8947 151.468 43.2776 174.742 49.5192 195.949C56.0541 218.14 72.2897 236.707 91.9094 248.957C111.529 261.207 134.367 267.539 157.333 270.494C188.399 274.48 220.599 272.427 250.04 261.696C282.376 249.882 309.643 227.563 326.142 197.114C340.761 170.125 353.312 131.728 348.913 100.745C346.822 86.0213 339.287 73.2674 327.977 63.7621Z" fill="#03738C"/>
<path opacity="0.7" d="M327.977 63.7621C302.011 41.9541 258.297 38.5926 226.164 50.2261C202.228 58.9117 183.691 78.2757 160.74 89.3301C144.557 97.0982 126.689 100.49 109.439 105.491C90.7363 110.912 72.7861 117.914 60.4984 133.841C46.8947 151.468 43.2776 174.742 49.5192 195.949C56.0541 218.14 72.2897 236.707 91.9094 248.957C111.529 261.207 134.367 267.539 157.333 270.494C188.399 274.48 220.599 272.427 250.04 261.696C282.376 249.882 309.643 227.563 326.142 197.114C340.761 170.125 353.312 131.728 348.913 100.745C346.822 86.0213 339.287 73.2674 327.977 63.7621Z" fill="white"/>
<path d="M185.391 327.917C269.438 327.917 337.573 318.207 337.573 306.23C337.573 294.252 269.438 284.542 185.391 284.542C101.343 284.542 33.2083 294.252 33.2083 306.23C33.2083 318.207 101.343 327.917 185.391 327.917Z" fill="#03738C"/>
<path opacity="0.5" d="M185.391 327.917C269.438 327.917 337.573 318.207 337.573 306.23C337.573 294.252 269.438 284.542 185.391 284.542C101.343 284.542 33.2083 294.252 33.2083 306.23C33.2083 318.207 101.343 327.917 185.391 327.917Z" fill="white"/>
<path d="M342.16 224.096C339.609 224.771 337.312 226.178 335.55 228.142C334.009 229.788 332.669 231.61 331.557 233.571C330.805 234.812 330.181 236.098 329.579 237.399C329.188 238.248 328.887 239.309 328.519 240.279C327.985 241.144 327.451 242.031 327.015 242.858C328.609 237.105 333.783 226.517 333.85 223.509C333.956 220.231 330.842 225.104 329.068 231.781C328.075 235.558 327.322 239.393 326.812 243.264C326.631 243.61 326.473 243.934 326.33 244.242C326.007 244.911 325.458 246.047 324.729 247.536C326.33 242.648 326.909 236.85 325.947 236.128C324.548 235.09 324.044 237.632 324.052 242.339C323.915 245.701 323.362 249.033 322.405 252.258C321.525 253.995 320.54 255.913 319.487 257.936C320.593 254.416 321.232 249.348 321.833 245.55C322.713 240.023 322.337 238.301 320.548 240.956C318.758 243.61 319.044 247.46 319.495 252.168C319.647 255.177 319.101 258.18 317.9 260.944C316.554 263.501 315.126 266.148 313.682 268.75C314.907 266.083 315.682 263.232 315.975 260.312C316.6 253.928 315.78 248.062 314.298 249.724C312.817 251.386 313.697 255.83 313.501 261.237C313.394 264.52 313.024 267.789 312.396 271.013L311.945 271.81C312.539 269.065 312.696 266.243 312.411 263.448C312.704 262.38 312.599 261.696 312.245 261.372C312.193 260.169 312.291 258.364 311.779 257.44C310.486 255.131 309.072 258.237 309.057 259.462C309.058 260.401 309.124 261.338 309.252 262.267C308.749 262.736 308.313 263.272 307.959 263.862C307.764 264.192 307.56 264.553 307.342 264.952C307.342 264.568 307.388 264.155 307.403 263.786C307.47 262.745 307.252 261.705 306.771 260.778C307.547 259.228 308.107 257.578 308.433 255.875C308.584 255.312 308.544 254.714 308.32 254.176C308.245 254.01 308.138 253.86 308.006 253.735C307.873 253.61 307.717 253.513 307.546 253.449C307.376 253.384 307.194 253.355 307.012 253.361C306.83 253.367 306.651 253.409 306.485 253.484C306.405 253.522 306.327 253.565 306.252 253.612C303.8 254.913 303.146 258.041 302.86 260.553C302.591 262.719 302.154 264.861 301.552 266.96C301.048 268.847 300.604 270.554 300.319 271.743C300.124 270.475 299.858 269.22 299.522 267.983C299.243 266.952 298.98 265.96 298.724 264.975C298.489 261.491 299.171 258.006 300.702 254.868C303.605 248.897 305.703 246.084 303.71 245.987C301.717 245.889 298.777 248.995 298.364 253.913C298.053 256.893 297.99 259.893 298.176 262.884C297.536 260.628 296.905 258.44 296.25 256.244C295.745 253.819 295.869 251.305 296.611 248.942C297.98 244.889 302.071 237.662 299.92 238.256C297.769 238.85 295.183 243.001 294.889 247.423C294.811 249.733 295.065 252.043 295.641 254.281C295.175 252.747 294.674 251.153 294.137 249.498C293.912 248.746 293.671 247.994 293.438 247.242C293.447 247.107 293.426 246.971 293.378 246.844C293.078 244.559 293.49 242.238 294.558 240.196C296.619 236.496 300.447 233.315 298.191 232.466C295.935 231.616 292.528 237.632 292.325 240.64C292.28 241.785 292.37 242.931 292.596 244.054L292.317 243.355C291.829 241.625 291.355 239.918 290.941 238.406C290.852 236.174 291.301 233.954 292.25 231.932C294.265 227.314 296.822 222.043 294.212 223.381C292.107 224.472 289.836 230.691 290.28 235.947C290.107 235.256 289.941 234.669 289.813 234.188C289.475 231.18 288.828 224.096 289.813 219.9C290.46 217.087 291.52 214.418 291.844 211.522C291.909 211.201 291.886 210.869 291.776 210.56C291.069 208.815 288.768 212.214 288.422 212.771C287.017 215.009 286.298 217.611 286.354 220.253C286.356 222.505 286.623 224.749 287.151 226.938C287.472 228.337 287.861 229.721 288.317 231.089C288.603 231.969 289.114 232.954 289.505 233.909C289.7 234.91 289.919 235.925 290.152 236.835C287.392 231.496 283.895 220.223 281.94 217.929C279.782 215.47 280.827 221.193 284.06 227.247C285.92 230.705 287.995 234.043 290.272 237.241C290.377 237.617 290.483 237.993 290.588 238.286C290.806 238.993 291.182 240.204 291.663 241.79C289.467 237.151 285.963 232.488 284.767 232.616C283.045 232.812 284.414 235.015 287.625 238.452C289.805 241.001 291.661 243.809 293.152 246.814C293.694 248.694 294.288 250.754 294.897 252.95C293.295 249.626 290.302 245.483 288.129 242.302C285 237.662 283.549 236.654 284.053 239.813C284.557 242.971 287.407 245.58 290.949 248.731C293.101 250.839 294.743 253.411 295.747 256.251C296.499 259.034 297.251 261.944 298.003 264.839C297.079 262.051 295.702 259.434 293.927 257.094C290.016 251.988 285.414 248.265 285.467 250.484C285.519 252.702 289.189 255.364 292.754 259.425C294.916 261.891 296.871 264.532 298.597 267.321C298.672 267.607 298.74 267.9 298.807 268.186C297.213 265.26 294.664 262.876 292.19 260.666C291.317 259.868 290.001 258.192 288.881 257.831C286.369 257.033 287.452 260.267 288.279 261.169C290.964 264.102 294.746 265.915 297.228 269.005C298.164 270.167 299.002 271.404 299.732 272.705C299.905 273.72 300.033 274.668 300.138 275.555C299.186 274.653 298.183 273.801 297.13 272.998C294.122 270.96 292.34 268.156 290.001 265.478C289.302 264.681 288.114 263.689 286.993 263.636C285.399 263.568 284.925 265.238 285.399 266.554C287.241 271.976 294.175 272.216 298.243 275.036C298.985 275.511 299.672 276.069 300.289 276.698C300.462 278.372 300.507 280.056 300.424 281.737H291.099V285.624H293.867L296.123 299.461H314.765L317.021 285.624H319.788V281.737H305.808C306.448 280.94 307.132 280.142 307.824 279.232L310.772 279.323C310.772 279.323 321.021 279.766 324.781 277.721C328.541 275.676 325.187 273.735 321.585 274.781C317.983 275.826 310.914 278.992 309.35 278.992L308.027 278.954C308.779 277.999 309.531 277.014 310.192 276.006C313.015 275.297 315.79 274.413 318.502 273.359C321.442 272.194 324.887 271.254 327.391 269.276C327.877 268.955 328.247 268.486 328.444 267.937C328.558 267.588 328.53 267.208 328.365 266.88C328.2 266.552 327.912 266.302 327.564 266.185C327.483 266.158 327.4 266.138 327.316 266.125C324.631 265.373 322.014 267.238 320.134 268.877C318.479 270.279 316.719 271.551 314.87 272.683C313.208 273.705 311.719 274.668 310.711 275.322C311.463 274.217 312.14 273.111 312.719 272.036C313.223 271.088 313.712 270.186 314.171 269.306C316.385 266.612 319.261 264.538 322.518 263.29C328.714 260.899 332.151 260.282 330.79 258.846C329.429 257.409 325.12 257.673 321.465 260.989C319.199 262.954 317.101 265.105 315.193 267.419C316.284 265.313 317.306 263.298 318.322 261.252C319.613 259.132 321.425 257.377 323.586 256.154C327.346 254.138 335.257 251.642 333.294 250.611C331.331 249.581 326.594 250.837 323.375 253.875C321.738 255.512 320.346 257.376 319.239 259.41C319.946 257.958 320.668 256.462 321.427 254.898C321.751 254.206 322.104 253.499 322.465 252.762C322.54 252.649 322.623 252.544 322.691 252.424C324.033 250.55 325.921 249.137 328.098 248.378C332.091 247.077 337.122 247.363 336.024 245.182C334.926 243.001 328.338 245.092 326.135 247.16C325.325 247.972 324.608 248.872 323.999 249.844C324.097 249.619 324.195 249.378 324.285 249.137C325.082 247.543 325.879 245.949 326.676 244.625C328.127 242.927 329.97 241.608 332.046 240.783C336.67 238.79 342.145 236.677 339.317 235.872C337.061 235.225 331.121 238.218 327.872 242.369L328.729 240.775C330.534 238.331 334.896 232.714 338.505 230.3C340.897 228.698 343.491 227.45 345.687 225.555C345.928 225.374 346.124 225.14 346.258 224.87C346.845 223.036 342.867 223.968 342.16 224.096ZM300.439 272.472C301.041 271.555 302.101 269.863 303.274 267.689C303.635 268.68 304.047 269.651 304.507 270.6C303.424 272.856 302.432 274.766 301.86 275.262L300.868 276.134C300.8 274.946 300.627 273.728 300.454 272.502L300.439 272.472ZM307.207 278.932C306.479 279.899 305.696 280.823 304.861 281.699H301.251C301.199 280.195 301.093 278.398 300.92 276.435L303.139 274.48C303.139 274.48 304.109 273.683 305.395 272.397C306.025 273.637 306.515 274.943 306.854 276.292C307.093 277.173 307.222 278.08 307.237 278.992L307.207 278.932ZM310.215 271.254C310.109 272.744 309.877 274.224 309.523 275.676C308.959 276.54 308.403 277.322 307.876 278.067C307.831 276.728 307.47 274.307 307.433 274.141C307.185 273.058 307.049 271.952 307.027 270.84C308.088 269.748 309.092 268.601 310.035 267.404C310.248 268.685 310.321 269.986 310.253 271.284L310.215 271.254Z" fill="#263238"/>
<path d="M315.84 77.2753V223.344C315.84 227.104 313.035 230.112 309.553 230.112H44.9846C41.5104 230.112 38.6904 227.104 38.6904 223.344V77.2753C38.6904 73.5153 41.5104 70.5073 44.9846 70.5073H309.576C313.058 70.5148 315.84 73.5379 315.84 77.2753Z" fill="white" stroke="#263238" stroke-width="1.06897" stroke-linecap="round" stroke-linejoin="round"/>
<path d="M115.048 96.0977H53.3845C50.7721 96.0977 48.6544 98.2154 48.6544 100.828V204.807C48.6544 207.419 50.7721 209.537 53.3845 209.537H115.048C117.661 209.537 119.779 207.419 119.779 204.807V100.828C119.779 98.2154 117.661 96.0977 115.048 96.0977Z" fill="#03738C"/>
<path d="M75.3429 121.29C75.3429 123.448 74.7029 125.558 73.504 127.352C72.305 129.146 70.6008 130.545 68.607 131.371C66.6132 132.197 64.4193 132.413 62.3026 131.992C60.186 131.571 58.2418 130.532 56.7158 129.006C55.1898 127.48 54.1505 125.535 53.7295 123.419C53.3085 121.302 53.5246 119.108 54.3504 117.114C55.1763 115.12 56.5749 113.416 58.3692 112.217C60.1636 111.018 62.2733 110.378 64.4314 110.378C65.8646 110.377 67.2839 110.659 68.6082 111.207C69.9325 111.755 71.1358 112.559 72.1492 113.572C73.1626 114.586 73.9663 115.789 74.5143 117.113C75.0623 118.437 75.3439 119.857 75.3429 121.29Z" fill="white" stroke="#263238" stroke-width="1.06897" stroke-linecap="round" stroke-linejoin="round"/>
<path d="M109.108 115.018H86.3296V117.176H109.108V115.018Z" fill="#263238"/>
<path d="M111.89 120.207H86.3296V122.365H111.89V120.207Z" fill="#263238"/>
<path d="M109.108 125.396H86.3296V127.554H109.108V125.396Z" fill="#263238"/>
<path d="M113.356 130.577H86.3296V132.735H113.356V130.577Z" fill="#263238"/>
<path d="M107.859 144.963H60.4758C58.2539 144.963 56.4526 146.764 56.4526 148.986V158.732C56.4526 160.954 58.2539 162.755 60.4758 162.755H107.859C110.081 162.755 111.883 160.954 111.883 158.732V148.986C111.883 146.764 110.081 144.963 107.859 144.963Z" fill="white" stroke="#263238" stroke-width="1.06897" stroke-linecap="round" stroke-linejoin="round"/>
<path d="M107.859 168.673H60.4758C58.2539 168.673 56.4526 170.475 56.4526 172.697V182.442C56.4526 184.664 58.2539 186.466 60.4758 186.466H107.859C110.081 186.466 111.883 184.664 111.883 182.442V172.697C111.883 170.475 110.081 168.673 107.859 168.673Z" fill="white" stroke="#263238" stroke-width="1.06897" stroke-linecap="round" stroke-linejoin="round"/>
<path d="M231.488 95.7744V216.433" stroke="#263238" stroke-width="1.06897" stroke-linecap="round" stroke-linejoin="round"/>
<path d="M315.84 76.8164V86.5924H38.6904V76.8164C38.6904 75.1464 39.3533 73.5446 40.5335 72.3631C41.7137 71.1815 43.3146 70.5166 44.9846 70.5146H309.576C311.242 70.5206 312.837 71.1877 314.012 72.3693C315.186 73.5509 315.844 75.1504 315.84 76.8164Z" fill="#263238"/>
<path d="M57.6408 81.0579C59.0321 81.0579 60.16 79.9301 60.16 78.5387C60.16 77.1474 59.0321 76.0195 57.6408 76.0195C56.2495 76.0195 55.1216 77.1474 55.1216 78.5387C55.1216 79.9301 56.2495 81.0579 57.6408 81.0579Z" fill="white"/>
<path d="M71.7934 78.5387C71.7934 79.037 71.6457 79.524 71.3689 79.9383C71.0921 80.3526 70.6986 80.6755 70.2383 80.8662C69.778 81.0568 69.2714 81.1067 68.7828 81.0095C68.2941 80.9123 67.8452 80.6724 67.4929 80.3201C67.1406 79.9678 66.9006 79.5189 66.8034 79.0302C66.7062 78.5415 66.7561 78.035 66.9468 77.5747C67.1375 77.1144 67.4604 76.7209 67.8746 76.4441C68.2889 76.1673 68.776 76.0195 69.2742 76.0195C69.9424 76.0195 70.5831 76.2849 71.0556 76.7574C71.528 77.2298 71.7934 77.8706 71.7934 78.5387Z" fill="white"/>
<path d="M83.284 78.5387C83.284 79.037 83.1363 79.524 82.8594 79.9383C82.5826 80.3526 82.1892 80.6755 81.7289 80.8662C81.2685 81.0568 80.762 81.1067 80.2733 81.0095C79.7847 80.9123 79.3358 80.6724 78.9835 80.3201C78.6311 79.9678 78.3912 79.5189 78.294 79.0302C78.1968 78.5415 78.2467 78.035 78.4374 77.5747C78.628 77.1144 78.9509 76.7209 79.3652 76.4441C79.7795 76.1673 80.2666 76.0195 80.7648 76.0195C81.4329 76.0195 82.0737 76.2849 82.5461 76.7574C83.0186 77.2298 83.284 77.8706 83.284 78.5387Z" fill="white"/>
<path d="M302.718 106.979H242.212V108.987H302.718V106.979Z" fill="#03738C"/>
<path d="M271.434 113.244H242.212V115.251H271.434V113.244Z" fill="#03738C"/>
<path d="M288.986 119.508H242.212V121.516H288.986V119.508Z" fill="#03738C"/>
<path d="M283.993 125.591H242.212V127.772H283.993V125.591Z" fill="#03738C"/>
<path d="M282.684 132.036H242.212V134.044H282.684V132.036Z" fill="#03738C"/>
<path d="M268.509 138.3H242.212V140.308H268.509V138.3Z" fill="#03738C"/>
<path opacity="0.2" d="M302.718 106.979H242.212V108.987H302.718V106.979Z" fill="black"/>
<path opacity="0.2" d="M271.434 113.244H242.212V115.251H271.434V113.244Z" fill="black"/>
<path opacity="0.2" d="M288.986 119.508H242.212V121.516H288.986V119.508Z" fill="black"/>
<path opacity="0.2" d="M283.993 125.591H242.212V127.772H283.993V125.591Z" fill="black"/>
<path opacity="0.2" d="M282.684 132.036H242.212V134.044H282.684V132.036Z" fill="black"/>
<path opacity="0.2" d="M268.509 138.3H242.212V140.308H268.509V138.3Z" fill="black"/>
<path d="M64.4314 127.088C67.891 127.088 70.6955 124.283 70.6955 120.824C70.6955 117.364 67.891 114.56 64.4314 114.56C60.9718 114.56 58.1672 117.364 58.1672 120.824C58.1672 124.283 60.9718 127.088 64.4314 127.088Z" fill="#263238"/>
<path d="M70.688 130.246C68.7999 131.551 66.5484 132.229 64.2534 132.181C61.9585 132.134 59.7368 131.365 57.904 129.983C58.9342 127.915 60.912 124.719 63.4237 124.719C66.567 124.674 68.7102 126.057 70.688 130.246Z" fill="#263238"/>
<path d="M298.454 75.0571H238.098C236.375 75.0571 234.977 76.4544 234.977 78.1779V78.8998C234.977 80.6234 236.375 82.0207 238.098 82.0207H298.454C300.177 82.0207 301.575 80.6234 301.575 78.8998V78.1779C301.575 76.4544 300.177 75.0571 298.454 75.0571Z" fill="white"/>
<path d="M238.925 76.2451V80.6669" stroke="#263238" stroke-width="1.06897" stroke-linecap="round" stroke-linejoin="round"/>
<path d="M107.889 193.113H92.7893C91.1488 193.113 89.8189 194.443 89.8189 196.084V199.896C89.8189 201.537 91.1488 202.867 92.7893 202.867H107.889C109.53 202.867 110.86 201.537 110.86 199.896V196.084C110.86 194.443 109.53 193.113 107.889 193.113Z" fill="#03738C"/>
<path d="M303.455 193.257H247.288V163.823" stroke="#263238" stroke-width="1.06897" stroke-linecap="round" stroke-linejoin="round"/>
<path d="M249.559 181.119L251.973 186.511L264.644 169.741L267.291 177.833L272.299 175.02L283.872 186.511L292.513 178.54L295.852 182.051L301.612 170.726" stroke="#263238" stroke-width="1.06897" stroke-linecap="round" stroke-linejoin="round"/>
<path d="M245.972 191.406H241.903V193.249H245.972V191.406Z" fill="#03738C"/>
<path d="M245.972 184.668H241.903V186.511H245.972V184.668Z" fill="#03738C"/>
<path d="M245.972 177.923H241.903V179.765H245.972V177.923Z" fill="#03738C"/>
<path d="M245.972 171.178H241.903V173.02H245.972V171.178Z" fill="#03738C"/>
<path d="M245.972 164.439H241.903V166.282H245.972V164.439Z" fill="#03738C"/>
<path d="M274.713 194.738V206.356H276.525V194.738H274.713Z" fill="#03738C"/>
<path d="M281.165 194.738V206.356H282.978V194.738H281.165Z" fill="#03738C"/>
<path d="M287.617 194.745V206.364H289.43V194.745H287.617Z" fill="#03738C"/>
<path d="M294.07 194.745V206.364H295.882V194.745H294.07Z" fill="#03738C"/>
<path d="M300.522 194.745V206.364H302.334V194.745H300.522Z" fill="#03738C"/>
<path d="M268.095 194.745V206.364H269.908V194.745H268.095Z" fill="#03738C"/>
<path d="M261.478 194.745V206.364H263.29V194.745H261.478Z" fill="#03738C"/>
<path d="M254.853 194.738V206.356H256.665V194.738H254.853Z" fill="#03738C"/>
<path d="M248.235 194.745V206.364H250.047V194.745H248.235Z" fill="#03738C"/>
<path d="M196.761 101.061C193.757 101.061 190.877 102.254 188.753 104.378C186.629 106.502 185.436 109.383 185.436 112.386C185.436 115.39 186.629 118.27 188.753 120.394C190.877 122.518 193.757 123.711 196.761 123.711C198.248 123.741 199.727 123.478 201.112 122.937C202.498 122.396 203.763 121.587 204.836 120.556C205.909 119.526 206.768 118.294 207.365 116.932C207.962 115.569 208.285 114.103 208.315 112.616C208.345 111.128 208.082 109.65 207.541 108.264C207 106.879 206.191 105.613 205.16 104.54C204.13 103.467 202.898 102.608 201.536 102.011C200.173 101.414 198.707 101.091 197.22 101.061H196.761Z" fill="#263238"/>
<path d="M203.942 108.754C203.859 108.435 203.693 108.143 203.46 107.91C203.228 107.676 202.937 107.508 202.619 107.423C201.446 107.107 196.753 107.107 196.753 107.107C196.753 107.107 192.061 107.107 190.895 107.423C190.576 107.507 190.284 107.675 190.05 107.909C189.816 108.143 189.649 108.434 189.564 108.754C189.15 111.16 189.15 113.619 189.564 116.026C189.649 116.345 189.816 116.637 190.05 116.871C190.284 117.104 190.576 117.272 190.895 117.357C192.061 117.673 196.753 117.673 196.753 117.673C196.753 117.673 201.446 117.673 202.619 117.357C202.937 117.27 203.226 117.102 203.459 116.868C203.691 116.635 203.858 116.344 203.942 116.026C204.364 113.62 204.364 111.159 203.942 108.754Z" fill="white"/>
<path d="M195.219 114.62V110.16L199.145 112.386L195.219 114.62Z" fill="#263238"/>
<path d="M152.145 101.091C149.914 101.091 147.733 101.753 145.878 102.992C144.023 104.232 142.577 105.993 141.723 108.055C140.87 110.116 140.646 112.384 141.081 114.572C141.517 116.76 142.591 118.77 144.168 120.347C145.746 121.925 147.756 122.999 149.944 123.435C152.132 123.87 154.4 123.646 156.461 122.793C158.522 121.939 160.284 120.493 161.524 118.638C162.763 116.783 163.425 114.602 163.425 112.371C163.425 109.38 162.236 106.511 160.121 104.395C158.005 102.28 155.136 101.091 152.145 101.091Z" fill="#263238"/>
<path d="M150.242 119.635H153.167V112.311H155.205L155.423 109.859H153.167V108.453C153.167 107.874 153.28 107.648 153.844 107.648H155.423V105.099H153.408C151.235 105.099 150.25 106.062 150.25 107.889V109.844H148.746V112.318H150.25L150.242 119.635Z" fill="white"/>
<path d="M152.077 147.001C149.837 147.001 147.648 147.665 145.786 148.909C143.924 150.153 142.472 151.921 141.615 153.99C140.757 156.059 140.533 158.336 140.969 160.533C141.405 162.729 142.483 164.747 144.066 166.332C145.649 167.916 147.667 168.995 149.863 169.433C152.059 169.871 154.336 169.647 156.406 168.791C158.475 167.935 160.244 166.485 161.49 164.623C162.735 162.762 163.401 160.573 163.402 158.334C163.402 155.329 162.209 152.448 160.085 150.323C157.962 148.198 155.081 147.003 152.077 147.001Z" fill="#263238"/>
<path d="M152.077 152.919C153.837 152.919 154.047 152.919 154.747 152.919C155.165 152.926 155.58 153.005 155.972 153.152C156.257 153.256 156.514 153.423 156.724 153.641C156.943 153.852 157.113 154.109 157.221 154.393C157.366 154.785 157.443 155.2 157.446 155.619C157.446 156.318 157.446 156.551 157.446 158.281C157.446 160.01 157.446 160.259 157.446 160.95C157.443 161.369 157.367 161.784 157.221 162.176C157.116 162.462 156.946 162.719 156.724 162.928C156.514 163.148 156.257 163.318 155.972 163.425C155.579 163.566 155.165 163.642 154.747 163.65C154.047 163.65 153.837 163.65 152.077 163.65C150.317 163.65 150.107 163.65 149.407 163.65C148.989 163.644 148.575 163.567 148.182 163.425C147.897 163.318 147.64 163.148 147.43 162.928C147.208 162.719 147.038 162.462 146.933 162.176C146.787 161.784 146.71 161.369 146.708 160.95C146.708 160.259 146.663 160.048 146.663 158.281C146.663 156.514 146.663 156.318 146.708 155.619C146.711 155.2 146.788 154.785 146.933 154.393C147.038 154.107 147.208 153.85 147.43 153.641C147.64 153.423 147.897 153.256 148.182 153.152C148.574 153.007 148.989 152.928 149.407 152.919C150.107 152.919 150.31 152.919 152.077 152.919ZM152.077 151.731C150.287 151.731 150.054 151.731 149.355 151.731C148.816 151.736 148.282 151.833 147.776 152.017C147.338 152.186 146.941 152.445 146.61 152.776C146.278 153.108 146.02 153.505 145.85 153.942C145.659 154.455 145.555 154.996 145.542 155.544C145.542 156.25 145.497 156.476 145.497 158.266C145.497 160.056 145.497 160.281 145.542 160.988C145.554 161.536 145.658 162.077 145.85 162.59C146.017 163.032 146.274 163.435 146.605 163.772C146.937 164.109 147.336 164.372 147.776 164.545C148.29 164.733 148.83 164.837 149.377 164.853C150.084 164.853 150.31 164.853 152.1 164.853C153.889 164.853 154.115 164.853 154.822 164.853C155.369 164.837 155.909 164.733 156.424 164.545C156.861 164.374 157.258 164.114 157.589 163.781C157.921 163.449 158.179 163.05 158.349 162.612C158.541 162.1 158.645 161.558 158.657 161.011C158.657 160.311 158.702 160.086 158.702 158.288C158.702 156.491 158.702 156.273 158.657 155.566C158.645 155.021 158.54 154.482 158.349 153.972C158.181 153.533 157.923 153.134 157.591 152.802C157.259 152.469 156.862 152.209 156.424 152.039C155.91 151.848 155.369 151.744 154.822 151.731C154.115 151.731 153.889 151.731 152.1 151.731" fill="white"/>
<path d="M152.077 154.912C151.406 154.91 150.75 155.108 150.191 155.479C149.633 155.85 149.197 156.379 148.939 156.998C148.681 157.617 148.612 158.299 148.742 158.957C148.871 159.616 149.193 160.221 149.666 160.696C150.139 161.171 150.743 161.496 151.4 161.628C152.058 161.76 152.74 161.695 153.36 161.439C153.981 161.184 154.511 160.751 154.885 160.194C155.259 159.637 155.459 158.981 155.461 158.311C155.461 157.413 155.104 156.552 154.47 155.918C153.835 155.283 152.974 154.927 152.077 154.927M152.077 160.499C151.641 160.5 151.214 160.373 150.851 160.131C150.487 159.89 150.204 159.547 150.036 159.144C149.868 158.742 149.823 158.298 149.907 157.87C149.992 157.442 150.201 157.049 150.509 156.74C150.817 156.431 151.209 156.221 151.637 156.135C152.064 156.05 152.508 156.093 152.911 156.259C153.314 156.426 153.658 156.708 153.901 157.071C154.143 157.433 154.273 157.86 154.273 158.296C154.273 158.879 154.042 159.438 153.63 159.851C153.219 160.264 152.66 160.497 152.077 160.499Z" fill="white"/>
<path d="M197.182 168.816C195.765 168.817 194.361 168.539 193.051 167.997C191.741 167.455 190.551 166.66 189.549 165.658C188.547 164.656 187.752 163.466 187.21 162.156C186.668 160.846 186.39 159.442 186.391 158.025C186.391 155.163 187.528 152.418 189.551 150.395C191.575 148.371 194.32 147.234 197.182 147.234C200.044 147.234 202.789 148.371 204.812 150.395C206.836 152.418 207.973 155.163 207.973 158.025C207.974 159.442 207.696 160.846 207.154 162.156C206.612 163.466 205.817 164.656 204.815 165.658C203.812 166.66 202.622 167.455 201.313 167.997C200.003 168.539 198.599 168.817 197.182 168.816Z" fill="#263238" stroke="#263238" stroke-width="1.06897" stroke-linecap="round" stroke-linejoin="round"/>
<path d="M191.437 161.68C192.513 162.373 193.766 162.738 195.046 162.732C195.96 162.739 196.866 162.558 197.707 162.201C198.548 161.843 199.307 161.317 199.937 160.654C200.566 159.991 201.053 159.207 201.367 158.348C201.681 157.49 201.815 156.576 201.762 155.664C202.217 155.324 202.611 154.909 202.927 154.438C202.497 154.63 202.041 154.757 201.574 154.814C202.064 154.516 202.43 154.052 202.604 153.505C202.139 153.785 201.631 153.983 201.1 154.092C200.744 153.716 200.274 153.468 199.763 153.385C199.252 153.303 198.728 153.39 198.271 153.635C197.815 153.879 197.451 154.267 197.237 154.738C197.022 155.209 196.969 155.738 197.084 156.243C196.147 156.195 195.23 155.95 194.393 155.525C193.556 155.101 192.818 154.505 192.226 153.776C191.926 154.298 191.837 154.915 191.977 155.501C192.117 156.087 192.475 156.597 192.978 156.927C192.604 156.914 192.238 156.814 191.91 156.634C191.906 157.181 192.092 157.712 192.436 158.137C192.781 158.563 193.262 158.855 193.798 158.965C193.45 159.051 193.086 159.051 192.738 158.965C192.887 159.434 193.18 159.845 193.575 160.139C193.971 160.433 194.448 160.596 194.941 160.604C194.456 161.005 193.897 161.306 193.296 161.491C192.695 161.676 192.063 161.74 191.437 161.68Z" fill="white"/>
<path d="M196.821 195.271C194.579 195.27 192.387 195.933 190.523 197.178C188.658 198.422 187.205 200.191 186.346 202.262C185.487 204.333 185.261 206.612 185.698 208.81C186.134 211.009 187.213 213.029 188.797 214.615C190.382 216.2 192.401 217.281 194.6 217.718C196.798 218.156 199.077 217.932 201.149 217.075C203.22 216.217 204.99 214.765 206.236 212.901C207.481 211.037 208.146 208.846 208.146 206.604C208.146 203.6 206.953 200.718 204.829 198.593C202.706 196.468 199.825 195.273 196.821 195.271Z" fill="#263238"/>
<path d="M193.512 203.634H191.023V211.68H193.512V203.634Z" fill="white"/>
<path d="M192.256 202.581C192.554 202.581 192.845 202.493 193.092 202.328C193.339 202.163 193.532 201.928 193.646 201.653C193.76 201.378 193.789 201.076 193.731 200.784C193.673 200.492 193.53 200.224 193.32 200.014C193.109 199.803 192.841 199.66 192.55 199.602C192.258 199.544 191.956 199.574 191.681 199.688C191.406 199.802 191.171 199.994 191.006 200.242C190.841 200.489 190.752 200.78 190.752 201.077C190.752 201.476 190.911 201.859 191.193 202.141C191.475 202.423 191.857 202.581 192.256 202.581Z" fill="white"/>
<path d="M197.498 207.461C197.498 206.326 198.017 205.657 199.002 205.657C199.987 205.657 200.355 206.303 200.355 207.461V211.68H202.837V206.604C202.837 204.453 201.611 203.401 199.897 203.401C199.412 203.395 198.934 203.516 198.509 203.751C198.085 203.985 197.729 204.326 197.475 204.739V203.664H195.076V211.71H197.475L197.498 207.461Z" fill="white"/>
<path d="M152.069 217.884C149.066 217.884 146.185 216.691 144.061 214.567C141.937 212.443 140.744 209.563 140.744 206.559C140.744 203.555 141.937 200.674 144.061 198.548C146.185 196.423 149.065 195.229 152.069 195.227C155.075 195.227 157.958 196.421 160.083 198.546C162.208 200.671 163.402 203.554 163.402 206.559C163.4 209.564 162.205 212.444 160.08 214.568C157.955 216.691 155.074 217.884 152.069 217.884Z" fill="#263238"/>
<path d="M150.4 210.853C150.725 210.785 151.033 210.649 151.302 210.454C151.59 210.229 151.822 209.942 151.981 209.613C152.14 209.285 152.222 208.924 152.22 208.559C152.231 208.149 152.124 207.745 151.912 207.394C151.694 207.063 151.371 206.816 150.994 206.694C151.224 206.584 151.431 206.431 151.603 206.243C151.859 205.908 151.987 205.492 151.964 205.07C151.978 204.638 151.852 204.213 151.603 203.859C151.351 203.566 151.033 203.336 150.674 203.19C150.316 203.044 149.928 202.984 149.543 203.017H145.7V210.943H149.264C149.645 210.951 150.025 210.921 150.4 210.853ZM147.287 204.393H149.009C149.327 204.382 149.645 204.426 149.949 204.521C150.095 204.579 150.217 204.685 150.295 204.822C150.373 204.958 150.402 205.118 150.377 205.273C150.392 205.408 150.369 205.544 150.312 205.667C150.255 205.79 150.166 205.896 150.054 205.972C149.796 206.112 149.505 206.179 149.212 206.168H147.287V204.393ZM147.287 209.582V207.461H149.234C149.506 207.456 149.776 207.499 150.032 207.589C150.194 207.663 150.331 207.784 150.422 207.938C150.513 208.091 150.556 208.268 150.543 208.447C150.563 208.645 150.523 208.846 150.43 209.022C150.336 209.199 150.192 209.344 150.016 209.439C149.761 209.542 149.487 209.591 149.212 209.582H147.287Z" fill="white"/>
<path d="M153.536 210.44C154.114 210.928 154.847 211.194 155.604 211.192C156.02 211.224 156.438 211.164 156.828 211.016C157.218 210.868 157.57 210.635 157.86 210.334C158.16 210.056 158.359 209.686 158.424 209.282H156.852C156.776 209.433 156.671 209.568 156.544 209.68C156.299 209.869 155.995 209.965 155.687 209.951C155.389 209.958 155.094 209.883 154.837 209.733C154.637 209.596 154.476 209.41 154.369 209.192C154.263 208.975 154.214 208.734 154.228 208.492H158.507C158.522 208.103 158.507 207.713 158.461 207.326C158.383 206.864 158.198 206.426 157.92 206.048C157.67 205.67 157.318 205.37 156.905 205.183C156.469 204.993 155.997 204.898 155.521 204.905C155.134 204.89 154.749 204.954 154.388 205.094C154.027 205.234 153.699 205.446 153.423 205.717C152.875 206.362 152.604 207.197 152.671 208.041C152.621 208.48 152.673 208.925 152.823 209.341C152.973 209.758 153.217 210.133 153.536 210.44ZM154.634 206.529C154.756 206.414 154.901 206.325 155.058 206.267C155.216 206.209 155.383 206.183 155.551 206.191C155.886 206.182 156.213 206.297 156.469 206.514C156.596 206.632 156.698 206.776 156.768 206.935C156.837 207.094 156.874 207.265 156.875 207.439H154.228C154.264 207.101 154.406 206.783 154.634 206.529Z" fill="white"/>
<path d="M157.175 203.468H153.724V204.273H157.175V203.468Z" fill="white"/>
<path d="M164.312 96.8271H139.977C138.104 96.8271 136.586 98.3456 136.586 100.219V124.553C136.586 126.426 138.104 127.945 139.977 127.945H164.312C166.185 127.945 167.704 126.426 167.704 124.553V100.219C167.704 98.3456 166.185 96.8271 164.312 96.8271Z" stroke="#03738C" stroke-width="1.06897" stroke-miterlimit="10"/>
<path d="M209.154 96.8271H184.819C182.946 96.8271 181.428 98.3456 181.428 100.219V124.553C181.428 126.426 182.946 127.945 184.819 127.945H209.154C211.027 127.945 212.545 126.426 212.545 124.553V100.219C212.545 98.3456 211.027 96.8271 209.154 96.8271Z" stroke="#03738C" stroke-width="1.06897" stroke-miterlimit="10"/>
<path d="M164.312 142.406H139.977C138.104 142.406 136.586 143.925 136.586 145.798V170.132C136.586 172.006 138.104 173.524 139.977 173.524H164.312C166.185 173.524 167.704 172.006 167.704 170.132V145.798C167.704 143.925 166.185 142.406 164.312 142.406Z" stroke="#03738C" stroke-width="1.06897" stroke-miterlimit="10"/>
<path d="M209.154 142.406H184.819C182.946 142.406 181.428 143.925 181.428 145.798V170.132C181.428 172.006 182.946 173.524 184.819 173.524H209.154C211.027 173.524 212.545 172.006 212.545 170.132V145.798C212.545 143.925 211.027 142.406 209.154 142.406Z" stroke="#03738C" stroke-width="1.06897" stroke-miterlimit="10"/>
<path d="M164.312 190.241H139.977C138.104 190.241 136.586 191.759 136.586 193.632V217.967C136.586 219.84 138.104 221.358 139.977 221.358H164.312C166.185 221.358 167.704 219.84 167.704 217.967V193.632C167.704 191.759 166.185 190.241 164.312 190.241Z" stroke="#03738C" stroke-width="1.06897" stroke-miterlimit="10"/>
<path d="M209.154 190.241H184.819C182.946 190.241 181.428 191.759 181.428 193.632V217.967C181.428 219.84 182.946 221.358 184.819 221.358H209.154C211.027 221.358 212.545 219.84 212.545 217.967V193.632C212.545 191.759 211.027 190.241 209.154 190.241Z" stroke="#03738C" stroke-width="1.06897" stroke-miterlimit="10"/>
<path d="M208.319 177.84H186.391V184.496H208.319V177.84Z" fill="#03738C"/>
<path d="M208.319 132.187H186.391V138.842H208.319V132.187Z" fill="#03738C"/>
<path d="M163.041 132.187H141.113V138.842H163.041V132.187Z" fill="#03738C"/>
<path d="M163.041 177.84H141.113V184.496H163.041V177.84Z" fill="#03738C"/>
<path d="M208.319 177.84H186.391V184.496H208.319V177.84Z" fill="#263238"/>
<path d="M208.319 132.187H186.391V138.842H208.319V132.187Z" fill="#263238"/>
<path d="M163.041 132.187H141.113V138.842H163.041V132.187Z" fill="#263238"/>
<path d="M163.041 177.84H141.113V184.496H163.041V177.84Z" fill="#263238"/>
<path d="M60.16 99.4292H109.1" stroke="#263238" stroke-width="1.06897" stroke-linecap="round" stroke-linejoin="round"/>
<path d="M124.238 292.708C124.238 292.708 125.99 298.725 125.404 302.402C125.404 302.402 124.704 308.523 123.9 311.787C123.095 315.05 122.275 317.314 126.87 318.607C131.465 319.901 142.752 317.156 145.399 318.081C148.046 319.006 163.116 316.938 165.365 315.945C167.613 314.953 167.967 308.072 163.109 305.68C158.251 303.289 124.238 292.708 124.238 292.708Z" fill="white"/>
<path d="M124.907 305.312C124.907 305.312 123.599 312.667 123.636 314.005C125.868 313.369 128.168 313 130.487 312.907C133.585 312.907 142.872 313.028 146.557 312.471C150.242 311.915 157.326 309.32 160.605 309.305C162.685 309.304 164.761 309.488 166.809 309.854C166.809 309.854 167.192 307.23 162.018 305.861C156.845 304.492 137.992 300.529 137.992 300.529C137.992 300.529 133.781 305.056 124.907 305.312Z" fill="#03738C"/>
<path d="M190.587 301.808C190.587 301.808 193.888 299.717 196.994 300.996C200.1 302.274 211.162 302.304 211.162 302.304C211.162 302.304 219.915 301.206 223.645 303.056C227.375 304.906 227.788 307.696 227.495 309.869C227.202 312.042 221.697 317.84 214.47 318.141C207.244 318.442 206.65 316.818 200.709 316.502C200.709 316.502 192.738 315.998 190.436 314.998C188.135 313.998 185.127 313.17 185.218 308.869C185.308 304.568 190.587 301.808 190.587 301.808Z" fill="white"/>
<path d="M190.587 301.808C190.587 301.808 193.933 299.913 199.844 301.687C205.755 303.462 216.17 300.838 220.682 302.402C225.194 303.966 225.818 306.914 225.239 308.049C224.66 309.185 220.817 313.78 216.546 314.509C212.275 315.238 202.641 314.795 198.227 315.599C198.227 315.599 189.105 316.126 186.195 311.569C183.285 307.012 190.587 301.808 190.587 301.808Z" fill="#03738C"/>
<path d="M66.4918 298.514L60.927 288.144L76.1024 272.487L89.7963 274.119L97.5494 285.933L95.6168 292.709L66.4918 298.514Z" fill="#263238"/>
<path d="M55.0088 295.679C55.0088 295.679 55.4299 315.073 68.0033 317.171C80.5768 319.269 125.449 297.439 125.449 297.439C125.449 297.439 142.158 306.117 154.732 307.215C167.305 308.313 185.564 310.652 187.428 312.742C189.293 314.833 196.272 306.064 192.249 300.8C192.249 300.8 178.63 299.936 170.042 295.657C161.454 291.378 133.375 275.135 127.72 274.142C122.065 273.149 89.3677 288.648 89.3677 288.648L79.5165 290.746L55.0088 295.679Z" fill="#263238"/>
<path d="M92.2102 281.827L89.7963 274.119C89.7963 274.119 113.958 247.265 124.238 247.626C134.518 247.987 136.33 257.079 137.022 264.17C137.714 271.262 137.022 281.797 137.022 281.797L113.394 284.752L95.5792 292.709L92.1726 281.827" fill="#263238"/>
<path d="M118.425 277.323C118.425 277.744 119.252 265.08 122.884 259.417" stroke="white" stroke-width="1.06897" stroke-linecap="round" stroke-linejoin="round"/>
<path d="M126.742 259.207C126.485 261.708 126.5 264.229 126.787 266.727" stroke="white" stroke-width="1.06897" stroke-linecap="round" stroke-linejoin="round"/>
<path d="M125.012 305.057C125.012 305.057 123.23 314.374 123.719 316.337C124.343 318.826 130.855 318.878 132.705 318.961C136.796 319.134 140.88 318.728 144.971 318.796C148.084 318.848 151.19 319.179 154.31 319.134C157.436 319.2 160.536 318.56 163.379 317.262C165.771 316.066 167.335 314.366 167.034 311.584C166.636 307.914 165.41 306.989 160.341 306.41C155.273 305.831 137.383 300.484 137.383 300.484C137.383 300.484 134.608 305.357 125.012 305.057Z" stroke="#263238" stroke-width="1.06897" stroke-linecap="round" stroke-linejoin="round"/>
<path d="M125.012 305.056C125.71 301.582 125.71 298.003 125.012 294.528C123.824 289.174 133.036 293.837 133.036 293.837L137.992 299.183L137.383 300.477" stroke="#263238" stroke-width="1.06897" stroke-linecap="round" stroke-linejoin="round"/>
<path d="M124.238 317.299C124.216 316.766 124.381 316.242 124.703 315.817C125.026 315.391 125.486 315.091 126.005 314.968C127.344 314.615 128.968 314.855 130.329 314.893C132.683 314.968 135.037 315.066 137.39 315.088C145.316 315.156 153.009 312.644 160.928 312.343C162.319 312.291 164.808 311.922 166.042 312.787C168.027 314.178 164.365 316.908 162.988 317.465C159.615 318.678 156.044 319.245 152.46 319.134C147.813 318.916 140.534 318.946 137.383 318.984C134.232 319.021 128.321 320.224 124.238 317.299Z" fill="#263238"/>
<path d="M123.945 313.975C126.031 313.177 128.255 312.804 130.487 312.877C138.714 312.84 147.783 313.329 155.634 310.411C159.108 309.117 164.786 308.426 166.854 310.411" stroke="#263238" stroke-width="1.06897" stroke-linecap="round" stroke-linejoin="round"/>
<path d="M186.067 311.103C186.067 311.103 186.361 314.472 192.008 315.269C197.656 316.066 209.056 317.525 212.823 318.044C216.591 318.562 227.397 314.472 227.495 309.17C227.593 303.868 222.938 302.282 220.058 302.184C217.178 302.086 203.514 302.68 199.844 301.688C196.174 300.695 194.091 300.296 191.91 301.59" stroke="#263238" stroke-width="1.06897" stroke-linecap="round" stroke-linejoin="round"/>
<path d="M221.84 302.402C221.84 302.402 225.051 304.861 225.352 307.335C225.653 309.809 219.208 314.667 213.455 315.163C207.702 315.66 200.333 314.644 197.031 315.915" stroke="#263238" stroke-width="1.06897" stroke-linecap="round" stroke-linejoin="round"/>
<path d="M55.9037 222.855C55.9037 222.855 60.2953 226.112 62.416 224.713C64.5366 223.314 69.184 218.02 69.184 218.02L75.8918 221.675L82.9305 244.272L87.6381 264.245L95.1581 267.923V271.119C95.1581 271.119 90.7363 275.698 86.1341 277.06C81.5318 278.421 76.5085 279.744 72.7184 278.857C68.9283 277.969 61.664 252.868 61.664 252.868L43.3904 226.164L55.9037 222.855Z" fill="#263238"/>
<path d="M115.485 275.375L82.923 267.103L115.485 252.018L146.557 259.944L115.485 275.375Z" fill="white" stroke="#263238" stroke-width="1.06897" stroke-linecap="round" stroke-linejoin="round"/>
<path d="M115.485 275.375L122.764 241.956L153.175 230.353L146.926 260.162L115.485 275.375Z" fill="white"/>
<path d="M82.923 266.719V268.547L115.68 277.323L147.257 261.5L147.43 259.681L115.68 275.036L82.923 266.719Z" fill="#263238"/>
<path d="M67.116 220.396C70.8418 224.882 73.7787 229.967 75.8016 235.436C78.7193 243.851 84.2014 261.659 83.7276 268.524L95.331 259.5C94.1898 253.749 93.7679 247.879 94.0752 242.024C94.7144 233.451 95.3611 219.795 87.8636 218.674C80.0278 216.997 69.575 214.44 69.575 214.44L67.116 220.396Z" fill="#03738C"/>
<path d="M47.4963 217.042C47.4963 217.042 35.7275 223.344 34.2686 225.886C32.8097 228.428 31.96 227.676 32.5089 231.691C33.0579 235.707 35.9756 248.799 36.6825 253.221C37.3894 257.643 39.7883 276.736 39.7883 276.736C41.9492 277.675 44.1856 278.43 46.4736 278.992L31.0952 299.093C31.0952 299.093 36.8931 311.689 47.97 312.08C59.047 312.471 64.1832 301.695 68.9734 294.107C73.7636 286.52 76.9747 276.262 76.9747 276.262L79.2984 275.834L78.4336 264.93L76.9747 265.155C76.9747 265.155 76.6664 249.95 70.2067 238.49C63.747 227.029 47.4963 217.042 47.4963 217.042Z" fill="#03738C"/>
<path opacity="0.2" d="M72.4552 216.358C72.4552 216.358 77.5763 218.975 78.1027 222.269C78.6291 225.562 76.9446 229.646 79.4037 231.255C81.8627 232.864 84.7504 233.203 86.1717 237.489C87.5929 241.776 87.1643 261.598 86.1717 264.997C85.179 268.396 83.7653 264.997 83.7653 264.997L82.1334 256.334L78.7795 243.934L75.4632 234.624L72.4552 228.172L68.8456 220.825L72.4552 216.358Z" fill="black"/>
<path d="M79.0953 273.314C79.0953 273.314 83.8856 273.946 85.4873 273.254C87.0891 272.562 88.4953 272.217 89.6233 269.058C90.7513 265.9 92.8569 264.93 95.1204 264.779C97.384 264.629 102.505 263.629 103.392 261.162L101.174 261.004C101.937 260.788 102.641 260.403 103.235 259.876H102.302C102.302 259.876 97.8502 257.538 95.5792 256.974C93.3081 256.41 90.8792 255.823 88.736 257.673C86.5928 259.523 85.4422 263.508 84.5699 264.546C83.6976 265.584 81.3889 266.87 78.3584 266.862L79.0953 273.314Z" fill="white"/>
<path d="M79.4037 273.337C79.4037 273.337 85.9009 274.472 88.0667 271.923C90.2325 269.374 89.4805 265.764 94.2933 264.93C99.1061 264.095 103.182 263.05 103.407 261.17C103.407 261.17 93.5112 260.23 91.3755 261.922" stroke="#263238" stroke-width="1.06897" stroke-linecap="round" stroke-linejoin="round"/>
<path d="M101.52 260.944C102.201 260.796 102.817 260.435 103.28 259.914L98.8353 259.064C97.2787 258.763 95.7221 258.244 94.1128 258.312C92.6645 258.481 91.3408 259.213 90.428 260.35" stroke="#263238" stroke-width="1.06897" stroke-linecap="round" stroke-linejoin="round"/>
<path d="M102.061 259.44L96.9102 257.477C94.5414 256.575 91.7515 255.703 89.5932 257.034C88.7244 257.639 87.9981 258.427 87.4651 259.342C86.844 260.306 86.2887 261.311 85.8032 262.35C85.4847 263.146 85.0759 263.903 84.5849 264.606C83.1787 266.381 81.0054 266.825 78.7419 266.923" stroke="#263238" stroke-width="1.06897" stroke-linecap="round" stroke-linejoin="round"/>
<path d="M46.624 217.042C46.624 217.042 53.1589 219.599 55.8736 222.855C55.8736 222.855 62.4235 227.307 65.1457 222.412C67.868 217.516 68.1537 207.658 68.1537 207.658L70.688 202.025L69.7104 186.917L62.6265 176.277L55.9037 171.336L48.6017 185.428L40.1192 191.204L41.0893 206.996L46.624 217.042Z" fill="white"/>
<path d="M60.3254 177.472C60.3254 177.472 60.6413 189.594 50.775 194.061C50.775 194.061 47.9024 208.778 57.4152 211.891C57.4152 211.891 59.0245 218.772 52.1888 219.87C43.3678 215.546 44.9245 210.921 44.9245 210.921L41.8789 197.889L40.9088 189.128L52.1888 180.277L60.3254 177.472Z" fill="#03738C"/>
<path opacity="0.5" d="M60.3254 177.472C60.3254 177.472 60.6413 189.594 50.775 194.061C50.775 194.061 47.9024 208.778 57.4152 211.891C57.4152 211.891 59.0245 218.772 52.1888 219.87C43.3678 215.546 44.9245 210.921 44.9245 210.921L41.8789 197.889L40.9088 189.128L52.1888 180.277L60.3254 177.472Z" fill="white"/>
<path d="M68.0184 183.856C68.0184 183.856 68.4395 185.225 68.0184 189.316C67.5973 193.407 68.6049 198.633 67.2664 202.303C65.9278 205.973 63.6568 211.568 57.4227 211.861C52.64 211.861 47.6467 205.093 47.0301 200.649C47.0301 200.649 41.2622 197.941 41.9465 194.106C42.6309 190.271 46.3307 191.301 47.3008 194.106" stroke="#263238" stroke-width="1.06897" stroke-linecap="round" stroke-linejoin="round"/>
<path d="M62.8296 191.467C62.3485 193.724 62.4233 196.065 63.0477 198.287C63.2589 198.776 63.2986 199.322 63.1605 199.837C63.0537 200.051 62.8955 200.235 62.6999 200.373C62.5043 200.511 62.2775 200.598 62.04 200.626C61.5654 200.676 61.0856 200.635 60.6262 200.506" stroke="#263238" stroke-width="1.06897" stroke-linecap="round" stroke-linejoin="round"/>
<path d="M60.3254 203.13C60.3254 203.13 57.6333 203.965 55.9488 202.025" stroke="#263238" stroke-width="1.06897" stroke-linecap="round" stroke-linejoin="round"/>
<path d="M47.4963 217.043C49.1657 212.801 46.0525 200.085 46.0525 200.085" stroke="#263238" stroke-width="1.06897" stroke-linecap="round" stroke-linejoin="round"/>
<path d="M57.904 189.346C57.904 189.346 54.0161 185.962 52.1963 190.971" stroke="#263238" stroke-width="1.06897" stroke-linecap="round" stroke-linejoin="round"/>
<path d="M63.5289 189.128C63.8201 188.493 64.2873 187.956 64.875 187.579C65.1732 187.399 65.5182 187.311 65.8663 187.327C66.2144 187.343 66.5499 187.462 66.8302 187.669" stroke="#263238" stroke-width="1.06897" stroke-linecap="round" stroke-linejoin="round"/>
<path d="M56.7309 195.49C57.088 195.49 57.3776 194.837 57.3776 194.031C57.3776 193.225 57.088 192.572 56.7309 192.572C56.3737 192.572 56.0841 193.225 56.0841 194.031C56.0841 194.837 56.3737 195.49 56.7309 195.49Z" fill="#263238"/>
<path d="M64.8224 193.385C64.8224 194.189 64.5366 194.844 64.1756 194.844C63.8147 194.844 63.5289 194.189 63.5289 193.385C63.5289 192.58 63.8147 191.926 64.1756 191.926C64.5366 191.926 64.8224 192.58 64.8224 193.385Z" fill="#263238"/>
<path d="M61.1451 210.891C61.1451 210.891 59.8065 213.568 61.9422 219.426" stroke="#263238" stroke-width="1.06897" stroke-linecap="round" stroke-linejoin="round"/>
<path d="M46.0525 191.926C46.0525 191.926 60.5811 186.541 60.3405 177.442C60.3405 177.442 62.7619 183.315 68.2214 186.346C68.2214 186.346 66.6573 178.029 64.8374 174.411C63.0176 170.794 52.1587 167.952 48.0001 168.832C43.8416 169.711 35.8253 171.381 34.1633 184.782C32.5014 198.182 34.1633 208.259 30.2529 213.636C26.3425 219.013 26.9291 228.307 32.6067 229.578C33.1784 227.805 34.157 226.19 35.4643 224.863C37.5173 222.908 47.6993 217.238 47.6993 217.238C47.6993 217.238 48.143 207.056 46.0675 200.085C46.0675 200.085 41.7209 198.746 41.9541 194.106C42.3752 190.497 46.0525 191.926 46.0525 191.926Z" fill="#263238"/>
<path d="M64.3411 173.712C66.4633 175.889 68.2705 178.351 69.7104 181.029C72.8613 186.541 76.343 192.76 77.9222 198.911C78.5356 201.347 78.6567 203.881 78.2784 206.364C77.9 208.847 77.0298 211.23 75.7189 213.372C75.2996 213.985 74.9323 214.631 74.6209 215.305C74.3174 216.141 74.1252 217.013 74.0494 217.899C73.7862 219.907 73.4779 221.99 72.38 223.697C71.2821 225.404 69.1614 226.615 67.2137 226.029C65.3155 225.26 63.7842 223.793 62.9349 221.93C61.4309 217.832 60.4833 215.222 61.1451 210.906C61.1451 210.906 68.0259 204.845 67.9733 197.874C67.9206 190.903 69.1614 186.097 66.3339 182.638C63.5064 179.179 64.3411 173.712 64.3411 173.712Z" fill="#263238"/>
<path d="M47.6843 217.238C47.6843 217.238 38.1489 222.216 34.2686 225.886C30.3883 229.556 33.9001 238.038 35.5094 246.641C37.1187 255.244 38.367 263.441 39.7883 276.721C53.7304 283.203 66.8603 277.939 79.2984 275.804L78.4336 264.93C76.6213 265.027 67.1536 267.825 58.8816 265.381C54.6102 264.11 51.1285 265.96 48.1881 269.306" stroke="#263238" stroke-width="1.06897" stroke-linecap="round" stroke-linejoin="round"/>
<path d="M45.9397 266.419C50.1885 264.328 54.0312 263.411 57.9717 265.155" stroke="#263238" stroke-width="1.06897" stroke-linecap="round" stroke-linejoin="round"/>
<path d="M57.152 264.832C54.6929 258.192 54.0913 250.499 52.9483 243.182" stroke="#263238" stroke-width="1.06897" stroke-linecap="round" stroke-linejoin="round"/>
<path d="M39.7883 231.691C45.0254 234.731 49.0984 239.431 51.3616 245.047" stroke="#263238" stroke-width="1.06897" stroke-linecap="round" stroke-linejoin="round"/>
<path d="M49.271 236.647L51.1886 240.332" stroke="#263238" stroke-width="1.06897" stroke-linecap="round" stroke-linejoin="round"/>
<path d="M47.4963 217.042C47.4963 217.042 66.4392 227.931 72.019 242.219C77.5989 256.507 76.8393 264.982 76.8393 264.982" stroke="#263238" stroke-width="1.06897" stroke-linecap="round" stroke-linejoin="round"/>
<path d="M47.4963 217.042C45.4734 221.389 47.3534 226.465 50.2486 229.924C53.2566 233.534 58.1822 235.489 62.7469 236.203C63.2432 236.279 63.8373 236.399 64.0027 236.873C64.083 237.117 64.083 237.38 64.0027 237.625C63.3184 239.881 61.2128 241.67 61.2579 244.017C61.339 244.981 61.6126 245.92 62.0625 246.777C64.619 252.488 67.4988 258.049 70.688 263.433" stroke="#263238" stroke-width="1.06897" stroke-linecap="round" stroke-linejoin="round"/>
<path opacity="0.5" d="M48.6017 174.043C47.7393 178.98 45.9534 183.71 43.3377 187.985" stroke="white" stroke-width="1.06897" stroke-linecap="round" stroke-linejoin="round"/>
<path opacity="0.5" d="M40.1192 176.276C37.3969 182.631 38.6904 189.888 38.4046 196.798C38.1347 203.024 36.5401 209.121 33.7272 214.681" stroke="white" stroke-width="1.06897" stroke-linecap="round" stroke-linejoin="round"/>
<path d="M76.9747 276.255C76.9747 276.255 67.3942 302.176 58.1747 308.816C48.9552 315.457 38.7205 311.9 31.1027 299.093L46.4736 279.03" stroke="#263238" stroke-width="1.06897" stroke-linecap="round" stroke-linejoin="round"/>
<path d="M49.2334 279.812C50.7072 285.561 54.1073 290.63 58.8665 294.175" stroke="#263238" stroke-width="1.06897" stroke-linecap="round" stroke-linejoin="round"/>
<path d="M47.376 279.609C46.6795 283.824 46.8923 288.139 48.0001 292.265" stroke="#263238" stroke-width="1.06897" stroke-linecap="round" stroke-linejoin="round"/>
<path d="M63.5289 214.839C63.5289 214.839 72.2672 224.164 77.5913 240.332C82.9155 256.5 83.7276 265.381 83.7276 265.381" stroke="#263238" stroke-width="1.06897" stroke-linecap="round" stroke-linejoin="round"/>
<path d="M56.7309 223.509C56.7309 223.509 62.3859 227.269 65.1758 222.412C67.9657 217.554 65.9278 215.907 65.9278 215.907" stroke="#263238" stroke-width="1.06897" stroke-linecap="round" stroke-linejoin="round"/>
<path d="M64.672 214.147C66.4392 213.862 68.2139 214.478 69.8683 215.155C71.8582 215.891 73.7168 216.942 75.3729 218.268C77.0388 219.61 78.1328 221.535 78.4336 223.653C78.6667 225.976 77.6816 228.548 78.8923 230.556C80.2459 232.812 83.6073 233.015 85.194 235.106C85.8818 236.176 86.2903 237.401 86.3822 238.67C87.3956 246.058 87.4284 253.548 86.48 260.944" stroke="#263238" stroke-width="1.06897" stroke-linecap="round" stroke-linejoin="round"/>
<path d="M85.0963 228.232C87.0892 229.976 88.7547 232.061 90.0144 234.391C91.2745 236.746 91.6046 239.489 90.9394 242.076C90.6536 243.009 90.1873 243.889 89.9617 244.829C89.7473 245.732 89.6189 246.653 89.5782 247.581L88.8262 257.357" stroke="#263238" stroke-width="1.06897" stroke-linecap="round" stroke-linejoin="round"/>
<path d="M67.116 213.297C70.8083 214.403 74.448 215.824 78.208 216.629C81.968 217.433 85.5249 217.636 89.1044 219.043C89.6336 219.233 90.1385 219.486 90.6084 219.795C93.6841 221.945 93.6616 226.277 94.0075 229.571C95.0603 239.61 92.3004 247.115 95.1204 256.808" stroke="#263238" stroke-width="1.06897" stroke-linecap="round" stroke-linejoin="round"/>
<path d="M76.1024 278.812C76.1024 278.812 85.5249 279.812 94.203 271.954" stroke="#263238" stroke-width="1.06897" stroke-linecap="round" stroke-linejoin="round"/>
<path opacity="0.5" d="M69.936 224.923C68.2064 222.397 67.0258 219.336 67.477 216.313C67.7702 214.35 68.7253 212.553 69.5826 210.778C70.7766 208.481 71.6544 206.032 72.192 203.499C72.7207 200.952 72.5013 198.306 71.5603 195.881C70.7559 194.194 69.7318 192.622 68.5147 191.204" stroke="white" stroke-width="1.06897" stroke-linecap="round" stroke-linejoin="round"/>
<path d="M115.485 275.375L153.175 230.353L146.926 260.162L115.485 275.375Z" fill="#263238"/>
<path opacity="0.8" d="M115.485 275.375L153.175 230.353L146.926 260.162L115.485 275.375Z" fill="white"/>
<path d="M140.165 251.582C139.646 253.612 138.135 254.973 136.789 254.627C135.443 254.281 134.788 252.371 135.285 250.326C135.781 248.28 137.323 246.934 138.661 247.28C140 247.626 140.692 249.551 140.165 251.582Z" fill="#263238"/>
<path d="M115.485 275.375L122.764 241.956L153.175 230.353L146.926 260.162L115.485 275.375Z" stroke="#263238" stroke-width="1.06897" stroke-linecap="round" stroke-linejoin="round"/>
<path d="M114.251 274.653L121.38 241.452L152.182 229.872L153.318 230.157L122.764 241.956L115.485 275.375L114.251 274.653Z" fill="#263238"/>
<path opacity="0.2" d="M47.4963 217.042C47.4963 217.042 44.8192 224.42 50.2486 229.924C55.678 235.429 64.0027 236.88 64.0027 236.88V237.632C64.0027 237.632 60.3931 242.528 61.4083 245.047C62.4235 247.566 71.7483 266.035 71.7483 266.035L77.0123 265.155C77.1124 256.539 75.1312 248.026 71.2369 240.339C64.672 227.856 47.4963 217.042 47.4963 217.042Z" fill="black"/>
<path opacity="0.2" d="M44.947 281.015C44.947 281.015 45.323 286.475 47.3985 289.663C47.3985 289.663 47.6392 285.647 47.9701 282.106C47.9701 282.106 51.0457 289.971 57.1144 292.746C57.1144 292.746 53.5349 285.647 52.3768 282.106C52.3768 282.106 64.5517 284.271 76.3129 278.097V276.383C76.3129 276.383 58.1747 281.699 46.4736 279.03L44.947 281.015Z" fill="black"/>
<path opacity="0.2" d="M53.0761 244.272L60.5961 263.433L69.6803 266.441L59.6937 266.058C59.6937 266.058 55.0539 265.389 49.2409 268.524C49.2409 268.524 49.5041 266.832 51.9105 265.404C51.9105 265.404 51.0457 264.561 47.3985 265.742C49.1413 264.018 51.1788 262.62 53.4145 261.614L53.0761 244.272Z" fill="black"/>
<path opacity="0.2" d="M86.5176 229.36C84.7053 227.405 90.8416 232.564 91.6838 235.09C92.5261 237.617 92.5712 240.354 92.5561 243.009C92.5411 245.663 92.4809 248.386 93.1577 250.965C93.6089 252.687 94.5865 255.093 95.1205 256.793C95.1205 256.793 90.1798 256.109 88.8563 257.304L89.9617 244.806C89.9617 244.806 94 237.482 86.5176 229.36Z" fill="black"/>
<path d="M103.407 261.162L116.244 254.732L119.034 255.357" stroke="#263238" stroke-width="1.06897" stroke-linecap="round" stroke-linejoin="round"/>
<path d="M115.176 272.487L92.4734 266.502L98.9933 263.967" stroke="#263238" stroke-width="1.06897" stroke-linecap="round" stroke-linejoin="round"/>
<path d="M118.726 257.139L97.5494 267.757" stroke="#263238" stroke-width="1.06897" stroke-linecap="round" stroke-linejoin="round"/>
<path d="M118.402 261.162L102.633 269.073" stroke="#263238" stroke-width="1.06897" stroke-linecap="round" stroke-linejoin="round"/>
<path d="M117.718 265.125L107.22 270.389" stroke="#263238" stroke-width="1.06897" stroke-linecap="round" stroke-linejoin="round"/>
<path d="M95.8724 264.644L116.319 269.946" stroke="#263238" stroke-width="1.06897" stroke-linecap="round" stroke-linejoin="round"/>
<path d="M101.678 262.967L117.304 267.028" stroke="#263238" stroke-width="1.06897" stroke-linecap="round" stroke-linejoin="round"/>
<path d="M104.844 260.448L117.718 263.787" stroke="#263238" stroke-width="1.06897" stroke-linecap="round" stroke-linejoin="round"/>
<path d="M108.762 258.485L118.402 260.989" stroke="#263238" stroke-width="1.06897" stroke-linecap="round" stroke-linejoin="round"/>
<path d="M112.777 256.627L119.034 258.244" stroke="#263238" stroke-width="1.06897" stroke-linecap="round" stroke-linejoin="round"/>
<path d="M136.405 278.616C140.556 280.06 143.925 281.624 143.925 281.624" stroke="white" stroke-width="1.06897" stroke-linecap="round" stroke-linejoin="round"/>
<path d="M83.7277 288.016C83.7277 288.016 119.763 275.796 126.592 276.248C128.261 276.386 129.915 276.675 131.532 277.112" stroke="white" stroke-width="1.06897" stroke-linecap="round" stroke-linejoin="round"/>
<path d="M89.7963 286.016C91.3003 284.346 92.2403 283.481 93.06 282.135" stroke="white" stroke-width="1.06897" stroke-linecap="round" stroke-linejoin="round"/>
</svg>
