<svg width="420" height="420" viewBox="0 0 420 420" fill="none" xmlns="http://www.w3.org/2000/svg">
<path d="M29.8284 177.139C29.8284 177.139 22.8648 244.339 72.5004 300.056C122.136 355.774 198.904 374.439 260.828 391.213C322.753 407.988 375.589 382.2 390.138 330.12C404.687 278.04 359.058 252.756 341.485 186.631C323.912 120.506 328.936 100.951 279.224 52.4665C229.513 3.98168 140.624 9.78608 86.8644 64.9573C33.1044 120.128 29.8284 177.139 29.8284 177.139Z" fill="#03738C"/>
<path opacity="0.7" d="M29.8284 177.139C29.8284 177.139 22.8648 244.339 72.5004 300.056C122.136 355.774 198.904 374.439 260.828 391.213C322.753 407.988 375.589 382.2 390.138 330.12C404.687 278.04 359.058 252.756 341.485 186.631C323.912 120.506 328.936 100.951 279.224 52.4665C229.513 3.98168 140.624 9.78608 86.8644 64.9573C33.1044 120.128 29.8284 177.139 29.8284 177.139Z" fill="white"/>
<path d="M276.956 68.0986H142.514C135.778 68.0986 130.318 73.5593 130.318 80.2954V365.862C130.318 372.598 135.778 378.059 142.514 378.059H276.956C283.692 378.059 289.153 372.598 289.153 365.862V80.2954C289.153 73.5593 283.692 68.0986 276.956 68.0986Z" fill="#263238"/>
<path opacity="0.2" d="M144.001 68.0986C142.204 68.0986 140.423 68.4528 138.763 69.141C137.102 69.8292 135.593 70.8379 134.322 72.1094C133.052 73.381 132.044 74.8904 131.357 76.5516C130.67 78.2127 130.316 79.993 130.318 81.7906V364.367C130.315 366.37 130.753 368.348 131.601 370.163C132.448 371.978 133.685 373.584 135.223 374.867L227.892 68.0986H144.001Z" fill="white"/>
<path d="M215.124 369.096C215.124 368.027 214.807 366.983 214.213 366.094C213.619 365.206 212.775 364.514 211.788 364.105C210.8 363.697 209.714 363.59 208.666 363.799C207.618 364.008 206.656 364.524 205.901 365.28C205.146 366.036 204.632 366.999 204.424 368.047C204.217 369.096 204.325 370.182 204.735 371.169C205.145 372.156 205.839 372.999 206.728 373.591C207.617 374.184 208.663 374.499 209.731 374.497C210.44 374.498 211.143 374.359 211.798 374.088C212.454 373.817 213.049 373.419 213.55 372.917C214.051 372.415 214.448 371.819 214.718 371.164C214.988 370.508 215.126 369.805 215.124 369.096V369.096Z" stroke="white" stroke-linecap="round" stroke-linejoin="round"/>
<path d="M276.956 68.0986H142.514C135.778 68.0986 130.318 73.5593 130.318 80.2954V365.862C130.318 372.598 135.778 378.059 142.514 378.059H276.956C283.692 378.059 289.153 372.598 289.153 365.862V80.2954C289.153 73.5593 283.692 68.0986 276.956 68.0986Z" stroke="#263238" stroke-linecap="round" stroke-linejoin="round"/>
<path d="M282.08 89.1489H137.374V359.663H282.08V89.1489Z" fill="white" stroke="#263238" stroke-linecap="round" stroke-linejoin="round"/>
<path d="M277.158 91.9546H265.163V98.5318H277.158V91.9546Z" stroke="#263238" stroke-width="0.821067" stroke-linecap="round" stroke-linejoin="round"/>
<path d="M274.52 91.9546H265.163V98.5318H274.52V91.9546Z" fill="#263238" stroke="#263238" stroke-width="0.725073" stroke-linecap="round" stroke-linejoin="round"/>
<path d="M278.821 93.7944H277.133V96.6924H278.821V93.7944Z" fill="#263238" stroke="#263238" stroke-width="0.725073" stroke-linecap="round" stroke-linejoin="round"/>
<path d="M142.834 93.9956H140.633V97.7672H142.834V93.9956Z" fill="#263238" stroke="#263238" stroke-width="0.883086" stroke-linecap="round" stroke-linejoin="round"/>
<path d="M146.294 92.6685H144.094V97.7673H146.294V92.6685Z" fill="#263238" stroke="#263238" stroke-width="0.883086" stroke-linecap="round" stroke-linejoin="round"/>
<path d="M149.747 91.1064H147.546V97.7676H149.747V91.1064Z" fill="#263238" stroke="#263238" stroke-width="0.883086" stroke-linecap="round" stroke-linejoin="round"/>
<path d="M278.662 102.194H139.709V112.644H278.662V102.194Z" fill="#03738C"/>
<path d="M270.346 250.916H227.64C226.241 250.916 224.899 251.472 223.91 252.461C222.921 253.451 222.365 254.792 222.365 256.191V261.433L211.814 266.179L222.365 269.01V272.286C222.365 273.685 222.921 275.027 223.91 276.016C224.899 277.005 226.241 277.561 227.64 277.561H270.388C271.787 277.561 273.128 277.005 274.118 276.016C275.107 275.027 275.663 273.685 275.663 272.286V256.2C275.664 255.503 275.527 254.812 275.26 254.169C274.992 253.525 274.6 252.941 274.106 252.449C273.611 251.958 273.025 251.57 272.379 251.306C271.734 251.043 271.043 250.911 270.346 250.916Z" fill="white" stroke="#263238" stroke-miterlimit="10"/>
<path d="M241.517 264.667C241.517 265.108 241.386 265.538 241.141 265.904C240.896 266.271 240.548 266.556 240.141 266.724C239.733 266.893 239.285 266.936 238.853 266.85C238.421 266.763 238.025 266.55 237.714 266.238C237.403 265.926 237.192 265.528 237.107 265.096C237.022 264.664 237.067 264.216 237.237 263.809C237.406 263.403 237.693 263.056 238.06 262.812C238.427 262.568 238.859 262.439 239.299 262.441C239.591 262.441 239.88 262.499 240.15 262.611C240.419 262.723 240.664 262.887 240.87 263.093C241.076 263.3 241.239 263.546 241.35 263.816C241.461 264.086 241.518 264.375 241.517 264.667Z" fill="#263238"/>
<path d="M251.227 264.667C251.226 265.105 251.094 265.533 250.849 265.897C250.605 266.26 250.258 266.543 249.852 266.71C249.447 266.876 249.001 266.919 248.572 266.832C248.142 266.746 247.748 266.534 247.439 266.224C247.129 265.913 246.919 265.518 246.834 265.088C246.749 264.658 246.794 264.213 246.962 263.808C247.13 263.403 247.414 263.057 247.778 262.814C248.143 262.571 248.571 262.441 249.01 262.441C249.302 262.441 249.591 262.499 249.86 262.611C250.13 262.722 250.375 262.887 250.581 263.093C250.787 263.3 250.95 263.546 251.061 263.816C251.172 264.086 251.228 264.375 251.227 264.667Z" fill="#263238"/>
<path d="M260.946 264.667C260.946 265.107 260.815 265.538 260.571 265.904C260.326 266.27 259.979 266.555 259.572 266.723C259.165 266.892 258.718 266.936 258.286 266.85C257.854 266.764 257.457 266.552 257.146 266.241C256.835 265.93 256.623 265.533 256.537 265.101C256.451 264.669 256.495 264.222 256.663 263.815C256.832 263.408 257.117 263.061 257.483 262.816C257.849 262.571 258.28 262.441 258.72 262.441C259.31 262.441 259.877 262.675 260.294 263.093C260.712 263.51 260.946 264.077 260.946 264.667Z" fill="#263238"/>
<path d="M270.346 124.916H227.64C226.242 124.916 224.902 125.471 223.913 126.458C222.924 127.446 222.367 128.785 222.365 130.183V135.433L211.814 140.179L222.365 143.01V146.286C222.365 147.685 222.921 149.027 223.91 150.016C224.899 151.005 226.241 151.561 227.64 151.561H270.388C271.787 151.561 273.128 151.005 274.118 150.016C275.107 149.027 275.663 147.685 275.663 146.286V130.2C275.664 129.503 275.527 128.812 275.26 128.169C274.992 127.525 274.6 126.941 274.106 126.449C273.611 125.958 273.025 125.57 272.379 125.306C271.734 125.043 271.043 124.911 270.346 124.916Z" fill="white" stroke="#263238" stroke-miterlimit="10"/>
<path d="M241.517 138.667C241.517 139.108 241.386 139.538 241.141 139.905C240.896 140.271 240.548 140.556 240.141 140.724C239.733 140.893 239.285 140.936 238.853 140.85C238.421 140.763 238.025 140.55 237.714 140.238C237.403 139.926 237.192 139.528 237.107 139.096C237.022 138.664 237.067 138.216 237.237 137.809C237.406 137.403 237.693 137.056 238.06 136.812C238.427 136.568 238.859 136.439 239.299 136.441C239.591 136.441 239.88 136.499 240.15 136.611C240.419 136.723 240.664 136.887 240.87 137.093C241.076 137.3 241.239 137.546 241.35 137.816C241.461 138.086 241.518 138.375 241.517 138.667Z" fill="#263238"/>
<path d="M251.227 138.667C251.226 139.105 251.094 139.533 250.849 139.897C250.605 140.26 250.258 140.543 249.852 140.71C249.447 140.876 249.001 140.919 248.572 140.832C248.142 140.746 247.748 140.534 247.439 140.224C247.129 139.913 246.919 139.518 246.834 139.088C246.749 138.658 246.794 138.213 246.962 137.808C247.13 137.403 247.414 137.057 247.778 136.814C248.143 136.571 248.571 136.441 249.01 136.441C249.302 136.441 249.591 136.499 249.86 136.611C250.13 136.723 250.375 136.887 250.581 137.093C250.787 137.3 250.95 137.546 251.061 137.816C251.172 138.086 251.228 138.375 251.227 138.667Z" fill="#263238"/>
<path d="M260.946 138.667C260.946 139.107 260.815 139.538 260.571 139.904C260.326 140.27 259.979 140.555 259.572 140.723C259.165 140.892 258.718 140.936 258.286 140.85C257.854 140.764 257.457 140.552 257.146 140.241C256.835 139.93 256.623 139.533 256.537 139.101C256.451 138.669 256.495 138.222 256.663 137.815C256.832 137.408 257.117 137.061 257.483 136.816C257.849 136.571 258.28 136.441 258.72 136.441C259.31 136.441 259.877 136.675 260.294 137.093C260.712 137.51 260.946 138.077 260.946 138.667Z" fill="#263238"/>
<path d="M149.848 319.2H192.595C193.994 319.2 195.336 319.755 196.325 320.745C197.315 321.734 197.87 323.076 197.87 324.475V329.716L208.421 334.463L197.87 337.293V340.569C197.87 341.968 197.315 343.31 196.325 344.299C195.336 345.289 193.994 345.845 192.595 345.845H149.848C148.449 345.845 147.107 345.289 146.117 344.299C145.128 343.31 144.572 341.968 144.572 340.569V324.509C144.568 323.813 144.701 323.123 144.964 322.479C145.227 321.836 145.615 321.25 146.106 320.757C146.596 320.263 147.179 319.872 147.821 319.604C148.463 319.337 149.152 319.2 149.848 319.2Z" fill="white" stroke="#263238" stroke-miterlimit="10"/>
<path d="M178.676 332.984C178.675 333.425 178.804 333.857 179.048 334.224C179.292 334.591 179.64 334.878 180.047 335.048C180.454 335.217 180.902 335.262 181.335 335.176C181.767 335.091 182.165 334.878 182.476 334.567C182.788 334.255 183 333.857 183.086 333.425C183.172 332.992 183.127 332.544 182.957 332.137C182.788 331.73 182.501 331.382 182.134 331.138C181.767 330.894 181.335 330.765 180.894 330.767C180.306 330.767 179.742 331 179.326 331.416C178.91 331.832 178.676 332.396 178.676 332.984Z" fill="#263238"/>
<path d="M168.966 332.984C168.966 333.423 169.096 333.852 169.34 334.216C169.583 334.581 169.93 334.865 170.335 335.033C170.74 335.201 171.186 335.245 171.616 335.159C172.046 335.074 172.442 334.862 172.752 334.552C173.062 334.242 173.273 333.847 173.359 333.417C173.444 332.987 173.4 332.541 173.232 332.136C173.065 331.73 172.78 331.384 172.416 331.14C172.051 330.897 171.622 330.767 171.184 330.767C170.595 330.767 170.031 331 169.616 331.416C169.2 331.832 168.966 332.396 168.966 332.984Z" fill="#263238"/>
<path d="M159.247 332.984C159.246 333.425 159.375 333.856 159.618 334.223C159.862 334.59 160.209 334.877 160.616 335.047C161.022 335.217 161.47 335.262 161.902 335.177C162.335 335.092 162.732 334.881 163.044 334.57C163.356 334.259 163.569 333.862 163.656 333.43C163.742 332.998 163.699 332.55 163.531 332.143C163.362 331.735 163.077 331.387 162.711 331.142C162.345 330.897 161.914 330.767 161.473 330.767C160.884 330.767 160.319 331 159.902 331.416C159.485 331.831 159.249 332.395 159.247 332.984Z" fill="#263238"/>
<path d="M149.848 191.52H192.595C193.994 191.52 195.336 192.075 196.325 193.065C197.315 194.054 197.87 195.396 197.87 196.795V202.036L208.421 206.782L197.87 209.613V212.889C197.87 214.288 197.315 215.63 196.325 216.619C195.336 217.609 193.994 218.164 192.595 218.164H149.848C148.449 218.164 147.107 217.609 146.117 216.619C145.128 215.63 144.572 214.288 144.572 212.889V196.786C144.575 195.389 145.131 194.049 146.12 193.062C147.109 192.074 148.45 191.52 149.848 191.52Z" fill="white" stroke="#263238" stroke-miterlimit="10"/>
<path d="M178.676 205.262C178.676 205.703 178.807 206.133 179.052 206.5C179.297 206.866 179.645 207.151 180.052 207.319C180.46 207.488 180.908 207.531 181.34 207.445C181.772 207.358 182.168 207.145 182.479 206.833C182.79 206.521 183.002 206.124 183.087 205.691C183.172 205.259 183.126 204.811 182.957 204.404C182.787 203.998 182.5 203.651 182.133 203.407C181.766 203.164 181.335 203.034 180.894 203.036C180.602 203.036 180.313 203.094 180.043 203.206C179.774 203.318 179.529 203.482 179.323 203.689C179.117 203.895 178.954 204.141 178.843 204.411C178.732 204.681 178.675 204.97 178.676 205.262Z" fill="#263238"/>
<path d="M168.966 205.262C168.968 205.7 169.099 206.128 169.344 206.492C169.588 206.855 169.935 207.138 170.341 207.305C170.746 207.471 171.192 207.514 171.621 207.428C172.051 207.341 172.445 207.129 172.755 206.819C173.064 206.508 173.274 206.113 173.359 205.683C173.444 205.253 173.4 204.808 173.232 204.403C173.063 203.998 172.779 203.653 172.415 203.409C172.05 203.166 171.622 203.036 171.184 203.036C170.892 203.036 170.603 203.094 170.333 203.206C170.063 203.318 169.819 203.482 169.613 203.689C169.407 203.895 169.243 204.141 169.132 204.411C169.021 204.681 168.965 204.97 168.966 205.262Z" fill="#263238"/>
<path d="M159.247 205.262C159.247 205.702 159.378 206.133 159.622 206.499C159.867 206.865 160.215 207.15 160.621 207.319C161.028 207.487 161.476 207.531 161.907 207.445C162.339 207.359 162.736 207.147 163.047 206.836C163.359 206.525 163.571 206.128 163.656 205.696C163.742 205.265 163.698 204.817 163.53 204.41C163.361 204.004 163.076 203.656 162.71 203.411C162.344 203.167 161.913 203.036 161.473 203.036C160.883 203.036 160.317 203.271 159.899 203.688C159.482 204.106 159.247 204.672 159.247 205.262Z" fill="#263238"/>
<path d="M212.066 188.067C211.075 183.691 207.245 167.244 204.851 164.018C202.087 160.289 186.094 151.628 183.809 150.066C181.524 148.503 178.038 147.302 176.954 147.302C176.954 147.302 168.176 150.309 159.524 152.594C150.872 154.879 146.084 156.441 145.093 159.314C144.253 161.834 140.414 183.019 139.516 188.051L212.066 188.067Z" fill="#616161" stroke="#263238" stroke-linecap="round" stroke-linejoin="round"/>
<path d="M159.6 186.564C159.236 180.286 158.88 174.014 158.533 167.748" stroke="#263238" stroke-linecap="round" stroke-linejoin="round"/>
<path d="M183.448 166.538C187.538 165.942 189.823 158.483 190.428 155.358C190.512 154.904 190.596 154.518 190.672 154.14C187.412 152.216 184.657 150.654 183.809 150.066C181.524 148.503 178.038 147.302 176.954 147.302C176.954 147.302 173.754 148.403 169.31 149.772C169.907 151.133 171.427 154.493 173.712 158.97C176.719 164.858 179.365 167.16 183.448 166.538Z" fill="white" stroke="#263238" stroke-linecap="round" stroke-linejoin="round"/>
<path d="M174.308 136.357C174.308 136.357 173.107 148.747 172.99 149.469C172.872 150.192 174.552 154.997 177.442 159.449C180.331 163.901 184.162 163.539 186.094 159.684C187.538 156.463 188.704 153.124 189.58 149.705C187.711 149.303 185.954 148.492 184.436 147.33C182.918 146.168 181.677 144.684 180.802 142.985C177.92 137.205 175.51 134.677 174.308 136.357Z" fill="#B2B2B2" stroke="#263238" stroke-linecap="round" stroke-linejoin="round"/>
<path d="M182.608 106.898C182.608 106.898 174.913 109.183 172.15 115.198C169.898 120.086 171.184 127.705 172.15 130.225C173.116 132.745 173.468 137.684 175.274 142.136C177.08 146.588 181.885 152.216 185.976 153.056C190.067 153.896 198.122 147.403 200.256 144.404C202.39 141.406 201.701 136.223 201.936 135.383C202.171 134.543 205.296 128.528 204.943 121.103C204.59 113.677 194.275 104.857 182.608 106.898Z" fill="#B2B2B2" stroke="#263238" stroke-linecap="round" stroke-linejoin="round"/>
<path d="M197.4 134.56C197.4 134.56 198.484 141.532 196.795 142.254C195.107 142.976 191.864 141.893 191.386 140.927" stroke="#263238" stroke-linecap="round" stroke-linejoin="round"/>
<path d="M190.428 144.656C188.566 143.787 186.951 142.464 185.732 140.809C185.732 140.809 183.086 144.774 185.976 145.849C186.745 146.175 187.601 146.234 188.407 146.018C189.214 145.802 189.925 145.323 190.428 144.656Z" fill="#263238" stroke="#263238" stroke-linecap="round" stroke-linejoin="round"/>
<path d="M191.831 134.341C191.537 135.29 190.915 135.946 190.436 135.803C189.958 135.66 189.815 134.77 190.1 133.812C190.386 132.854 191.016 132.208 191.486 132.35C191.957 132.493 192.116 133.384 191.831 134.341Z" fill="#263238"/>
<path d="M200.248 135.66C199.954 136.618 199.332 137.273 198.853 137.122C198.374 136.97 198.232 136.088 198.517 135.139C198.803 134.19 199.433 133.526 199.912 133.669C200.39 133.812 200.533 134.711 200.248 135.66Z" fill="#263238"/>
<path d="M194.275 130.057C194.076 130.059 193.883 129.984 193.738 129.847C191.495 127.697 188.983 129.679 188.874 129.763C188.795 129.827 188.704 129.875 188.607 129.904C188.51 129.933 188.408 129.942 188.307 129.932C188.206 129.921 188.108 129.891 188.018 129.842C187.929 129.794 187.85 129.729 187.786 129.65C187.722 129.571 187.674 129.48 187.645 129.383C187.617 129.285 187.607 129.183 187.618 129.082C187.628 128.981 187.658 128.883 187.707 128.794C187.755 128.705 187.821 128.626 187.9 128.562C188.869 127.733 190.111 127.291 191.387 127.32C192.662 127.35 193.882 127.849 194.813 128.722C194.958 128.868 195.039 129.066 195.039 129.272C195.039 129.478 194.958 129.676 194.813 129.822C194.743 129.895 194.66 129.953 194.567 129.993C194.475 130.034 194.376 130.055 194.275 130.057Z" fill="#263238"/>
<path d="M203.171 132.72C203.041 132.72 202.913 132.687 202.799 132.626C202.685 132.564 202.587 132.475 202.516 132.367C202.362 132.061 202.144 131.793 201.875 131.581C201.606 131.369 201.295 131.219 200.962 131.141C200.379 131.116 199.808 131.308 199.357 131.678C199.282 131.746 199.193 131.799 199.098 131.832C199.002 131.866 198.9 131.881 198.799 131.875C198.698 131.87 198.598 131.844 198.507 131.8C198.415 131.757 198.333 131.695 198.265 131.62C198.197 131.544 198.145 131.456 198.111 131.36C198.078 131.264 198.063 131.163 198.068 131.061C198.074 130.96 198.099 130.861 198.143 130.769C198.187 130.678 198.248 130.595 198.324 130.528C198.712 130.19 199.165 129.935 199.654 129.776C200.143 129.617 200.659 129.559 201.172 129.604C201.73 129.704 202.259 129.929 202.719 130.262C203.178 130.595 203.557 131.028 203.826 131.527C203.902 131.644 203.945 131.78 203.95 131.919C203.955 132.059 203.922 132.197 203.855 132.319C203.787 132.442 203.688 132.543 203.568 132.614C203.448 132.685 203.31 132.721 203.171 132.72Z" fill="#263238"/>
<path d="M172.351 130.838C172.402 130.989 172.444 131.141 172.486 131.3V131.401C172.536 131.569 172.578 131.745 172.62 131.922V131.972C172.62 132.174 172.712 132.375 172.754 132.585L176.551 131.745C176.551 131.745 180.037 132.468 180.524 131.267C181.012 130.065 178.718 128.259 180.398 126.462C182.078 124.664 186.774 125.857 187.253 123.572C187.732 121.287 188.933 113.114 198.677 115.634C200.663 116.281 202.569 117.155 204.355 118.238C201.986 111.585 192.78 105.067 182.566 106.856C182.566 106.856 174.871 109.141 172.108 115.155C169.856 120.044 171.142 127.663 172.108 130.183C172.166 130.343 172.225 130.519 172.284 130.695L172.351 130.838Z" fill="#263238" stroke="#263238" stroke-linecap="round" stroke-linejoin="round"/>
<path d="M178.282 133.837C178.282 133.837 177.198 129.15 174.308 128.662C171.419 128.175 170.344 131.67 170.948 134.794C171.553 137.919 174.67 140.809 177.442 139.969" fill="#B2B2B2"/>
<path d="M178.282 133.837C178.282 133.837 177.198 129.15 174.308 128.662C171.419 128.175 170.344 131.67 170.948 134.794C171.553 137.919 174.67 140.809 177.442 139.969" stroke="#263238" stroke-linecap="round" stroke-linejoin="round"/>
<path d="M187.807 188.068C190 185.682 195.098 180.146 195.476 179.768C195.854 179.39 196.678 179.29 199.441 178.567C202.205 177.845 206.774 176.282 207.497 175.678C208.58 174.986 209.554 174.137 210.386 173.158C210.973 172.191 211.495 171.186 211.949 170.15C212.31 169.546 215.191 168.227 215.914 167.63C216.636 167.034 217.358 165.833 217.115 165.228C216.871 164.623 212.671 165.833 208.824 166.673C206.765 167.148 204.673 167.468 202.566 167.63C202.566 167.63 204.733 164.506 206.052 163.061C207.371 161.616 206.892 158.491 205.934 159.701C204.977 160.91 198.845 167.16 197.534 167.639C196.224 168.118 193.208 172.57 191.159 174.619C189.479 176.299 175.82 185.144 171.251 188.059L187.807 188.068Z" fill="#B2B2B2" stroke="#263238" stroke-linecap="round" stroke-linejoin="round"/>
<path d="M211.949 170.15L207.858 171.595" stroke="#263238" stroke-linecap="round" stroke-linejoin="round"/>
<path d="M279.67 188.067H141.884" stroke="#263238" stroke-linecap="round" stroke-linejoin="round"/>
<path d="M279.342 249.287C278.922 246.087 277.133 233.546 274.495 227.783C273.228 224.98 271.38 222.477 269.073 220.441C266.766 218.405 264.053 216.882 261.114 215.973C256.284 214.511 249.984 213.276 246.834 213.722C246.834 213.722 236.376 217.325 231.882 218.333C227.388 219.341 222.726 222.491 220.811 225.196C219.131 227.598 210.328 245.398 208.421 249.287H279.342Z" fill="white" stroke="#263238" stroke-linecap="round" stroke-linejoin="round"/>
<path d="M279.342 249.287C278.922 246.087 277.133 233.546 274.495 227.783C273.228 224.98 271.38 222.477 269.073 220.441C266.766 218.405 264.053 216.882 261.114 215.973C256.284 214.511 249.984 213.276 246.834 213.722C246.834 213.722 239.669 216.191 234.646 217.611C233.075 220.064 229.547 225.507 226.246 230.144C222.046 236.024 220.366 244.524 222.642 249.287H279.342Z" fill="#03738C" stroke="#263238" stroke-linecap="round" stroke-linejoin="round"/>
<path d="M240.089 207.203C241.116 211.127 241.497 215.193 241.214 219.24C240.761 226.103 237.166 230.488 238.518 233.974C239.87 237.46 245.238 238.804 249.984 235.099C254.73 231.395 255.604 222.281 255.721 218.232C255.839 214.183 257.746 201.6 257.746 201.6C257.746 201.6 252.706 207.556 246.826 207.782C240.946 208.009 240.089 207.203 240.089 207.203Z" fill="white" stroke="#263238" stroke-linecap="round" stroke-linejoin="round"/>
<path d="M241.324 175.048C241.324 175.048 233.764 176.392 230.311 183.028C226.951 189.387 228.547 200.08 231.865 206.413C236.065 214.41 235.813 217.149 235.855 224.213C235.895 224.69 235.837 225.171 235.684 225.624C235.531 226.078 235.286 226.496 234.965 226.851C233.234 228.531 233.008 226.011 232.554 227.439C232.1 228.867 236.754 232.025 241.55 227.85C244.658 225.137 245.372 217.552 243.911 213.159C242.449 208.765 235.141 199.668 236.72 192.587C238.3 185.506 243.802 179.659 244.28 176.955C244.759 174.25 241.324 175.048 241.324 175.048Z" fill="#263238"/>
<path d="M241.643 179.164C241.643 179.164 228.572 187.001 230.614 199.13C232.655 211.26 245.734 214.805 244.499 227.304" stroke="#636363" stroke-linecap="round" stroke-linejoin="round"/>
<path d="M241.324 175.048C241.324 175.048 233.764 176.392 230.311 183.028C226.951 189.387 228.547 200.08 231.865 206.413C236.065 214.41 235.813 217.149 235.855 224.213C235.895 224.69 235.837 225.171 235.684 225.624C235.531 226.078 235.286 226.496 234.965 226.851C233.234 228.531 233.008 226.011 232.554 227.439C232.1 228.867 236.754 232.025 241.55 227.85C244.658 225.137 245.372 217.552 243.911 213.159C242.449 208.765 235.141 199.668 236.72 192.587C238.3 185.506 243.802 179.659 244.28 176.955C244.759 174.25 241.324 175.048 241.324 175.048Z" stroke="#263238" stroke-linecap="round" stroke-linejoin="round"/>
<path d="M262.256 249.287H279.342V249.127V249.001V248.816V248.64V248.564V248.396V248.346V248.128V247.901V247.842V247.64V247.548C279.346 247.472 279.346 247.397 279.342 247.321V247.262C279.342 247.178 279.342 247.094 279.342 247.01V246.952C279.342 246.868 279.342 246.792 279.342 246.716V246.607C279.342 246.532 279.342 246.456 279.342 246.372V246.288L279.292 245.986L279.241 245.683V245.616L279.191 245.288C279.191 245.162 279.149 245.036 279.132 244.91C279.073 244.524 279.006 244.121 278.939 243.709C278.939 243.583 278.939 243.457 278.872 243.331V243.289C278.872 243.163 278.83 243.037 278.804 242.911V242.852C278.804 242.735 278.762 242.617 278.737 242.491V242.399C278.737 242.29 278.737 242.18 278.678 242.071V241.937L278.628 241.643V241.492L278.578 241.206V241.063C278.578 240.962 278.536 240.862 278.519 240.761V240.618C278.519 240.517 278.477 240.416 278.46 240.316V240.164C278.46 240.064 278.46 239.971 278.401 239.87V239.719C278.401 239.618 278.401 239.518 278.342 239.417V239.257C278.342 239.165 278.3 239.064 278.284 238.963V238.804C278.284 238.703 278.242 238.61 278.216 238.51V238.35C278.216 238.249 278.216 238.148 278.149 238.048C278.153 237.997 278.153 237.947 278.149 237.896C278.149 237.796 278.107 237.686 278.09 237.586V237.434L277.2 236.88V236.754C277.2 236.636 277.15 236.51 277.116 236.384V236.3L277.015 235.864C276.948 235.561 276.872 235.259 276.797 234.956V234.889C276.797 234.763 276.738 234.637 276.713 234.511V234.377L276.637 234.074C276.62 234.022 276.606 233.969 276.595 233.915L276.52 233.629C276.52 233.579 276.52 233.52 276.478 233.47C276.436 233.419 276.436 233.293 276.41 233.201L276.36 233.024C276.36 232.94 276.318 232.856 276.293 232.772L276.242 232.596L276.175 232.352L276.125 232.168C276.125 232.092 276.083 232.016 276.058 231.932L276.007 231.756C275.981 231.682 275.959 231.606 275.94 231.529C275.94 231.462 275.898 231.403 275.881 231.344C275.864 231.286 275.881 231.193 275.814 231.126C275.747 231.059 275.814 231.008 275.755 230.941C275.737 230.87 275.714 230.8 275.688 230.731C275.672 230.671 275.653 230.612 275.629 230.555C275.611 230.481 275.588 230.408 275.562 230.336C275.562 230.286 275.562 230.227 275.503 230.168C275.444 230.11 275.461 230.026 275.436 229.958C275.411 229.891 275.394 229.849 275.377 229.79L275.302 229.589C275.286 229.534 275.266 229.481 275.243 229.429C275.224 229.361 275.202 229.293 275.176 229.228C275.152 229.179 275.133 229.128 275.117 229.076L275.041 228.875C275.041 228.824 275.041 228.774 274.982 228.732L274.898 228.53L274.848 228.396C274.848 228.32 274.789 228.253 274.756 228.186C274.738 228.148 274.724 228.109 274.714 228.068L274.571 227.766C273.36 225.116 271.631 222.734 269.486 220.762C267.341 218.79 264.823 217.267 262.08 216.283C261.332 218.896 259.451 226.204 259.904 232.243C260.308 237.989 261.635 245.818 262.256 249.287Z" fill="white" stroke="#263238" stroke-linecap="round" stroke-linejoin="round"/>
<path d="M242.34 175.493C242.34 175.493 238.064 178.752 236.72 182.356C235.376 185.96 234.242 195.057 234.469 198.66C234.696 202.264 239.299 208.556 241.189 210.126C243.079 211.697 251.269 209.9 255.133 206.304C257.804 203.784 260.081 195.174 258.283 186.741C256.486 178.307 247.85 173.469 242.34 175.493Z" fill="white" stroke="#263238" stroke-linecap="round" stroke-linejoin="round"/>
<path d="M246.053 191.915C246.053 191.915 248.522 189.328 252.68 191.462" stroke="#263238" stroke-linecap="round" stroke-linejoin="round"/>
<path d="M239.98 190.453C239.787 189.653 239.383 188.918 238.81 188.327C238.237 187.736 237.515 187.31 236.72 187.093" stroke="#263238" stroke-linecap="round" stroke-linejoin="round"/>
<path d="M242.004 189.328C242.004 189.328 241.777 191.461 240.988 192.251C240.198 193.04 238.518 193.822 239.19 195.401C239.862 196.98 241.886 197.308 242.785 196.409" stroke="#263238" stroke-linecap="round" stroke-linejoin="round"/>
<path d="M236.939 184.943C236.939 184.943 238.854 182.583 241.979 184.943" stroke="#263238" stroke-linecap="round" stroke-linejoin="round"/>
<path d="M245.49 186.068C245.49 186.068 249.194 183.817 252.118 187.975" stroke="#263238" stroke-linecap="round" stroke-linejoin="round"/>
<path d="M238.963 198.996C238.963 198.996 240.542 201.13 244.843 200.567C249.144 200.004 250.127 198.207 250.127 198.207" stroke="#263238" stroke-linecap="round" stroke-linejoin="round"/>
<path d="M249.194 191.856C249.194 192.067 249.132 192.274 249.015 192.449C248.897 192.624 248.731 192.761 248.536 192.842C248.341 192.923 248.126 192.944 247.919 192.903C247.713 192.861 247.522 192.76 247.373 192.611C247.224 192.461 247.122 192.271 247.081 192.064C247.04 191.858 247.061 191.643 247.142 191.448C247.223 191.253 247.359 191.087 247.535 190.969C247.71 190.852 247.917 190.79 248.128 190.79C248.411 190.79 248.682 190.902 248.882 191.102C249.082 191.302 249.194 191.573 249.194 191.856Z" fill="#263238"/>
<path d="M239.299 189.378C239.299 189.589 239.237 189.796 239.119 189.971C239.002 190.146 238.836 190.283 238.641 190.364C238.446 190.445 238.231 190.466 238.024 190.425C237.817 190.383 237.627 190.282 237.478 190.133C237.329 189.983 237.227 189.793 237.186 189.586C237.145 189.38 237.166 189.165 237.247 188.97C237.328 188.775 237.464 188.609 237.64 188.491C237.815 188.374 238.021 188.312 238.232 188.312C238.515 188.312 238.787 188.424 238.987 188.624C239.187 188.824 239.299 189.095 239.299 189.378Z" fill="#263238"/>
<path d="M241.441 200.458C241.441 200.458 243.239 204.17 246.389 203.818C249.539 203.465 249.312 199.08 249.312 199.08C246.938 200.468 244.145 200.957 241.441 200.458Z" fill="#263238" stroke="#263238" stroke-linecap="round" stroke-linejoin="round"/>
<path d="M251.664 165.833H251.412C247.38 166.295 242.088 167.143 238.854 169.739C234.914 172.881 236.267 173.67 239.862 175.468C243.457 177.265 254.142 183.229 255.158 191.772C256.175 200.315 252.68 213.696 251 219.769C249.32 225.843 251.555 230.001 254.822 232.924C255.559 233.608 256.433 234.125 257.387 234.441C258.34 234.757 259.351 234.864 260.35 234.755C262.181 234.57 264.482 234.083 265.936 232.89C266.095 232.764 267.935 230.824 267.616 230.563C266.003 229.194 264.062 231.16 263.08 229.278C261.072 225.414 264.188 220.786 266.297 217.611C268.019 215.015 270.883 213.411 272.63 210.891C274.33 208.172 275.361 205.089 275.638 201.894C276.436 195.057 275.15 187.807 272.748 181.398C269.632 173.082 263.18 165.69 253.68 165.715C253.025 165.724 252.336 165.757 251.664 165.833Z" fill="#263238"/>
<path d="M233.864 169.361C233.864 169.361 245.624 170.629 253.117 180.802C260.61 190.974 262.744 197.879 262.559 207.32C262.374 216.762 270.01 221.13 275.638 218.4" stroke="#636363" stroke-linecap="round" stroke-linejoin="round"/>
<path d="M244.213 166.455C244.213 166.455 259.476 169.361 264.373 184.615C269.27 199.87 267.288 209.16 273.84 210.412" stroke="#636363" stroke-linecap="round" stroke-linejoin="round"/>
<path d="M251.84 194.973C251.84 194.973 257.477 208.597 256.04 221.491C254.604 234.385 260.24 236.754 269.304 234.385" stroke="#636363" stroke-linecap="round" stroke-linejoin="round"/>
<path d="M251.664 165.833H251.412C247.38 166.295 242.088 167.143 238.854 169.739C234.914 172.881 236.267 173.67 239.862 175.468C243.457 177.265 254.142 183.229 255.158 191.772C256.175 200.315 252.68 213.696 251 219.769C249.32 225.843 251.555 230.001 254.822 232.924C255.559 233.608 256.433 234.125 257.387 234.441C258.34 234.757 259.351 234.864 260.35 234.755C262.181 234.57 264.482 234.083 265.936 232.89C266.095 232.764 267.935 230.824 267.616 230.563C266.003 229.194 264.062 231.16 263.08 229.278C261.072 225.414 264.188 220.786 266.297 217.611C268.019 215.015 270.883 213.411 272.63 210.891C274.33 208.172 275.361 205.089 275.638 201.894C276.436 195.057 275.15 187.807 272.748 181.398C269.632 173.082 263.18 165.69 253.68 165.715C253.025 165.724 252.336 165.757 251.664 165.833Z" stroke="#263238" stroke-linecap="round" stroke-linejoin="round"/>
<path d="M196.913 228.682C197.819 229.503 198.894 230.117 200.063 230.479C200.063 230.479 201.86 235.99 201.743 240.375C201.733 243.357 201.941 246.335 202.364 249.287H216.14C213.616 244.934 211.469 240.373 209.723 235.654C207.589 229.245 208.488 225.641 207.026 221.483C205.565 217.325 204.884 215.301 202.415 212.041C199.945 208.782 197.694 209.79 197.694 210.916C197.694 212.041 199.038 212.487 200.054 214.066C200.749 215.235 201.312 216.477 201.734 217.77C201.734 217.77 197.005 219.912 195.661 222.273C194.317 224.633 195.451 227.329 196.913 228.682Z" fill="white" stroke="#263238" stroke-linecap="round" stroke-linejoin="round"/>
<path d="M193.654 220.475C193.654 220.475 191.856 222.155 191.856 223.835C191.856 225.515 193.2 227.884 193.88 227.884C194.561 227.884 194.888 226.649 194.552 225.414C194.216 224.18 193.654 220.475 193.654 220.475Z" fill="white" stroke="#263238" stroke-linecap="round" stroke-linejoin="round"/>
<path d="M195.787 218.106C195.787 218.106 193.654 219.458 193.091 221.147C192.904 221.881 192.888 222.648 193.044 223.389C193.199 224.13 193.523 224.826 193.99 225.422C194.662 226.43 196.686 226.657 197.249 226.094C197.812 225.532 197.358 224.297 197.249 223.574C197.14 222.852 196.014 220.651 196.123 219.643C196.19 219.119 196.229 218.592 196.241 218.064L195.787 218.106Z" fill="white" stroke="#263238" stroke-linecap="round" stroke-linejoin="round"/>
<path d="M201.751 217.77C201.751 217.77 198.82 215.973 196.577 217.208C194.334 218.442 194.435 220.92 195.224 222.718C196.014 224.516 198.038 225.532 198.937 224.742C199.836 223.953 198.82 222.718 199.046 221.038C199.273 219.358 201.751 217.77 201.751 217.77Z" fill="white" stroke="#263238" stroke-linecap="round" stroke-linejoin="round"/>
<path d="M204.674 220.92C204.674 220.92 202.306 217.77 200.172 217.997C198.038 218.224 194.552 222.197 195.224 223.171C195.896 224.146 199.92 222.6 199.92 222.6C199.92 222.6 198.794 226.313 201.6 227.094" fill="white"/>
<path d="M204.674 220.92C204.674 220.92 202.306 217.77 200.172 217.997C198.038 218.224 194.552 222.197 195.224 223.171C195.896 224.146 199.92 222.6 199.92 222.6C199.92 222.6 198.794 226.313 201.6 227.094" stroke="#263238" stroke-linecap="round" stroke-linejoin="round"/>
<path d="M279.67 249.287H141.884" stroke="#263238" stroke-linecap="round" stroke-linejoin="round"/>
<path d="M279.67 315.723H141.884" stroke="#263238" stroke-linecap="round" stroke-linejoin="round"/>
<path d="M215.989 315.454C215.989 315.454 217.216 304.584 212.999 301.728C208.782 298.872 190.453 285.701 183.389 284.088C176.324 282.476 171.982 280.964 169.109 282.593C166.236 284.223 154.459 294.84 149.57 298.2C144.682 301.56 142.237 305.13 141.557 307.709C141.135 309.993 140.997 312.321 141.145 314.639V315.723C141.145 315.723 216.266 315.177 215.989 315.454Z" fill="#263238" stroke="#263238" stroke-linecap="round" stroke-linejoin="round"/>
<path d="M169.126 282.576C168 283.305 166.92 284.102 165.892 284.962C165.922 287.755 166.493 290.516 167.572 293.093C171.083 301.627 178.987 306.466 185.212 303.904C190.52 301.72 192.931 294.899 191.394 287.666C188.881 286.143 186.189 284.935 183.38 284.071C176.324 282.442 171.982 280.946 169.126 282.576Z" fill="white" stroke="#263238" stroke-linecap="round" stroke-linejoin="round"/>
<path d="M170.755 269.808C170.755 269.808 170.486 278.099 169.806 281.627C169.126 285.155 169.126 289.918 172.528 295.907C175.93 301.896 184.204 301.61 186.808 299.267C189.412 296.923 188.84 290.438 188.84 287.994C188.84 285.55 190.277 279.804 190.277 279.804C190.277 279.804 182.322 276.721 178.248 274.008C174.174 271.295 172.116 268.993 170.755 269.808Z" fill="white" stroke="#263238" stroke-linecap="round" stroke-linejoin="round"/>
<path d="M192.36 247.674C192.36 247.674 195.619 253.244 196.434 254.873C196.754 255.592 196.884 256.382 196.812 257.165C196.74 257.949 196.468 258.701 196.022 259.35C195.283 260.384 201.902 263.609 201.785 265.306C201.667 267.003 201.071 267.935 199.735 269.859C198.274 271.959 198.82 275.478 198.173 277.948C197.627 280.048 196.955 280.569 194.813 281.358C190.73 282.854 183.128 282.308 179.323 280.409C175.518 278.511 174.166 275.109 172.805 272.664C171.444 270.22 171.31 265.734 172.124 260.98C172.939 256.226 179.323 249.841 183.397 248.077C187.471 246.313 192.36 247.674 192.36 247.674Z" fill="white" stroke="#263238" stroke-linecap="round" stroke-linejoin="round"/>
<path d="M196.291 272.799C195.175 273.095 194.011 273.164 192.868 273.001C191.725 272.838 190.627 272.446 189.638 271.85C189.638 271.85 189.638 275.924 191.68 276.05C193.721 276.176 196.291 272.799 196.291 272.799Z" fill="#263238"/>
<path d="M192.36 261.803C192.57 262.719 192.36 263.55 191.873 263.659C191.386 263.769 190.848 263.113 190.638 262.198C190.428 261.282 190.638 260.451 191.125 260.341C191.612 260.232 192.125 260.887 192.36 261.803Z" fill="#263238"/>
<path d="M187.06 259.081C187.528 258.377 188.181 257.815 188.946 257.455C189.712 257.095 190.561 256.952 191.402 257.04" stroke="#263238" stroke-linecap="round" stroke-linejoin="round"/>
<path d="M200.096 268.582C200.096 268.582 197.996 270.85 196.694 271.018C195.392 271.186 193.939 269.397 194.586 268.263" stroke="#263238" stroke-linecap="round" stroke-linejoin="round"/>
<path d="M176.056 269.808C176.702 269.598 179.861 270.085 179.416 268.313C178.97 266.541 178.063 266.28 178.735 264.953C179.407 263.626 186.346 260.333 184.85 257.62C183.856 255.866 182.673 254.227 181.322 252.731C181.322 252.731 192.73 250.555 195.174 247.162C197.618 243.768 194.905 238.468 192.049 238.468C189.193 238.468 190.554 239.417 182.952 241.828C175.35 244.239 171.536 241.29 165.833 247.263C160.129 253.235 161.893 264.903 164.069 268.59C166.244 272.278 170.587 275.243 172.763 274.428C174.938 273.613 174.426 270.354 176.056 269.808Z" fill="#263238" stroke="#263238" stroke-linecap="round" stroke-linejoin="round"/>
<path d="M178.08 271.035C178.08 271.035 173.04 264.651 169.68 266.683C166.32 268.716 171.31 274.84 173.485 275.52C175.661 276.2 178.24 274.562 178.24 274.562" fill="white"/>
<path d="M178.08 271.035C178.08 271.035 173.04 264.651 169.68 266.683C166.32 268.716 171.31 274.84 173.485 275.52C175.661 276.2 178.24 274.562 178.24 274.562" stroke="#263238" stroke-linecap="round" stroke-linejoin="round"/>
<path d="M278.762 354.421H140.843" stroke="#263238" stroke-linecap="round" stroke-linejoin="round"/>
<path d="M206.422 350.809C206.422 350.809 206.296 343.333 207.413 342.208C208.53 341.082 236.074 326.012 243.802 326.13C251.53 326.248 262.088 336.773 267.725 339.57C276.696 344.056 276.696 346.542 277.444 349.037C278.191 351.532 278.813 354.396 278.813 354.396H206.422V350.809Z" fill="white"/>
<path d="M278.46 352.893C276.377 352.75 274.134 352.624 271.74 352.523L272.698 346.525L276.646 346.693C276.146 345.636 275.43 344.695 274.546 343.93L273.118 343.871L273.277 342.897C273.084 342.754 272.882 342.603 272.664 342.46L272.446 343.846L271.16 343.795L271.496 341.695C270.774 341.25 269.951 340.78 269.018 340.284L268.918 340.881C266.171 340.729 263.407 340.62 260.652 340.536L261.114 336.336L262.794 336.378C261.173 335.202 259.434 333.858 257.594 332.581L257.443 333.606C254.411 333.564 251.387 333.547 248.413 333.539L248.976 327.407L248.329 327.138L247.741 333.539H246.38L246.893 326.634C246.035 326.372 245.15 326.206 244.255 326.139L243.701 333.547C242.096 333.547 240.509 333.547 238.938 333.547L239.442 326.827L238.753 327.037L238.266 333.522H236.006L236.183 327.886C235.343 328.197 234.41 328.549 233.486 328.919L233.344 333.556C231.008 333.556 228.749 333.631 226.582 333.682L226.666 331.901L225.985 332.22L225.91 333.699H224.171V333.035C221.718 334.219 219.324 335.421 217.14 336.563L221.34 336.437L221.172 340.721L216.72 341.04L216.871 336.84L216.191 337.193L216.056 341.057L214.88 341.116L215.057 337.756C214.066 338.285 213.142 338.781 212.302 339.243L212.201 341.233L208.438 341.46C208.092 341.654 207.764 341.876 207.455 342.124L207.396 342.199L212.167 341.905L212.058 343.963L206.791 344.165C206.665 345.005 206.59 345.929 206.539 346.845C208.068 346.786 209.899 346.71 211.915 346.643L211.621 352.195L206.464 352.296V352.96L211.588 352.859L211.512 354.337H214.183L214.259 352.809H215.645L215.586 354.354H216.258L216.308 352.792L220.819 352.725L220.752 354.354H223.423L223.49 352.674H225.086L225.011 354.354H225.683L225.758 352.674L232.806 352.615L232.756 354.363H235.418L235.477 352.607H236.88L236.754 354.371H237.418L237.552 352.607H242.306L242.172 354.379H244.843L244.978 352.615H246.028L245.868 354.371H246.54L246.7 352.615C249.379 352.615 252.059 352.615 254.705 352.683L254.461 354.363H257.149L257.393 352.683H258.686L258.51 354.304H259.182L259.358 352.691C261.979 352.741 264.541 352.809 267.019 352.893L266.792 354.304H269.489L269.699 352.985L271.018 353.035L270.816 354.304H271.488L271.681 353.069C274.151 353.178 276.478 353.304 278.636 353.447C278.578 353.371 278.519 353.145 278.46 352.893ZM215.628 352.204H214.25L214.544 346.609L215.821 346.567L215.628 352.204ZM215.914 343.921L214.687 343.963L214.805 341.838L215.989 341.779L215.914 343.921ZM220.802 352.128L216.292 352.195L216.485 346.567L221.029 346.441L220.802 352.128ZM221.13 343.77L216.577 343.896L216.653 341.746C218.081 341.67 219.61 341.603 221.222 341.536L221.13 343.77ZM225.078 352.078H223.474L223.7 346.349H225.38L225.078 352.078ZM225.473 343.678L223.793 343.72L223.885 341.443L225.565 341.376L225.473 343.678ZM225.607 340.713L223.927 340.771L224.095 336.529H225.817L225.607 340.713ZM232.789 352.027L225.75 352.086L226.01 346.332L232.966 346.198L232.789 352.027ZM233.05 343.535C230.664 343.535 228.354 343.611 226.136 343.661L226.246 341.351C228.43 341.275 230.731 341.208 233.125 341.158L233.05 343.535ZM233.142 340.486C230.756 340.545 228.463 340.612 226.279 340.687L226.472 336.487C228.656 336.437 230.933 336.395 233.276 336.361L233.142 340.486ZM235.939 336.286H238.09L237.779 340.393H235.813L235.939 336.286ZM236.88 351.96H235.452L235.637 346.08H237.317L236.88 351.96ZM235.687 343.443L235.763 341.049H237.695L237.518 343.459L235.687 343.443ZM242.34 351.96H237.586L238.022 346.08H242.785L242.34 351.96ZM242.978 343.392H238.224L238.4 340.981C239.963 340.981 241.55 340.965 243.163 340.931L242.978 343.392ZM243.214 340.301L238.451 340.343L238.753 336.244H243.516L243.214 340.301ZM246.196 336.202H247.514L247.145 340.293H245.885L246.196 336.202ZM246.07 351.96H245.011L245.456 346.038H246.616L246.07 351.96ZM245.658 343.367L245.834 340.948H247.078L246.859 343.367H245.658ZM254.78 352.036C252.126 352.036 249.438 351.977 246.742 351.969L247.288 346.038C250.043 346.038 252.832 346.038 255.646 346.08L254.78 352.036ZM256.032 343.417C253.176 343.417 250.328 343.367 247.531 343.367L247.75 340.948C250.58 340.948 253.47 340.99 256.376 341.049L256.032 343.417ZM256.477 340.385C253.554 340.326 250.656 340.293 247.808 340.284L248.186 336.193C251.118 336.193 254.066 336.193 257.074 336.261L256.477 340.385ZM259.77 336.303H260.484L260.022 340.503H259.182L259.77 336.303ZM259.064 341.116H259.955L259.694 343.443H258.728L259.064 341.116ZM258.72 352.137H257.443L258.283 346.173H259.342L258.72 352.137ZM267.12 352.347C264.6 352.263 262.08 352.195 259.434 352.145L260.089 346.173C262.76 346.215 265.432 346.282 268.094 346.357L267.12 352.347ZM268.523 343.703C265.818 343.619 263.096 343.56 260.383 343.51L260.635 341.2C263.382 341.284 266.129 341.393 268.876 341.544L268.523 343.703ZM271.118 352.498L269.808 352.439L270.782 346.45L272.076 346.492L271.118 352.498Z" fill="#ADADAD"/>
<path d="M206.422 350.809C206.422 350.809 206.296 343.333 207.413 342.208C208.53 341.082 236.074 326.012 243.802 326.13C251.53 326.248 262.088 336.773 267.725 339.57C276.696 344.056 276.696 346.542 277.444 349.037C278.191 351.532 278.813 354.396 278.813 354.396H206.422V350.809Z" stroke="#263238" stroke-linecap="round" stroke-linejoin="round"/>
<path d="M239.686 323.14C239.686 323.14 235.948 323.392 234.956 325.265C233.965 327.138 234.452 328.255 232.436 333.858C230.42 339.461 229.32 341.091 230.446 341.091C231.571 341.091 234.646 337.848 235.796 337.353C236.947 336.857 239.543 341.208 239.543 341.208C239.543 341.208 244.524 338.596 246.145 338.47C247.766 338.344 251.252 345.072 251.874 343.955C252.496 342.838 254.117 338.722 255.864 334.984C257.611 331.246 257.981 328.129 256.486 325.635C254.99 323.14 240.937 322.392 239.686 323.14Z" fill="#263238" stroke="#263238" stroke-linecap="round" stroke-linejoin="round"/>
<path d="M237.443 321.896C236.868 325.736 236.826 329.637 237.317 333.489C238.157 339.091 239.442 342.334 240.433 341.586C241.424 340.838 247.54 337.1 250.656 333.236C253.772 329.372 254.268 328.877 255.142 326.76C256.015 324.643 257.006 322.274 257.006 322.274C257.006 322.274 245.423 326.634 237.443 321.896Z" fill="white" stroke="#263238" stroke-linecap="round" stroke-linejoin="round"/>
<path d="M237.569 301.333C237.569 301.333 235.326 297.847 234.083 301.963C232.84 306.079 235.822 308.314 236.2 308.062C236.578 307.81 237.569 301.333 237.569 301.333Z" fill="white" stroke="#263238" stroke-linecap="round" stroke-linejoin="round"/>
<path d="M238.694 292.614C238.694 292.614 234.578 310.431 233.705 315.546C232.831 320.662 238.442 325.383 244.675 326.256C250.908 327.13 256.88 324.139 258.502 321.023C260.123 317.907 265.222 297.973 265.978 296.604C266.734 295.235 269.338 289.254 267.355 287.255C265.373 285.256 262.122 286.759 262.122 286.759C262.122 286.759 259.871 281.022 256.015 280.879C252.16 280.737 251.647 282.492 251.647 282.492C251.647 282.492 248.287 278.385 245.171 279.258C242.054 280.132 242.054 282.123 242.054 282.123C242.054 282.123 236.326 280.753 234.209 284.861C232.092 288.969 237.947 290.22 237.947 290.22C237.947 290.22 236.695 291.993 238.694 292.614Z" fill="white" stroke="#263238" stroke-linecap="round" stroke-linejoin="round"/>
<path d="M261.492 307.197C261.87 307.071 264.365 303.081 266.725 304.677C269.086 306.273 266.356 312.405 264.365 313.396C264.025 313.579 263.65 313.689 263.265 313.719C262.88 313.749 262.493 313.698 262.129 313.569C261.765 313.44 261.432 313.236 261.151 312.97C260.871 312.705 260.649 312.383 260.501 312.027" fill="white"/>
<path d="M261.492 307.197C261.87 307.071 264.365 303.081 266.725 304.677C269.086 306.273 266.356 312.405 264.365 313.396C264.025 313.579 263.65 313.689 263.265 313.719C262.88 313.749 262.493 313.698 262.129 313.569C261.765 313.44 261.432 313.236 261.151 312.97C260.871 312.705 260.649 312.383 260.501 312.027" stroke="#263238" stroke-linecap="round" stroke-linejoin="round"/>
<path d="M267.355 287.28C265.356 285.29 262.122 286.785 262.122 286.785C262.122 286.785 259.871 281.048 256.015 280.905C252.16 280.762 251.647 282.518 251.647 282.518C251.647 282.518 248.287 278.41 245.171 279.284C242.054 280.157 242.054 282.148 242.054 282.148C242.054 282.148 236.326 280.779 234.209 284.886C232.092 288.994 237.947 290.246 237.947 290.246C237.947 290.246 236.695 291.993 238.694 292.614C239.442 291.867 240.937 288.507 248.539 288.414C256.141 288.322 262.24 293.774 262.24 293.774C262.24 293.774 259.501 297.008 260.375 298.377C261.248 299.746 262.24 299.628 262.122 300.746C262.004 301.863 259.602 312.086 258.628 313.707C258.091 314.494 257.325 315.096 256.433 315.431C255.542 315.766 254.569 315.818 253.646 315.58C251.899 315.076 250.9 313.833 247.766 312.22C244.633 310.607 242.029 309.977 239.786 310.851C237.544 311.724 237.418 312.472 236.174 312.842C235.099 313.169 234.763 312.464 234.452 311.632C234.116 313.253 233.848 314.639 233.68 315.588C232.84 320.696 238.417 325.425 244.65 326.298C250.883 327.172 256.855 324.182 258.476 321.065C260.098 317.949 265.196 298.016 265.952 296.646C266.708 295.277 269.346 289.254 267.355 287.28Z" fill="#03738C" stroke="#263238" stroke-linecap="round" stroke-linejoin="round"/>
<path d="M240.316 313.177C240.316 313.177 244.919 316.042 248.035 314.294C248.035 314.294 244.919 318.032 243.306 318.032C241.693 318.032 240.316 313.177 240.316 313.177Z" fill="#263238" stroke="#263238" stroke-linecap="round" stroke-linejoin="round"/>
<path d="M243.802 302.644C243.802 303.475 243.555 304.287 243.094 304.977C242.632 305.668 241.976 306.206 241.209 306.524C240.441 306.842 239.597 306.925 238.782 306.763C237.967 306.601 237.219 306.201 236.632 305.614C236.044 305.026 235.644 304.278 235.482 303.463C235.32 302.648 235.403 301.804 235.721 301.037C236.039 300.269 236.578 299.613 237.268 299.152C237.959 298.69 238.771 298.444 239.602 298.444C240.715 298.444 241.784 298.886 242.571 299.674C243.359 300.462 243.802 301.53 243.802 302.644Z" stroke="#263238" stroke-linecap="round" stroke-linejoin="round"/>
<path d="M255.889 304.761C255.889 305.591 255.643 306.403 255.181 307.094C254.72 307.785 254.064 308.323 253.296 308.641C252.529 308.959 251.685 309.042 250.87 308.88C250.055 308.718 249.307 308.318 248.719 307.73C248.132 307.143 247.732 306.395 247.57 305.58C247.408 304.765 247.491 303.921 247.809 303.153C248.127 302.386 248.665 301.73 249.356 301.268C250.046 300.807 250.859 300.561 251.689 300.561C252.803 300.561 253.871 301.003 254.659 301.791C255.447 302.578 255.889 303.647 255.889 304.761Z" stroke="#263238" stroke-linecap="round" stroke-linejoin="round"/>
<path d="M243.928 302.207C243.928 302.207 245.666 301.367 247.792 303.047" stroke="#263238" stroke-linecap="round" stroke-linejoin="round"/>
<path d="M255.889 304.761L263.987 305.072" stroke="#263238" stroke-linecap="round" stroke-linejoin="round"/>
<path d="M244.549 302.711C243.523 304.651 242.609 306.647 241.811 308.692C241.559 309.809 242.928 310.431 244.675 310.431C246.422 310.431 247.195 309.683 247.195 308.935" stroke="#263238" stroke-linecap="round" stroke-linejoin="round"/>
<path d="M244.171 297.973C244.001 297.972 243.834 297.928 243.684 297.847C243.031 297.42 242.274 297.178 241.494 297.148C240.714 297.119 239.941 297.302 239.257 297.679C239.147 297.753 239.023 297.805 238.893 297.831C238.763 297.857 238.629 297.857 238.498 297.831C238.235 297.779 238.004 297.625 237.854 297.402C237.705 297.179 237.65 296.906 237.702 296.643C237.754 296.38 237.909 296.149 238.132 295.999C239.124 295.413 240.258 295.11 241.41 295.123C242.562 295.137 243.689 295.466 244.667 296.075C244.861 296.183 245.014 296.353 245.101 296.557C245.188 296.762 245.204 296.989 245.147 297.204C245.091 297.419 244.964 297.609 244.787 297.744C244.61 297.878 244.393 297.95 244.171 297.948V297.973Z" fill="#03738C"/>
<path d="M256.385 302.09C256.221 302.093 256.059 302.057 255.913 301.983C255.767 301.91 255.64 301.802 255.545 301.67C254.957 300.76 254.102 300.056 253.096 299.655C252.091 299.253 250.986 299.173 249.934 299.427C249.684 299.495 249.417 299.464 249.19 299.34C248.963 299.215 248.793 299.008 248.716 298.761C248.639 298.514 248.66 298.246 248.776 298.015C248.892 297.784 249.093 297.606 249.337 297.52C250.792 297.137 252.331 297.219 253.736 297.756C255.142 298.292 256.344 299.255 257.174 300.51C257.282 300.662 257.346 300.84 257.358 301.025C257.37 301.211 257.33 301.396 257.243 301.56C257.156 301.724 257.024 301.86 256.864 301.954C256.703 302.047 256.52 302.094 256.334 302.09H256.385Z" fill="#03738C"/>
<path d="M240.122 304.324C240.568 304.324 240.929 303.654 240.929 302.829C240.929 302.003 240.568 301.333 240.122 301.333C239.677 301.333 239.316 302.003 239.316 302.829C239.316 303.654 239.677 304.324 240.122 304.324Z" fill="#263238" stroke="#263238" stroke-linecap="round" stroke-linejoin="round"/>
<path d="M251.899 304.702C251.899 305.542 251.538 306.197 251.059 306.197C250.58 306.197 250.219 305.525 250.219 304.702C250.219 303.879 250.58 303.207 251.059 303.207C251.538 303.207 251.899 303.879 251.899 304.702Z" fill="#263238" stroke="#263238" stroke-linecap="round" stroke-linejoin="round"/>
<path d="M96.1239 189.726C104.125 179.54 102.354 164.796 92.1681 156.795C81.9822 148.794 67.2387 150.565 59.2376 160.751C51.2364 170.937 53.0075 185.681 63.1934 193.682C73.3793 201.683 88.1228 199.912 96.1239 189.726Z" stroke="#263238" stroke-miterlimit="10"/>
<path d="M68.6784 181.44C68.6784 181.44 84.5124 182.28 89.964 167.731" stroke="#263238" stroke-width="2" stroke-linecap="round" stroke-linejoin="round"/>
<path d="M81.48 163.749C82.32 164.934 82.5132 166.219 81.942 166.622C81.3708 167.025 80.262 166.387 79.422 165.203C78.582 164.018 78.3888 162.741 78.96 162.338C79.5312 161.935 80.64 162.573 81.48 163.749Z" fill="#263238"/>
<path d="M71.2152 170.318C72.0552 171.494 72.2568 172.78 71.6772 173.183C71.0976 173.586 69.9972 172.956 69.1572 171.772C68.3172 170.587 68.124 169.302 68.6952 168.907C69.2664 168.512 70.3836 169.134 71.2152 170.318Z" fill="#263238"/>
<path d="M344.887 168.487C345.026 171.766 346.134 174.931 348.071 177.58C350.008 180.23 352.687 182.245 355.769 183.373C358.851 184.5 362.199 184.689 365.388 183.914C368.577 183.139 371.465 181.437 373.687 179.021C375.909 176.606 377.365 173.586 377.871 170.343C378.377 167.1 377.91 163.78 376.529 160.803C375.149 157.825 372.917 155.324 370.115 153.615C367.313 151.905 364.068 151.065 360.788 151.2C358.609 151.29 356.468 151.808 354.489 152.726C352.51 153.643 350.731 154.942 349.254 156.548C347.778 158.153 346.632 160.034 345.882 162.083C345.133 164.131 344.795 166.308 344.887 168.487V168.487Z" stroke="#263238" stroke-miterlimit="10"/>
<path d="M369.205 167.723C369.205 167.723 360.368 174.644 351.288 168.437" stroke="#263238" stroke-width="2" stroke-linecap="round" stroke-linejoin="round"/>
<path d="M355.513 164.531C356.01 164.531 356.412 163.704 356.412 162.683C356.412 161.662 356.01 160.835 355.513 160.835C355.017 160.835 354.614 161.662 354.614 162.683C354.614 163.704 355.017 164.531 355.513 164.531Z" fill="#263238"/>
<path d="M363.216 162.322C363.216 163.346 363.619 164.17 364.115 164.17C364.61 164.17 365.014 163.33 365.014 162.322C365.014 161.314 364.61 160.474 364.115 160.474C363.619 160.474 363.216 161.28 363.216 162.322Z" fill="#263238"/>
<path d="M108.27 362.777C116.815 353.99 116.619 339.939 107.832 331.394C99.0453 322.849 84.9949 323.045 76.45 331.832C67.905 340.619 68.1012 354.67 76.8881 363.215C85.6751 371.76 99.7255 371.564 108.27 362.777Z" stroke="#263238" stroke-miterlimit="10"/>
<path d="M79.8588 354.539C79.8588 354.539 94.1388 346.399 107.89 344.459C107.89 344.459 111.838 357.462 98.6496 362.502C87.2928 366.828 79.8588 354.539 79.8588 354.539Z" stroke="#263238" stroke-miterlimit="10"/>
<path d="M82.6728 348.272C82.4338 348.271 82.1997 348.204 81.9955 348.08C81.7913 347.956 81.6247 347.778 81.5136 347.567L78.2796 341.309C78.1441 341.005 78.1299 340.661 78.2399 340.347C78.3499 340.034 78.5758 339.774 78.8712 339.621C79.1666 339.469 79.5092 339.435 79.8288 339.527C80.1483 339.619 80.4205 339.83 80.5896 340.116L83.8236 346.374C83.9828 346.68 84.0139 347.037 83.9099 347.366C83.806 347.696 83.5755 347.97 83.2692 348.129C83.0836 348.221 82.8798 348.27 82.6728 348.272Z" fill="#263238"/>
<path d="M99.96 342.014C99.6613 342.014 99.3718 341.911 99.1396 341.723C98.9074 341.535 98.7464 341.273 98.6832 340.981L97.1796 333.866C97.1566 333.554 97.2475 333.243 97.4354 332.991C97.6233 332.74 97.8957 332.565 98.2024 332.499C98.5091 332.432 98.8295 332.479 99.1046 332.63C99.3796 332.781 99.591 333.026 99.6996 333.32L101.203 340.444C101.275 340.781 101.211 341.134 101.023 341.423C100.836 341.713 100.541 341.917 100.204 341.989L99.96 342.014Z" fill="#263238"/>
<path d="M102.48 360.545C101.279 357.596 97.104 356.395 93.0216 357.865C90.9538 358.564 89.193 359.96 88.0404 361.813" stroke="#263238" stroke-miterlimit="10"/>
<path d="M350.28 248.791C349.411 251.199 349.275 253.811 349.89 256.296C350.504 258.781 351.842 261.028 353.734 262.753C355.626 264.478 357.987 265.603 360.518 265.986C363.049 266.369 365.637 265.993 367.955 264.905C370.272 263.817 372.215 262.067 373.538 259.875C374.861 257.683 375.504 255.148 375.386 252.591C375.268 250.034 374.394 247.569 372.876 245.508C371.357 243.447 369.261 241.883 366.853 241.013C365.254 240.435 363.557 240.178 361.859 240.256C360.161 240.335 358.494 240.747 356.955 241.469C355.416 242.191 354.035 243.21 352.889 244.466C351.744 245.722 350.857 247.192 350.28 248.791V248.791Z" stroke="#263238" stroke-miterlimit="10"/>
<path d="M369.76 257.426C369.76 257.426 361.435 252.672 353.413 251.546C353.413 251.546 351.112 259.106 358.781 262.072C365.4 264.6 369.76 257.426 369.76 257.426Z" stroke="#263238" stroke-miterlimit="10"/>
<path d="M368.113 253.764C368.253 253.766 368.39 253.73 368.51 253.659C368.63 253.587 368.728 253.484 368.794 253.361L370.675 249.707C370.767 249.528 370.785 249.321 370.726 249.129C370.666 248.937 370.533 248.777 370.356 248.682C370.176 248.593 369.969 248.577 369.777 248.638C369.586 248.699 369.426 248.833 369.331 249.01L367.441 252.664C367.35 252.842 367.333 253.049 367.395 253.24C367.456 253.43 367.591 253.589 367.769 253.68C367.875 253.736 367.993 253.765 368.113 253.764Z" fill="#263238"/>
<path d="M358.05 250.119C358.224 250.118 358.393 250.058 358.527 249.948C358.662 249.838 358.754 249.684 358.789 249.514L359.671 245.364C359.696 245.265 359.701 245.163 359.685 245.062C359.67 244.961 359.634 244.865 359.58 244.778C359.526 244.692 359.455 244.617 359.372 244.559C359.288 244.5 359.194 244.459 359.094 244.439C358.994 244.418 358.891 244.417 358.791 244.437C358.691 244.457 358.596 244.496 358.512 244.554C358.428 244.611 358.356 244.685 358.302 244.771C358.247 244.857 358.21 244.953 358.193 245.053L357.311 249.203C357.29 249.3 357.288 249.4 357.306 249.498C357.324 249.596 357.361 249.689 357.414 249.773C357.468 249.856 357.538 249.928 357.62 249.985C357.701 250.041 357.793 250.081 357.89 250.102L358.05 250.119Z" fill="#263238"/>
<path d="M356.546 260.921C357.244 259.241 359.688 258.501 362.065 259.367C363.272 259.768 364.299 260.583 364.963 261.668" stroke="#263238" stroke-miterlimit="10"/>
<path d="M335.768 241.501C338.758 230.641 332.377 219.414 321.517 216.424C310.657 213.435 299.43 219.815 296.441 230.675C293.451 241.536 299.832 252.763 310.692 255.752C321.552 258.741 332.779 252.361 335.768 241.501Z" stroke="#263238" stroke-miterlimit="10"/>
<path d="M300.317 232.621C300.132 232.667 299.936 232.645 299.766 232.557C299.597 232.47 299.464 232.325 299.393 232.147C299.323 231.97 299.319 231.773 299.382 231.593C299.445 231.413 299.571 231.262 299.737 231.168L304.819 228.43L301.417 228.312C301.208 228.304 301.01 228.214 300.867 228.06C300.725 227.907 300.649 227.703 300.657 227.493C300.665 227.284 300.755 227.086 300.909 226.943C301.063 226.801 301.267 226.725 301.476 226.733L307.784 226.951C307.956 226.966 308.118 227.032 308.25 227.142C308.382 227.252 308.478 227.399 308.524 227.565C308.548 227.728 308.523 227.895 308.453 228.044C308.383 228.193 308.27 228.319 308.129 228.405L300.485 232.521L300.317 232.621Z" fill="#263238"/>
<path d="M327.508 225.12C327.446 225.128 327.384 225.128 327.323 225.12L319.024 225.389C318.849 225.396 318.677 225.345 318.535 225.244C318.392 225.143 318.288 224.997 318.237 224.83C318.186 224.663 318.192 224.484 318.254 224.32C318.315 224.157 318.43 224.019 318.578 223.927L324.181 220.433C324.362 220.333 324.574 220.304 324.775 220.35C324.977 220.397 325.154 220.516 325.273 220.685C325.383 220.862 325.418 221.076 325.37 221.279C325.323 221.482 325.198 221.658 325.021 221.768L321.896 223.717L327.272 223.549C327.462 223.547 327.647 223.614 327.792 223.738C327.936 223.861 328.032 224.032 328.06 224.22C328.089 224.408 328.049 224.6 327.947 224.761C327.846 224.921 327.69 225.04 327.508 225.095V225.12Z" fill="#263238"/>
<path d="M299.981 236.166C304.307 244.138 311.984 248.682 319.049 246.733C326.113 244.784 330.389 236.964 330.028 227.9L327.298 228.186C318.565 229.082 310.046 231.442 302.098 235.166L299.981 236.166Z" stroke="#263238" stroke-miterlimit="10"/>
<path d="M309.414 245.658C309.347 245.261 309.313 244.86 309.313 244.457C309.313 239.837 313.412 236.057 318.469 236.057C320.144 236.024 321.796 236.446 323.249 237.279C324.702 238.112 325.901 239.324 326.718 240.786" stroke="#263238" stroke-miterlimit="10"/>
<path d="M111.672 250.881C119.484 247.959 123.448 239.256 120.526 231.444C117.603 223.631 108.901 219.667 101.088 222.59C93.2756 225.512 89.3115 234.215 92.234 242.027C95.1566 249.84 103.859 253.804 111.672 250.881Z" stroke="#263238" stroke-miterlimit="10"/>
<path d="M118.096 234.159C118.222 234.193 118.357 234.184 118.477 234.132C118.598 234.08 118.697 233.989 118.759 233.873C118.797 233.806 118.821 233.732 118.83 233.656C118.839 233.579 118.832 233.502 118.81 233.428C118.788 233.354 118.751 233.286 118.702 233.226C118.653 233.167 118.592 233.119 118.524 233.083L114.761 231.05L117.281 230.966C117.435 230.958 117.579 230.89 117.684 230.777C117.789 230.665 117.846 230.516 117.844 230.362C117.841 230.285 117.824 230.209 117.792 230.139C117.761 230.069 117.715 230.006 117.659 229.954C117.603 229.901 117.537 229.861 117.464 229.834C117.392 229.807 117.316 229.796 117.239 229.799L112.568 229.959C112.441 229.966 112.32 230.014 112.223 230.097C112.126 230.179 112.058 230.29 112.03 230.414C112.001 230.538 112.014 230.668 112.066 230.784C112.117 230.901 112.205 230.997 112.316 231.059L117.97 234.108L118.096 234.159Z" fill="#263238"/>
<path d="M97.9692 228.623H98.1036L104.244 228.816C104.373 228.822 104.5 228.785 104.606 228.711C104.711 228.637 104.789 228.529 104.827 228.406C104.864 228.283 104.86 228.15 104.813 228.03C104.767 227.909 104.682 227.807 104.572 227.741L100.422 225.154C100.356 225.107 100.281 225.074 100.201 225.058C100.122 225.041 100.04 225.042 99.961 225.059C99.8818 225.077 99.8072 225.111 99.7419 225.159C99.6766 225.207 99.6221 225.268 99.582 225.338C99.5349 225.404 99.5022 225.48 99.486 225.559C99.4698 225.638 99.4704 225.72 99.4878 225.799C99.5053 225.879 99.5391 225.953 99.5871 226.018C99.6352 226.084 99.6964 226.138 99.7668 226.178L102.077 227.615L98.0952 227.489C98.0191 227.487 97.9433 227.499 97.8721 227.526C97.8009 227.553 97.7358 227.594 97.6804 227.647C97.625 227.699 97.5804 227.762 97.5493 227.831C97.5181 227.901 97.501 227.975 97.4988 228.052C97.4999 228.186 97.5473 228.316 97.6329 228.42C97.7185 228.524 97.8372 228.596 97.9692 228.623Z" fill="#263238"/>
<path d="M118.348 236.788C115.147 242.668 109.46 246.028 104.227 244.608C98.994 243.188 95.8272 237.376 96.096 230.664L98.1204 230.874C104.579 231.54 110.88 233.286 116.76 236.04L118.348 236.788Z" stroke="#263238" stroke-miterlimit="10"/>
<path d="M111.367 243.81C111.411 243.515 111.433 243.217 111.434 242.919C111.434 239.501 108.402 236.729 104.656 236.729C103.417 236.707 102.196 237.02 101.121 237.635C100.046 238.25 99.1573 239.144 98.5488 240.223" stroke="#263238" stroke-miterlimit="10"/>
<path d="M353.119 91.5277C354.854 78.6919 345.856 66.8795 333.02 65.1441C320.184 63.4086 308.372 72.4072 306.636 85.243C304.901 98.0789 313.899 109.891 326.735 111.627C339.571 113.362 351.384 104.364 353.119 91.5277Z" stroke="#263238" stroke-miterlimit="10"/>
<path d="M320.216 81.1524C320.216 82.5972 320.779 83.7732 321.485 83.7732C322.19 83.7732 322.745 82.5972 322.745 81.1524C322.745 79.7076 322.182 78.54 321.485 78.54C320.788 78.54 320.216 79.7076 320.216 81.1524Z" fill="#263238"/>
<path d="M332.363 80.6402C332.363 82.085 332.926 83.2526 333.623 83.2526C334.32 83.2526 334.891 82.085 334.891 80.6402C334.891 79.1954 334.32 78.0278 333.623 78.0278C332.926 78.0278 332.363 79.2038 332.363 80.6402Z" fill="#263238"/>
<path d="M319.015 73.7271L324.752 79.9347" stroke="#263238" stroke-width="2" stroke-linecap="round" stroke-linejoin="round"/>
<path d="M334.362 73.2646L329.095 79.7746" stroke="#263238" stroke-width="2" stroke-linecap="round" stroke-linejoin="round"/>
<path d="M318.553 93.8867C318.553 93.8867 326.113 84.8903 336.538 92.2067" stroke="#263238" stroke-width="2" stroke-linecap="round" stroke-linejoin="round"/>
<path d="M58.0124 290.571C67.1145 290.48 74.4194 283.027 74.3284 273.925C74.2374 264.823 66.7849 257.518 57.6828 257.609C48.5807 257.7 41.2758 265.153 41.3668 274.255C41.4578 283.357 48.9103 290.662 58.0124 290.571Z" stroke="#263238" stroke-miterlimit="10"/>
<path d="M58.0188 266.003C58.716 266.751 58.9848 267.624 58.6236 267.96C58.2624 268.296 57.414 267.96 56.7168 267.213C56.0196 266.465 55.7592 265.6 56.1204 265.264C56.4816 264.928 57.33 265.264 58.0188 266.003Z" fill="#263238"/>
<path d="M51.5256 271.555C52.2228 272.303 52.4916 273.176 52.1304 273.512C51.7692 273.848 50.9208 273.513 50.2236 272.773C49.5264 272.034 49.266 271.152 49.6272 270.816C49.9884 270.48 50.8368 270.816 51.5256 271.555Z" fill="#263238"/>
<path d="M55.0872 261.61L55.0956 267.549" stroke="#263238" stroke-width="2" stroke-linecap="round" stroke-linejoin="round"/>
<path d="M46.9644 268.716L52.794 269.547" stroke="#263238" stroke-width="2" stroke-linecap="round" stroke-linejoin="round"/>
<path d="M64.974 271.757C64.974 271.757 56.7588 270.765 54.894 279.493" stroke="#263238" stroke-width="2" stroke-linecap="round" stroke-linejoin="round"/>
<path d="M124.144 42.2183C127.146 44.6513 129.461 47.8263 130.86 51.4288C132.258 55.0314 132.692 58.9367 132.117 62.7583C131.543 66.5799 129.981 70.1853 127.585 73.2177C125.19 76.2501 122.044 78.6044 118.459 80.0476C114.874 81.4907 110.974 81.9728 107.146 81.446C103.317 80.9192 99.6929 79.4018 96.631 77.044C93.5691 74.6862 91.1759 71.5698 89.6883 68.003C88.2008 64.4363 87.6704 60.5429 88.1496 56.7083" stroke="#263238" stroke-miterlimit="10"/>
<path d="M102.992 38.4806C104.089 38.1135 105.212 37.8326 106.352 37.6406" stroke="#263238" stroke-miterlimit="10"/>
<path d="M97.6752 66.7465C97.6752 66.7465 111.955 58.5985 125.698 56.6665C125.698 56.6665 129.646 69.6781 116.5 74.7097C105.101 79.0273 97.6752 66.7465 97.6752 66.7465Z" stroke="#263238" stroke-miterlimit="10"/>
<path d="M120.322 72.7441C119.129 69.7957 114.946 68.5945 110.863 70.0645C108.797 70.7673 107.039 72.1657 105.89 74.0209" stroke="#263238" stroke-miterlimit="10"/>
<path d="M104.681 40.5551C103.931 39.3104 102.798 38.3422 101.452 37.7957C100.106 37.2492 98.6184 37.1538 97.2133 37.5237C95.8081 37.8937 94.5608 38.7091 93.6582 39.8478C92.7555 40.9865 92.2463 42.387 92.2068 43.8395C90.9081 43.189 89.4336 42.9767 88.0042 43.2346C86.5747 43.4925 85.2673 44.2066 84.2778 45.2699C83.2883 46.3332 82.6699 47.6885 82.5154 49.1327C82.3608 50.577 82.6783 52.0324 83.4204 53.2811C86.5704 58.5395 101.48 59.4467 101.48 59.4467C101.48 59.4467 108.704 47.2667 104.681 40.5551Z" stroke="#263238" stroke-miterlimit="10"/>
<path d="M126.185 38.01C126.313 36.8424 126.06 35.6646 125.462 34.6535C124.864 33.6424 123.954 32.8526 122.869 32.4028C121.784 31.9531 120.582 31.8676 119.444 32.1592C118.306 32.4508 117.293 33.1038 116.558 34.02C116.047 32.9608 115.205 32.0968 114.159 31.5584C113.113 31.02 111.921 30.8366 110.762 31.0358C109.602 31.235 108.539 31.806 107.733 32.6626C106.927 33.5192 106.422 34.6149 106.294 35.784C105.748 40.698 114.878 48.5772 114.878 48.5772C114.878 48.5772 125.479 44.2932 126.185 38.01Z" stroke="#263238" stroke-miterlimit="10"/>
<path d="M312.791 316.562C310.5 318.415 308.733 320.833 307.665 323.579C306.597 326.324 306.264 329.301 306.7 332.214C307.136 335.127 308.326 337.876 310.151 340.188C311.976 342.5 314.374 344.296 317.107 345.396C319.839 346.496 322.812 346.864 325.73 346.462C328.648 346.06 331.411 344.903 333.744 343.105C336.078 341.306 337.901 338.93 339.033 336.21C340.165 333.491 340.568 330.523 340.2 327.6" stroke="#263238" stroke-miterlimit="10"/>
<path d="M328.894 313.715C328.056 313.426 327.196 313.204 326.323 313.051" stroke="#263238" stroke-miterlimit="10"/>
<path d="M332.951 335.244C332.951 335.244 322.081 329.036 311.598 327.541C311.598 327.541 308.591 337.445 318.612 341.275C327.289 344.601 332.951 335.244 332.951 335.244Z" stroke="#263238" stroke-miterlimit="10"/>
<path d="M315.697 339.813C316.604 337.571 319.788 336.655 322.896 337.772C324.472 338.303 325.815 339.367 326.693 340.779" stroke="#263238" stroke-miterlimit="10"/>
<path d="M327.6 315.294C328.171 314.343 329.035 313.604 330.063 313.187C331.09 312.77 332.226 312.698 333.298 312.983C334.37 313.267 335.32 313.892 336.006 314.763C336.692 315.635 337.076 316.706 337.1 317.814C338.09 317.305 339.219 317.133 340.316 317.324C341.412 317.515 342.417 318.058 343.177 318.871C343.936 319.684 344.41 320.723 344.527 321.83C344.643 322.937 344.395 324.051 343.82 325.005C341.418 329.011 330.061 329.7 330.061 329.7C330.061 329.7 324.551 320.41 327.6 315.294Z" stroke="#263238" stroke-miterlimit="10"/>
<path d="M311.237 313.362C311.134 312.472 311.324 311.573 311.778 310.8C312.232 310.027 312.925 309.424 313.753 309.08C314.58 308.736 315.497 308.672 316.365 308.896C317.233 309.12 318.004 309.62 318.562 310.321C318.954 309.518 319.596 308.863 320.392 308.455C321.188 308.048 322.094 307.909 322.976 308.061C323.857 308.212 324.666 308.645 325.28 309.295C325.894 309.945 326.281 310.777 326.382 311.665C326.802 315.412 319.838 321.409 319.838 321.409C319.838 321.409 311.766 318.142 311.237 313.362Z" stroke="#263238" stroke-miterlimit="10"/>
</svg>
