<svg width="620" height="529" viewBox="0 0 620 529" fill="none" xmlns="http://www.w3.org/2000/svg">
<path d="M219.472 170.666L205.144 203.296C203.842 206.27 203.167 209.481 203.167 212.729V236.685L201.1 292.379C208.106 339.006 219.04 349.353 219.04 349.353L234.998 354.607L251.693 349.068L266.663 319.294C281.475 310.216 290.65 290.359 294.447 280.559C295.718 277.282 296.271 273.808 296.26 270.29C296.229 261.511 298.028 251.281 299.251 245.355C299.791 242.747 300.034 240.066 299.676 237.426C298.592 229.461 302.94 221.781 302.94 221.781L303.037 212.076L289.448 215.735C281.167 228.442 281.241 244.156 281.241 244.156L275.084 260.335L271.847 195.866L255.971 196.19L253.916 220.175H250.141V205.098L226.168 146.191L219.472 170.666Z" fill="url(#paint0_linear_8_435)"/>
<path d="M220.335 230.293C220.534 227.224 220.544 224.157 220.222 221.13C219.969 218.106 219.388 215.111 218.321 212.334C218.273 212.21 218.265 212.079 218.284 211.958L218.292 211.917C219.423 205.723 220.681 199.556 221.981 193.399C221.999 193.319 222.03 193.233 222.065 193.163C223.718 189.928 225.366 186.694 227.068 183.485L226.976 183.929C226.752 179.521 226.672 175.107 226.512 170.696L226.549 170.854C225.997 169.527 224.937 168.021 223.396 168.115C222.64 168.129 221.93 168.561 221.269 168.998C220.62 169.484 220.037 170.059 219.474 170.665C219.953 169.995 220.454 169.332 221.067 168.751C221.712 168.228 222.42 167.672 223.342 167.553C224.252 167.405 225.216 167.766 225.888 168.355C226.575 168.948 227.109 169.638 227.497 170.472C227.514 170.513 227.526 170.554 227.528 170.595L227.532 170.632C227.92 175.029 228.386 179.421 228.708 183.822C228.719 183.97 228.69 184.112 228.63 184.239L228.616 184.266C227.041 187.54 225.412 190.786 223.79 194.034L223.872 193.797C222.583 199.958 221.25 206.109 219.79 212.233L219.758 211.816C220.718 214.848 221.121 217.975 221.199 221.075C221.193 224.181 220.983 227.279 220.335 230.293Z" fill="#3C48FA"/>
<path d="M234.267 220.175C233.62 217.625 233.571 215.104 233.659 212.589C233.811 210.078 234.105 207.574 234.998 205.098C235.649 207.648 235.698 210.169 235.606 212.685C235.45 215.196 235.156 217.699 234.267 220.175Z" fill="#3C48FA"/>
<path d="M223.442 260.982C234.998 290.138 227.843 324.481 227.843 324.481C235.673 327.07 241.393 315.083 241.393 315.083C240.746 271.673 275.084 260.335 275.084 260.335L273.419 227.182C255.135 227.182 210.921 229.397 223.442 260.982Z" fill="url(#paint1_linear_8_435)"/>
<path d="M310.074 222.107C310.074 222.107 311.507 230.159 318.709 245.12C335.517 280.054 334.431 292.49 344.088 300.183C351.006 305.689 379.132 302.679 379.132 302.679L390.372 347.774C391.375 351.79 394.98 354.607 399.117 354.607H399.234C401.464 354.607 403.617 353.785 405.27 352.287C416.694 341.954 464.019 300.111 493.76 288.356C493.76 288.356 476.589 266.49 471.406 227.939C471.406 227.939 518.199 63.6912 392.593 55.2664C389.649 55.0695 386.789 54.972 384.026 54.972C268.972 54.9623 310.074 222.107 310.074 222.107Z" fill="url(#paint2_linear_8_435)"/>
<path d="M303.037 15.5274C303.037 15.5274 290.947 24.5995 302.94 37.5572C302.94 37.5572 283.832 26.3249 281.674 39.2847C281.674 39.2847 260.077 39.5616 265.259 54.974C270.442 70.3845 260.939 73.8394 255.757 66.4987C250.572 59.1542 258.781 48.7876 258.781 48.7876C258.781 48.7876 236.749 65.6331 259.211 80.3203C259.211 80.3203 254.46 94.5746 265.259 96.302C265.259 96.302 234.16 91.4511 239.775 101.652C245.388 111.853 237.184 116.602 232.428 114.877C232.428 114.877 222.146 141.223 251.693 130.859C281.241 120.492 453.471 154.522 453.471 154.522C453.471 154.522 451.428 180.964 472.377 178.371C472.377 178.371 477.345 193.922 490.303 186.579C490.303 186.579 483.391 202.994 490.303 210.768C490.303 210.768 481.88 223.08 471.406 227.939C471.406 227.939 466.653 248.348 476.103 257.418C476.103 257.418 473.026 274.266 488.577 272.967L502.397 260.44C502.397 260.44 518.379 261.79 514.06 254.207C509.741 246.621 502.397 232.474 502.397 232.474C502.397 232.474 539.114 248.348 544.731 236.685C550.346 225.024 524.859 226.749 524.859 226.749C524.859 226.749 539.545 218.664 530.475 207.806C530.475 207.806 550.346 201.698 541.707 183.125C541.707 183.125 552.072 185.283 549.48 174.053C546.889 162.82 553.801 159.365 553.801 159.365C553.801 159.365 561.142 165.415 556.392 176.644C556.392 176.644 567.798 172.325 557.991 158.071C557.991 158.071 551.21 132.153 528.749 141.658C528.749 141.658 525.723 136.041 531.771 125.674C537.819 115.308 534.362 105.275 526.587 101.652C526.587 101.652 531.338 95.6937 526.156 88.2224C526.156 88.2224 533.929 89.8231 536.09 74.2742C538.25 58.7233 545.593 74.2742 545.593 74.2742C545.593 74.2742 539.978 54.8355 533.499 67.3624C533.499 67.3624 528.749 53.539 520.11 66.4987C515.747 73.0439 513.916 63.0614 509.502 53.0789C505.175 43.2952 498.367 33.5135 484.257 39.2847C484.257 39.2847 488.435 27.9413 478.429 18.9024C475.3 16.0734 479.137 11.166 482.613 13.5583C482.726 13.6363 482.845 13.7181 482.96 13.8C482.96 13.8 464.069 -8.90628 457.493 6.23907C455.992 9.69785 455.857 13.5992 456.746 17.2647L458.209 23.2893C458.209 23.2893 449.7 7.31918 438.47 20.2789C438.47 20.2789 420.326 18.5495 422.488 31.942C422.488 31.942 411.79 11.6398 398.351 18.5495C398.351 18.5495 378.43 29.349 374.974 12.0706C371.519 -5.20572 353.808 10.3451 363.312 22.0063C363.312 22.0063 327.315 -1.75085 323.285 12.0706C319.253 25.896 308.407 20.7117 311.885 11.2088C315.365 1.70401 330.193 0.409393 330.193 0.409393C330.193 0.409393 327.434 -3.05176e-05 323.675 -3.05176e-05C315.215 -3.05176e-05 301.68 2.07056 303.037 15.5274Z" fill="url(#paint3_linear_8_435)"/>
<path d="M408.234 154.4C407.584 175.133 392.25 185.932 352.727 191.98C313.23 198.022 253.994 213.872 253.916 213.893C255.558 214.365 257.484 214.441 257.484 214.441L289.448 215.736L316.012 207.529L316.229 205.153H309.101C321.511 197.239 343.807 198.461 350.916 199.093C352.521 199.233 354.098 199.192 355.693 198.97C364.815 197.697 396.754 193.17 420.76 188.954C449.053 183.988 444.301 155.48 444.301 155.48C444.301 155.48 442.851 127.17 442.141 117.252C441.494 108.18 429.047 103.881 429.047 103.881C429.047 103.881 417.953 99.1097 395.705 91.5507C394.923 91.2836 394.155 91.0789 393.377 90.8489C411.184 102.442 408.881 133.698 408.234 154.4Z" fill="url(#paint4_linear_8_435)"/>
<path d="M442.141 117.252C442.851 127.17 444.301 155.48 444.301 155.48C444.301 155.48 449.053 183.988 420.761 188.954C399.752 192.643 372.671 196.57 360.119 198.348L363.416 200.097C370.249 203.725 378.06 205.065 385.711 203.913C397.497 202.138 410.829 200.044 422.351 198.02C449.371 193.279 455.74 169.633 453.471 154.522C453.309 151.395 452.455 132.448 451.782 120.239C451.529 115.657 448.634 111.65 444.368 109.956L430.211 104.341C433.321 105.67 441.617 109.89 442.141 117.252Z" fill="url(#paint5_linear_8_435)"/>
<path d="M353.808 91.5504C372.79 86.3681 375.621 99.3259 375.621 99.3259C375.621 99.3259 381.885 129.778 379.292 156.558C376.701 183.339 351 187.441 351 187.441C351 187.441 265.045 206.232 251.695 212.076C251.676 213.021 252.731 213.552 253.916 213.893C253.994 213.871 313.23 198.022 352.727 191.98C392.25 185.932 407.584 175.133 408.234 154.399C408.881 133.697 411.184 102.442 393.377 90.8486C386.779 88.8969 380.466 88.2223 374.898 88.2223C362.515 88.2223 353.808 91.5504 353.808 91.5504Z" fill="url(#paint6_linear_8_435)"/>
<path d="M353.807 91.5504L241.5 122.217C225.088 126.538 226.168 146.191 226.168 146.191C226.168 146.191 226.815 178.804 228.759 192.844C230.703 206.882 243.23 209.689 243.23 209.689L251.695 212.076C265.045 206.232 351 187.441 351 187.441C351 187.441 376.701 183.339 379.292 156.558C381.885 129.778 375.621 99.3259 375.621 99.3259C375.621 99.3259 373.656 90.328 362.016 90.326C359.686 90.326 356.972 90.6867 353.807 91.5504Z" fill="url(#paint7_linear_8_435)"/>
<path d="M396.811 101.652C394.307 102.186 391.792 102.654 389.281 103.137L389.24 103.141C387.959 103.317 386.776 104.149 385.992 105.177C385.216 106.245 384.81 107.563 384.613 108.907C384.268 111.628 384.875 114.417 385.15 117.312C385.75 123.044 386.136 128.78 386.436 134.526C386.688 140.276 386.891 146.017 386.719 151.806C386.668 153.282 386.534 154.639 386.698 155.994C386.791 157.357 387.187 158.667 387.838 159.817C389.125 162.147 391.872 163.504 394.606 163.58L394.633 163.578C396.881 163.707 399.127 163.834 401.377 164.009C399.125 164.115 396.873 164.169 394.621 164.226H394.649C391.681 164.444 388.474 163.138 386.803 160.459C385.06 157.852 385.042 154.557 385.066 151.773C385.048 146.076 384.768 140.34 384.493 134.621C384.22 128.897 383.892 123.171 383.483 117.462C383.313 114.652 382.855 111.704 383.37 108.708C383.662 107.232 384.192 105.748 385.175 104.531C386.181 103.33 387.614 102.51 389.215 102.422L389.176 102.426C391.72 102.157 394.259 101.87 396.811 101.652Z" fill="#3C48FA"/>
<path d="M309.101 205.153H316.229L316.012 207.529L303.037 212.076C303.037 212.076 302.875 213.562 303.224 215.418C304.035 219.725 309.085 221.961 312.552 219.28C312.589 219.253 312.628 219.222 312.665 219.191C315.244 217.128 320.329 212.963 320.384 209.516C320.384 209.516 316.414 203.086 320.772 200.579C316.494 201.575 312.437 203.026 309.101 205.153Z" fill="url(#paint8_linear_8_435)"/>
<path d="M325.217 209.635C325.217 209.635 327.634 208.147 330.193 210.512L324.731 205.098C324.731 205.098 321.167 207.447 325.217 209.635Z" fill="url(#paint9_linear_8_435)"/>
<path d="M336.8 204.314C334.299 205.614 336.233 209.876 336.233 209.876C340.039 206.07 347.816 208.582 347.816 208.582C344.654 206.334 340.819 204.004 338.22 204.004C337.689 204.004 337.212 204.099 336.8 204.314Z" fill="url(#paint10_linear_8_435)"/>
<path d="M337.691 240.411L335.517 255.691C335.517 255.691 370.655 259.381 376.808 236.695L339.12 232.473L337.691 240.411Z" fill="url(#paint11_linear_8_435)"/>
<path d="M333.724 222.214C328.393 220.921 321.304 222.214 320.772 229.559C320.253 236.698 328.375 240.411 328.375 240.411C330.645 237.819 334.533 232.473 334.533 232.473C346.465 237.116 379.92 236.685 379.92 236.685C379.92 236.685 371.733 230.292 356.798 224.008C350.304 221.274 345.285 220.461 341.61 220.461C336.217 220.461 333.724 222.214 333.724 222.214Z" fill="url(#paint12_linear_8_435)"/>
<path d="M329.317 239.296L329.676 242.019C329.947 244.096 331.932 245.484 333.977 245.036C339.785 243.772 352.299 241.627 371.63 241.271C374.241 241.222 376.44 239.278 376.808 236.695C368.236 236.669 344.248 236.254 334.533 232.474C334.533 232.474 331.577 236.537 329.317 239.296Z" fill="#F9FBFC"/>
<path d="M376.808 236.695L374.864 240.411C368.709 247.213 348.463 253.532 340.039 254.18C335.172 254.554 336.426 247.506 337.691 244.297C337.691 244.297 333.985 246.716 332.671 248.508C325.139 258.795 331.507 271.684 348.543 268.071C373.002 262.891 379.92 236.685 379.92 236.685L376.808 236.695Z" fill="url(#paint13_linear_8_435)"/>
<path d="M357.143 250.008L339.777 250.333C338.618 250.357 337.69 251.3 337.69 252.459V253.991C338.328 254.161 339.073 254.254 340.04 254.18C344.015 253.872 350.625 252.295 357.143 250.008Z" fill="#F9FBFC"/>
<path d="M472.377 178.371L456.785 216.338C455.268 220.031 455.775 224.375 458.452 227.338C459.905 228.947 461.979 230.21 464.927 230.292C473.35 230.53 497.047 213.893 496.998 183.879C496.979 171.502 492.017 166.893 486.497 166.893C480.734 166.891 474.364 171.918 472.377 178.371Z" fill="url(#paint14_linear_8_435)"/>
<path d="M384.042 302.154C384.042 302.154 395.598 335.153 413.252 329.643C441.48 320.842 446.785 240.411 446.785 240.411C429.614 286.576 384.042 302.154 384.042 302.154Z" fill="url(#paint15_linear_8_435)"/>
<path d="M183.196 396.93C183.196 396.93 168.87 432.36 170.599 466.698L158.719 528.25H270.81L251.693 349.068C251.693 349.068 194.571 352.414 183.196 396.93Z" fill="url(#paint16_linear_8_435)"/>
<path d="M405.284 352.166C403.615 353.742 401.414 354.607 399.117 354.607C394.979 354.607 391.374 351.79 390.372 347.774L388.35 339.655C386.41 331.88 371.302 345.535 371.302 345.535C329.518 345.732 308.453 377.934 308.453 377.934L259.211 528.25H598.075C598.075 528.25 609.736 466.698 618.159 384.411C626.584 302.127 572.157 300.83 572.157 300.83L493.76 288.356C459.466 302.271 416.148 341.917 405.284 352.166Z" fill="url(#paint17_linear_8_435)"/>
<path d="M190.482 450.092C195.325 465.46 214.555 474.797 240.313 452.335L227.842 420.262L192.763 412.547C192.763 412.547 186.645 434.627 190.482 450.092Z" fill="url(#paint18_linear_8_435)"/>
<path d="M497 396.074L473.026 438.837C473.026 438.837 454.882 449.203 460.069 462.163L308.153 378.854L266.439 355.98C263.567 354.405 260.118 356.744 260.553 359.992C262.452 374.227 264.417 405.294 251.693 434.949C236.217 471.021 195.068 476.183 189.886 447.468C189.886 447.468 184.052 464.754 213.21 477.712L266.778 505.15L311.885 528.25H598.075C598.075 528.25 609.736 466.698 618.159 384.411C626.584 302.127 572.158 300.83 572.158 300.83C572.158 300.83 515.789 306.011 497 396.074Z" fill="url(#paint19_linear_8_435)"/>
<path d="M90.1032 63.6912V100.866C90.1032 105.45 90.3996 110.028 90.9903 114.575L96.5821 157.64L31.7893 132.832C31.7893 132.832 14.2945 149.648 44.1017 164.01C73.905 178.371 97.8786 186.147 97.8786 186.147C97.8786 186.147 86.8647 222.431 90.1032 232.474C93.3436 242.519 100.47 265.106 88.8085 280.054L66.1295 268.693C66.1295 268.693 37.6209 225.199 11.7053 230.292C-14.2122 235.389 11.7053 263.809 31.142 280.054C50.5806 296.294 70.0192 320.915 70.0192 320.915C70.0192 320.915 88.2705 355.904 130.004 372.75C171.741 389.595 240.313 452.335 240.313 452.335C240.313 452.335 268.498 426.31 260.582 360.24L220.336 340.353C220.336 340.353 206.082 339.174 200.25 285.338C194.419 231.501 136.756 121.356 136.756 121.356L116.668 77.9455L108.243 36.4772C108.243 36.4772 106.843 35.976 104.824 35.976C99.5671 35.976 90.1032 39.3549 90.1032 63.6912Z" fill="url(#paint20_linear_8_435)"/>
<path d="M136.755 121.356C134.283 121.122 131.748 121.356 129.564 122.286C127.375 123.192 125.686 124.914 125.016 127.086C124.341 129.248 124.248 131.615 124.589 133.966C124.91 136.312 125.466 138.644 126.15 141.04C127.492 145.791 128.859 150.564 130.307 155.314L134.573 169.593C137.369 179.129 140.2 188.663 142.85 198.256C145.527 207.839 148.106 217.457 150.362 227.182C146.558 217.95 143.17 208.58 139.945 199.157C136.698 189.742 133.708 180.243 130.838 170.703C128.065 161.128 125.3 151.562 123.203 141.753C122.181 136.943 121.146 131.455 123.253 126.364C124.341 123.843 126.681 121.925 129.21 121.27C131.736 120.548 134.347 120.724 136.755 121.356Z" fill="#3C48FA"/>
<path d="M96.5831 157.639L133.516 168.829C134.546 169.143 135.131 170.232 134.817 171.264C134.505 172.295 133.415 172.878 132.384 172.566C132.321 172.547 132.257 172.523 132.197 172.5L96.5831 157.639Z" fill="#3C48FA"/>
<path d="M97.8787 186.147C101.899 187.547 105.738 189.264 109.518 191.085C111.421 191.974 113.274 192.949 115.136 193.91C117.005 194.858 118.809 195.917 120.651 196.913C121.15 197.184 121.474 197.654 121.575 198.171L121.614 198.379C121.65 198.568 121.825 199.173 121.965 199.604C122.116 200.077 122.312 200.557 122.502 201.037C122.925 201.992 123.383 202.951 123.921 203.887C124.927 205.792 126.107 207.64 127.345 209.475C128.577 211.31 129.887 213.119 131.219 214.934C132.535 216.763 133.935 218.537 135.241 220.442C133.309 219.188 131.521 217.759 129.766 216.268L127.243 213.913C126.452 213.074 125.631 212.261 124.88 211.376C123.32 209.656 121.96 207.751 120.681 205.757C120.064 204.747 119.513 203.679 118.992 202.581C118.748 202.017 118.501 201.458 118.292 200.857C118.068 200.22 117.906 199.738 117.77 198.808L118.733 200.274C116.937 199.196 115.106 198.182 113.342 197.053C111.568 195.94 109.786 194.84 108.05 193.657C104.56 191.327 101.129 188.898 97.8787 186.147Z" fill="#3C48FA"/>
<path d="M109.865 163.108L110.256 145.113L110.372 145.699C106.172 134.528 102.239 123.295 98.6362 111.938C96.823 106.267 95.1462 100.548 93.6235 94.7886C92.1222 89.0331 90.7282 83.2171 90.1043 77.2958C90.9836 83.182 92.6272 88.9063 94.3741 94.5761C96.1386 100.244 98.0571 105.865 100.11 111.437C104.191 122.582 108.605 133.625 113.257 144.526L113.364 144.777L113.37 145.113L113.764 163.108H109.865Z" fill="#3C48FA"/>
<path d="M120.556 330.265C123.147 369.419 159 377.068 159 377.068C129.626 355.904 136.968 331.714 132.857 300.831C128.743 269.945 97.8787 244.156 97.8787 244.156C105.654 255.839 117.965 291.111 120.556 330.265Z" fill="url(#paint21_linear_8_435)"/>
<path d="M58.7598 286.734L72.3493 296.463C77.3503 300.043 84.3809 297.296 85.6326 291.273C86.3833 287.651 84.726 283.932 81.4914 282.139C74.4764 278.249 66.8101 274.86 66.8101 274.86C66.8101 274.86 66.1297 285.338 58.7598 286.734Z" fill="url(#paint22_linear_8_435)"/>
<defs>
<linearGradient id="paint0_linear_8_435" x1="252.068" y1="347.589" x2="252.068" y2="218.487" gradientUnits="userSpaceOnUse">
<stop stop-color="#5685EB"/>
<stop offset="1" stop-color="#59C2FF"/>
</linearGradient>
<linearGradient id="paint1_linear_8_435" x1="255.112" y1="295.89" x2="239.741" y2="227.087" gradientUnits="userSpaceOnUse">
<stop stop-color="#3C48FA"/>
<stop offset="0.00191367" stop-color="#3C48FA"/>
<stop offset="0.31744" stop-color="#3C48FA"/>
<stop offset="1" stop-color="#5685EB"/>
</linearGradient>
<linearGradient id="paint2_linear_8_435" x1="398.35" y1="294.314" x2="398.35" y2="101.039" gradientUnits="userSpaceOnUse">
<stop stop-color="#5685EB"/>
<stop offset="1" stop-color="#59C2FF"/>
</linearGradient>
<linearGradient id="paint3_linear_8_435" x1="396.335" y1="218.612" x2="396.335" y2="-4.01596" gradientUnits="userSpaceOnUse">
<stop stop-color="#5342D3"/>
<stop offset="1" stop-color="#6168F4"/>
</linearGradient>
<linearGradient id="paint4_linear_8_435" x1="349.259" y1="243.532" x2="349.259" y2="161.299" gradientUnits="userSpaceOnUse">
<stop stop-color="#8756D8"/>
<stop offset="1" stop-color="#EDDDF4"/>
</linearGradient>
<linearGradient id="paint5_linear_8_435" x1="407.006" y1="184.069" x2="407.006" y2="67.3636" gradientUnits="userSpaceOnUse">
<stop stop-color="#8756D8"/>
<stop offset="1" stop-color="#EDDDF4"/>
</linearGradient>
<linearGradient id="paint6_linear_8_435" x1="330.193" y1="145.819" x2="330.193" y2="-22.909" gradientUnits="userSpaceOnUse">
<stop stop-color="#8756D8"/>
<stop offset="1" stop-color="#EDDDF4"/>
</linearGradient>
<linearGradient id="paint7_linear_8_435" x1="288.738" y1="275.66" x2="308.514" y2="98.2694" gradientUnits="userSpaceOnUse">
<stop stop-color="#8756D8"/>
<stop offset="1" stop-color="#EDDDF4"/>
</linearGradient>
<linearGradient id="paint8_linear_8_435" x1="311.886" y1="210.255" x2="311.886" y2="163.165" gradientUnits="userSpaceOnUse">
<stop stop-color="#8756D8"/>
<stop offset="1" stop-color="#EDDDF4"/>
</linearGradient>
<linearGradient id="paint9_linear_8_435" x1="323.283" y1="207.805" x2="330.193" y2="207.805" gradientUnits="userSpaceOnUse">
<stop stop-color="#5342D3"/>
<stop offset="1" stop-color="#6168F4"/>
</linearGradient>
<linearGradient id="paint10_linear_8_435" x1="335.519" y1="206.941" x2="347.815" y2="206.941" gradientUnits="userSpaceOnUse">
<stop stop-color="#5342D3"/>
<stop offset="1" stop-color="#6168F4"/>
</linearGradient>
<linearGradient id="paint11_linear_8_435" x1="356.164" y1="236.744" x2="356.164" y2="266.696" gradientUnits="userSpaceOnUse">
<stop stop-color="#5342D3"/>
<stop offset="1" stop-color="#6168F4"/>
</linearGradient>
<linearGradient id="paint12_linear_8_435" x1="351.675" y1="240.021" x2="343.878" y2="204.543" gradientUnits="userSpaceOnUse">
<stop stop-color="#8756D8"/>
<stop offset="0.808394" stop-color="#EDDDF4"/>
<stop offset="1" stop-color="#EDDDF4"/>
</linearGradient>
<linearGradient id="paint13_linear_8_435" x1="356.381" y1="239.485" x2="346.692" y2="279.223" gradientUnits="userSpaceOnUse">
<stop stop-color="#8756D8"/>
<stop offset="1" stop-color="#EDDDF4"/>
</linearGradient>
<linearGradient id="paint14_linear_8_435" x1="476.47" y1="230.638" x2="476.47" y2="163.264" gradientUnits="userSpaceOnUse">
<stop stop-color="#5685EB"/>
<stop offset="1" stop-color="#59C2FF"/>
</linearGradient>
<linearGradient id="paint15_linear_8_435" x1="415.776" y1="263.033" x2="412.116" y2="346.475" gradientUnits="userSpaceOnUse">
<stop stop-color="#3C48FA"/>
<stop offset="0.316132" stop-color="#3C48FA"/>
<stop offset="1" stop-color="#5685EB"/>
</linearGradient>
<linearGradient id="paint16_linear_8_435" x1="260.126" y1="537.157" x2="108.621" y2="265.435" gradientUnits="userSpaceOnUse">
<stop stop-color="#8756D8"/>
<stop offset="0.97127" stop-color="#EDDDF4"/>
<stop offset="1" stop-color="#EDDDF4"/>
</linearGradient>
<linearGradient id="paint17_linear_8_435" x1="439.755" y1="529.167" x2="438.108" y2="315.084" gradientUnits="userSpaceOnUse">
<stop stop-color="#8756D8"/>
<stop offset="0.97127" stop-color="#EDDDF4"/>
<stop offset="1" stop-color="#EDDDF4"/>
</linearGradient>
<linearGradient id="paint18_linear_8_435" x1="218.572" y1="430.187" x2="186.608" y2="465.607" gradientUnits="userSpaceOnUse">
<stop stop-color="#5342D3"/>
<stop offset="1" stop-color="#6168F4"/>
</linearGradient>
<linearGradient id="paint19_linear_8_435" x1="404.227" y1="609.838" x2="404.227" y2="369.315" gradientUnits="userSpaceOnUse">
<stop stop-color="#8756D8"/>
<stop offset="0.97127" stop-color="#EDDDF4"/>
<stop offset="1" stop-color="#EDDDF4"/>
</linearGradient>
<linearGradient id="paint20_linear_8_435" x1="131.392" y1="403.849" x2="131.392" y2="210.059" gradientUnits="userSpaceOnUse">
<stop stop-color="#5685EB"/>
<stop offset="1" stop-color="#59C2FF"/>
</linearGradient>
<linearGradient id="paint21_linear_8_435" x1="151.623" y1="370.194" x2="99.6552" y2="258.938" gradientUnits="userSpaceOnUse">
<stop stop-color="#3C48FA"/>
<stop offset="0.316132" stop-color="#3C48FA"/>
<stop offset="1" stop-color="#5685EB"/>
</linearGradient>
<linearGradient id="paint22_linear_8_435" x1="103.439" y1="321.69" x2="63.2675" y2="276.335" gradientUnits="userSpaceOnUse">
<stop stop-color="#3C48FA"/>
<stop offset="0.316132" stop-color="#3C48FA"/>
<stop offset="1" stop-color="#5685EB"/>
</linearGradient>
</defs>
</svg>
